SplineFontDB: 3.0
FontName: HM_XMYermook-Bold
FullName: HM_XMYermook Bold
FamilyName: HM_XMYermook
Weight: Bold
Copyright: Copyright (c) Hossein, 2013. All rights reserved.
Version: 0.11
ItalicAngle: 0
UnderlinePosition: -300
UnderlineWidth: 50
Ascent: 1638
Descent: 410
sfntRevision: 0x00010000
LayerCount: 2
Layer: 0 1 "Back"  1
Layer: 1 1 "Fore"  0
XUID: [1021 107 1095372204 4834494]
FSType: 0
OS2Version: 2
OS2_WeightWidthSlopeOnly: 0
OS2_UseTypoMetrics: 1
CreationTime: 1171680780
ModificationTime: 1360911988
PfmFamily: 17
TTFWeight: 700
TTFWidth: 5
LineGap: 0
VLineGap: 0
Panose: 2 0 8 3 8 0 0 2 0 4
OS2TypoAscent: 2230
OS2TypoAOffset: 0
OS2TypoDescent: -390
OS2TypoDOffset: 0
OS2TypoLinegap: 0
OS2WinAscent: 2230
OS2WinAOffset: 0
OS2WinDescent: 390
OS2WinDOffset: 0
HheadAscent: 2230
HheadAOffset: 0
HheadDescent: -390
HheadDOffset: 0
OS2SubXSize: 1434
OS2SubYSize: 1331
OS2SubXOff: 0
OS2SubYOff: 293
OS2SupXSize: 1434
OS2SupYSize: 1331
OS2SupXOff: 0
OS2SupYOff: 928
OS2StrikeYSize: 102
OS2StrikeYPos: 512
OS2Vendor: 'pars'
OS2CodePages: 20000051.41000000
OS2UnicodeRanges: 00002003.80000000.00000008.00000000
Lookup: 6 1 0 "'ccmp' Glyph Composition/Decomposition in Arabic lookup 0"  {"'ccmp' Glyph Composition/Decomposition in Arabic lookup 0 contextual 0"  "'ccmp' Glyph Composition/Decomposition in Arabic lookup 0 contextual 1"  "'ccmp' Glyph Composition/Decomposition in Arabic lookup 0 contextual 2"  "'ccmp' Glyph Composition/Decomposition in Arabic lookup 0 contextual 3"  "'ccmp' Glyph Composition/Decomposition in Arabic lookup 0 contextual 4"  "'ccmp' Glyph Composition/Decomposition in Arabic lookup 0 contextual 5"  } ['ccmp' ('arab' <'FAR ' 'KUR ' 'URD ' 'dflt' > ) ]
Lookup: 4 1 0 "'ccmp' Glyph Composition/Decomposition in Arabic lookup 1"  {"'ccmp' Glyph Composition/Decomposition in Arabic lookup 1 subtable"  } ['ccmp' ('arab' <'FAR ' 'KUR ' 'URD ' 'dflt' > ) ]

StartChar: .notdef
Encoding: 65536 -1 0
Width: 1122
GlyphClass: 2
Flags: W
LayerCount: 2
Fore
SplineSet
633 305 m 0,0,1
 633 271 633 271 608.5 246 c 128,-1,2
 584 221 584 221 548 221 c 0,3,4
 532 221 532 221 517 228 c 128,-1,5
 502 235 502 235 490.5 246.5 c 128,-1,6
 479 258 479 258 472.5 273 c 128,-1,7
 466 288 466 288 466 305 c 0,8,9
 466 340 466 340 490 364.5 c 128,-1,10
 514 389 514 389 551 389 c 0,11,12
 568 389 568 389 583 382.5 c 128,-1,13
 598 376 598 376 609 364.5 c 128,-1,14
 620 353 620 353 626.5 338 c 128,-1,15
 633 323 633 323 633 305 c 0,0,1
740 779 m 0,16,17
 740 732 740 732 714 703 c 128,-1,18
 688 674 688 674 647 674 c 0,19,20
 611 674 611 674 589.5 695 c 128,-1,21
 568 716 568 716 568 749 c 0,22,23
 568 778 568 778 584.5 797 c 128,-1,24
 601 816 601 816 616 827 c 1,25,26
 621 832 621 832 626.5 836 c 128,-1,27
 632 840 632 840 632 841 c 0,28,29
 632 856 632 856 615.5 865.5 c 128,-1,30
 599 875 599 875 574 875 c 0,31,32
 540 875 540 875 519.5 856.5 c 128,-1,33
 499 838 499 838 499 812 c 0,34,35
 499 800 499 800 504.5 784 c 128,-1,36
 510 768 510 768 518 750 c 128,-1,37
 526 732 526 732 535 714.5 c 128,-1,38
 544 697 544 697 552 683 c 2,39,-1
 555 677 l 1,40,-1
 555 678 l 1,41,42
 557 674 557 674 558.5 670.5 c 128,-1,43
 560 667 560 667 562 664 c 1,44,-1
 562 665 l 1,45,46
 564 661 564 661 565 659.5 c 128,-1,47
 566 658 566 658 567 656 c 0,48,49
 578 624 578 624 585.5 587.5 c 128,-1,50
 593 551 593 551 593 516 c 0,51,52
 593 478 593 478 587 418 c 1,53,-1
 529 418 l 1,54,-1
 529 447 l 1,55,-1
 533 476 l 1,56,-1
 533 475 l 2,57,58
 533 505 533 505 492 539 c 1,59,60
 457 572 457 572 436 591 c 128,-1,61
 415 610 415 610 410 615 c 0,62,63
 388 641 388 641 376 673 c 128,-1,64
 364 705 364 705 364 740 c 0,65,66
 364 782 364 782 379.5 818 c 128,-1,67
 395 854 395 854 421.5 880.5 c 128,-1,68
 448 907 448 907 484 921.5 c 128,-1,69
 520 936 520 936 560 936 c 0,70,71
 597 936 597 936 629.5 925 c 128,-1,72
 662 914 662 914 686.5 893.5 c 128,-1,73
 711 873 711 873 725.5 844 c 128,-1,74
 740 815 740 815 740 779 c 0,16,17
148 50 m 1,75,-1
 976 50 l 1,76,-1
 976 1107 l 1,77,-1
 148 1107 l 1,78,-1
 148 50 l 1,75,-1
96 0 m 1,79,-1
 96 1158 l 1,80,-1
 1026 1158 l 1,81,-1
 1026 0 l 1,82,-1
 96 0 l 1,79,-1
EndSplineSet
EndChar

StartChar: exclam
Encoding: 33 33 4
Width: 657
GlyphClass: 2
Flags: W
LayerCount: 2
Fore
SplineSet
168 188 m 0,0,1
 168 248 168 248 205 285 c 1,2,-1
 205 284 l 1,3,4
 246 325 246 325 303 325 c 0,5,6
 362 325 362 325 402 282 c 1,7,-1
 402 283 l 1,8,9
 422 263 422 263 430.5 240 c 128,-1,10
 439 217 439 217 439 188 c 0,11,12
 439 161 439 161 429.5 137 c 128,-1,13
 420 113 420 113 399 93 c 0,14,15
 359 56 359 56 301 56 c 0,16,17
 274 56 274 56 251 65.5 c 128,-1,18
 228 75 228 75 208 92 c 1,19,20
 168 130 168 130 168 188 c 0,0,1
388 836 m 2,21,22
 381 782 381 782 375 727 c 128,-1,23
 369 672 369 672 362 615 c 0,24,25
 360 597 360 597 357.5 578 c 128,-1,26
 355 559 355 559 353 541 c 0,27,28
 352 529 352 529 350 513 c 128,-1,29
 348 497 348 497 346 480.5 c 128,-1,30
 344 464 344 464 342.5 448.5 c 128,-1,31
 341 433 341 433 340 421 c 1,32,-1
 262 421 l 1,33,34
 260 434 260 434 258.5 456 c 128,-1,35
 257 478 257 478 255 495 c 1,36,-1
 255 494 l 1,37,38
 253 508 253 508 252 522.5 c 128,-1,39
 251 537 251 537 250 548 c 1,40,-1
 250 552 l 2,41,42
 250 554 250 554 249.5 555.5 c 128,-1,43
 249 557 249 557 249 559 c 0,44,45
 248 570 248 570 247.5 580 c 128,-1,46
 247 590 247 590 245 601 c 0,47,48
 245 606 245 606 244.5 610 c 128,-1,49
 244 614 244 614 243 619 c 256,50,51
 242 624 242 624 242 628.5 c 128,-1,52
 242 633 242 633 241 638 c 1,53,54
 239 642 239 642 239.5 644.5 c 128,-1,55
 240 647 240 647 240 651 c 0,56,57
 240 654 240 654 239.5 656.5 c 128,-1,58
 239 659 239 659 239 661 c 0,59,60
 237 700 237 700 229 767 c 128,-1,61
 221 834 221 834 207 932 c 0,62,63
 205 949 205 949 202 967 c 128,-1,64
 199 985 199 985 197 1003 c 0,65,66
 183 1107 183 1107 175.5 1178.5 c 128,-1,67
 168 1250 168 1250 168 1273 c 0,68,69
 168 1338 168 1338 193 1397 c 1,70,71
 227 1462 227 1462 305 1462 c 0,72,73
 349 1462 349 1462 378 1438 c 128,-1,74
 407 1414 407 1414 422 1375 c 1,75,76
 429 1354 429 1354 431.5 1329 c 128,-1,77
 434 1304 434 1304 434 1276 c 0,78,79
 434 1259 434 1259 433.5 1239 c 128,-1,80
 433 1219 433 1219 431 1199 c 2,81,-1
 388 836 l 2,21,22
EndSplineSet
EndChar

StartChar: quotedbl
Encoding: 34 34 5
Width: 727
GlyphClass: 2
Flags: W
LayerCount: 2
Fore
SplineSet
303 1468 m 1,0,1
 302 1458 302 1458 301.5 1439 c 128,-1,2
 301 1420 301 1420 300 1409 c 0,3,4
 298 1371 298 1371 296.5 1328 c 128,-1,5
 295 1285 295 1285 293 1248 c 0,6,7
 292 1237 292 1237 292 1227 c 128,-1,8
 292 1217 292 1217 291 1207 c 0,9,10
 290 1196 290 1196 289.5 1185 c 128,-1,11
 289 1174 289 1174 288 1164 c 0,12,13
 286 1131 286 1131 284 1092 c 128,-1,14
 282 1053 282 1053 280 1013.5 c 128,-1,15
 278 974 278 974 276.5 935 c 128,-1,16
 275 896 275 896 273 862 c 1,17,-1
 124 862 l 1,18,-1
 114 1064 l 2,19,20
 112 1102 112 1102 110 1146.5 c 128,-1,21
 108 1191 108 1191 106 1232 c 0,22,23
 105 1240 105 1240 105 1250.5 c 128,-1,24
 105 1261 105 1261 104 1268 c 0,25,26
 103 1291 103 1291 102 1315 c 128,-1,27
 101 1339 101 1339 99 1363 c 0,28,29
 97 1386 97 1386 95.5 1417 c 128,-1,30
 94 1448 94 1448 93 1468 c 1,31,-1
 303 1468 l 1,0,1
639 1468 m 1,32,33
 637 1440 637 1440 635 1408 c 128,-1,34
 633 1376 633 1376 631.5 1343 c 128,-1,35
 630 1310 630 1310 629 1278 c 128,-1,36
 628 1246 628 1246 627 1218 c 0,37,38
 625 1188 625 1188 624 1158 c 128,-1,39
 623 1128 623 1128 621 1099 c 2,40,-1
 615 984 l 2,41,42
 614 972 614 972 613.5 957 c 128,-1,43
 613 942 613 942 612 928 c 256,44,45
 611 914 611 914 610 894 c 128,-1,46
 609 874 609 874 608 862 c 1,47,-1
 459 862 l 1,48,49
 456 932 456 932 452 1013 c 128,-1,50
 448 1094 448 1094 444 1164 c 2,51,-1
 428 1468 l 1,52,-1
 639 1468 l 1,32,33
EndSplineSet
EndChar

StartChar: numbersign
Encoding: 35 35 6
Width: 1139
GlyphClass: 2
Flags: W
LayerCount: 2
Fore
SplineSet
618 580 m 1,0,1
 620 585 620 585 620.5 590 c 128,-1,2
 621 595 621 595 623 599 c 0,3,4
 633 634 633 634 642.5 669.5 c 128,-1,5
 652 705 652 705 661 740 c 0,6,7
 667 761 667 761 672.5 779.5 c 128,-1,8
 678 798 678 798 683 816 c 0,9,10
 689 837 689 837 692.5 849.5 c 128,-1,11
 696 862 696 862 703 885 c 1,12,-1
 517 885 l 1,13,14
 510 861 510 861 504 838 c 128,-1,15
 498 815 498 815 492 789 c 1,16,-1
 493 790 l 1,17,18
 489 775 489 775 484.5 759 c 128,-1,19
 480 743 480 743 475 727 c 0,20,21
 469 705 469 705 464 687.5 c 128,-1,22
 459 670 459 670 454.5 653.5 c 128,-1,23
 450 637 450 637 445.5 619.5 c 128,-1,24
 441 602 441 602 435 580 c 1,25,-1
 618 580 l 1,0,1
29 580 m 1,26,-1
 258 580 l 1,27,28
 262 595 262 595 266 611.5 c 128,-1,29
 270 628 270 628 275 644 c 0,30,31
 282 667 282 667 289 692 c 128,-1,32
 296 717 296 717 303 740 c 1,33,-1
 302 740 l 1,34,35
 308 767 308 767 315 790 c 128,-1,36
 322 813 322 813 329 836 c 0,37,38
 331 844 331 844 332.5 849.5 c 128,-1,39
 334 855 334 855 335 860 c 128,-1,40
 336 865 336 865 337.5 870.5 c 128,-1,41
 339 876 339 876 342 885 c 1,42,-1
 115 885 l 1,43,44
 115 887 115 887 116.5 892 c 128,-1,45
 118 897 118 897 119.5 903 c 128,-1,46
 121 909 121 909 122.5 914.5 c 128,-1,47
 124 920 124 920 125 923 c 0,48,49
 127 928 127 928 127.5 932.5 c 128,-1,50
 128 937 128 937 129 940 c 256,51,52
 130 943 130 943 130.5 945.5 c 128,-1,53
 131 948 131 948 132 951 c 1,54,-1
 132 950 l 1,55,56
 134 959 134 959 136.5 967 c 128,-1,57
 139 975 139 975 142 987 c 1,58,59
 142 992 142 992 143 993 c 128,-1,60
 144 994 144 994 146 996 c 1,61,62
 145 995 145 995 145.5 997 c 128,-1,63
 146 999 146 999 147 1001 c 1,64,-1
 147 1002 l 1,65,66
 148 1004 148 1004 151.5 1014.5 c 128,-1,67
 155 1025 155 1025 157 1030 c 1,68,-1
 379 1030 l 1,69,-1
 379 1031 l 1,70,71
 389 1069 389 1069 400 1107.5 c 128,-1,72
 411 1146 411 1146 422 1185 c 0,73,74
 424 1193 424 1193 426 1200.5 c 128,-1,75
 428 1208 428 1208 430 1216 c 0,76,77
 438 1244 438 1244 445 1272.5 c 128,-1,78
 452 1301 452 1301 460 1329 c 0,79,80
 463 1340 463 1340 465.5 1350.5 c 128,-1,81
 468 1361 468 1361 471 1371 c 1,82,-1
 470 1370 l 1,83,84
 471 1374 471 1374 472 1378 c 128,-1,85
 473 1382 473 1382 474 1386 c 0,86,87
 479 1403 479 1403 485.5 1428 c 128,-1,88
 492 1453 492 1453 497 1468 c 1,89,-1
 675 1468 l 1,90,-1
 553 1030 l 1,91,-1
 740 1030 l 1,92,93
 740 1031 740 1031 740.5 1031.5 c 128,-1,94
 741 1032 741 1032 741 1033 c 2,95,-1
 744 1045 l 2,96,97
 745 1048 745 1048 746 1051.5 c 128,-1,98
 747 1055 747 1055 748 1057 c 1,99,-1
 748 1056 l 1,100,101
 760 1098 760 1098 772 1140 c 128,-1,102
 784 1182 784 1182 795 1224 c 1,103,-1
 794 1224 l 1,104,105
 809 1281 809 1281 827 1347 c 128,-1,106
 845 1413 845 1413 862 1468 c 1,107,-1
 1035 1468 l 1,108,-1
 917 1030 l 1,109,-1
 1145 1030 l 1,110,111
 1142 1018 1142 1018 1136.5 998 c 128,-1,112
 1131 978 1131 978 1125 957 c 128,-1,113
 1119 936 1119 936 1113.5 916.5 c 128,-1,114
 1108 897 1108 897 1105 885 c 1,115,-1
 880 885 l 1,116,117
 876 870 876 870 871.5 854 c 128,-1,118
 867 838 867 838 862 823 c 0,119,120
 854 799 854 799 847.5 775 c 128,-1,121
 841 751 841 751 834 727 c 1,122,-1
 835 727 l 1,123,124
 829 705 829 705 824.5 687 c 128,-1,125
 820 669 820 669 815.5 652.5 c 128,-1,126
 811 636 811 636 806 619 c 128,-1,127
 801 602 801 602 795 580 c 1,128,-1
 1022 580 l 1,129,-1
 1008 527 l 1,130,-1
 1009 527 l 1,131,132
 1007 520 1007 520 1004.5 510.5 c 128,-1,133
 1002 501 1002 501 997 488 c 1,134,-1
 998 490 l 1,135,136
 996 482 996 482 995.5 479.5 c 128,-1,137
 995 477 995 477 992 469 c 0,138,139
 991 467 991 467 990.5 463.5 c 128,-1,140
 990 460 990 460 988 456 c 0,141,142
 986 453 986 453 984 445 c 128,-1,143
 982 437 982 437 981 435 c 1,144,-1
 759 435 l 1,145,146
 755 421 755 421 751 407.5 c 128,-1,147
 747 394 747 394 743 380 c 0,148,149
 733 344 733 344 723 308 c 128,-1,150
 713 272 713 272 703 237 c 0,151,152
 699 224 699 224 696 212 c 128,-1,153
 693 200 693 200 689 186 c 0,154,155
 683 160 683 160 676 134 c 0,156,157
 672 120 672 120 667 102.5 c 128,-1,158
 662 85 662 85 657 66.5 c 128,-1,159
 652 48 652 48 647 31 c 128,-1,160
 642 14 642 14 639 0 c 1,161,-1
 462 0 l 1,162,-1
 582 435 l 1,163,-1
 395 435 l 1,164,165
 382 388 382 388 369 340.5 c 128,-1,166
 356 293 356 293 343 245 c 1,167,-1
 344 245 l 1,168,169
 336 212 336 212 326 176.5 c 128,-1,170
 316 141 316 141 307 107 c 1,171,-1
 307 108 l 1,172,173
 306 101 306 101 304.5 94 c 128,-1,174
 303 87 303 87 301 81 c 0,175,176
 297 68 297 68 292 51 c 0,177,178
 289 40 289 40 285 24.5 c 128,-1,179
 281 9 281 9 279 0 c 1,180,-1
 102 0 l 1,181,-1
 219 435 l 1,182,-1
 -7 435 l 1,183,-1
 29 580 l 1,26,-1
EndSplineSet
EndChar

StartChar: dollar
Encoding: 36 36 7
Width: 1139
GlyphClass: 2
Flags: W
LayerCount: 2
Fore
SplineSet
499 1276 m 1,0,1
 447 1270 447 1270 407 1251 c 128,-1,2
 367 1232 367 1232 345 1205 c 1,3,4
 319 1171 319 1171 306.5 1134 c 128,-1,5
 294 1097 294 1097 294 1062 c 0,6,7
 294 1022 294 1022 309 988.5 c 128,-1,8
 324 955 324 955 351.5 929 c 128,-1,9
 379 903 379 903 416.5 884 c 128,-1,10
 454 865 454 865 499 853 c 1,11,-1
 499 1276 l 1,0,1
626 135 m 1,12,13
 692 143 692 143 745 170.5 c 128,-1,14
 798 198 798 198 825 244 c 1,15,-1
 860 379 l 1,16,17
 859 433 859 433 836.5 476 c 128,-1,18
 814 519 814 519 776 548 c 1,19,-1
 777 547 l 1,20,21
 753 561 753 561 713 579.5 c 128,-1,22
 673 598 673 598 626 612 c 1,23,-1
 626 135 l 1,12,13
501 1585 m 1,24,-1
 626 1585 l 1,25,-1
 626 1456 l 1,26,27
 721 1445 721 1445 794.5 1412 c 128,-1,28
 868 1379 868 1379 919.5 1325.5 c 128,-1,29
 971 1272 971 1272 1000 1200.5 c 128,-1,30
 1029 1129 1029 1129 1034 1042 c 1,31,-1
 833 1042 l 1,32,33
 821 1127 821 1127 794 1178 c 1,34,-1
 794 1177 l 1,35,36
 768 1218 768 1218 726.5 1243 c 128,-1,37
 685 1268 685 1268 626 1273 c 1,38,-1
 626 827 l 1,39,40
 736 797 736 797 812.5 766 c 128,-1,41
 889 735 889 735 927 708 c 0,42,43
 994 660 994 660 1029.5 588 c 128,-1,44
 1065 516 1065 516 1065 423 c 0,45,46
 1065 291 1065 291 1019.5 195 c 128,-1,47
 974 99 974 99 892 41 c 1,48,49
 847 13 847 13 777.5 -8.5 c 128,-1,50
 708 -30 708 -30 626 -41 c 1,51,-1
 626 -232 l 1,52,-1
 501 -232 l 1,53,-1
 501 -41 l 1,54,55
 360 -29 360 -29 265 24.5 c 128,-1,56
 170 78 170 78 117 168 c 1,57,58
 91 218 91 218 75.5 290.5 c 128,-1,59
 60 363 60 363 60 457 c 1,60,-1
 260 457 l 1,61,62
 271 314 271 314 303 254 c 1,63,-1
 303 255 l 1,64,65
 330 215 330 215 382.5 184.5 c 128,-1,66
 435 154 435 154 499 140 c 1,67,-1
 499 643 l 1,68,69
 296 687 296 687 191.5 785.5 c 128,-1,70
 87 884 87 884 87 1050 c 0,71,72
 87 1205 87 1205 199 1328 c 0,73,74
 252 1386 252 1386 328 1418 c 128,-1,75
 404 1450 404 1450 501 1455 c 1,76,-1
 501 1585 l 1,24,-1
EndSplineSet
EndChar

StartChar: percent
Encoding: 37 37 8
Width: 1821
GlyphClass: 2
Flags: W
LayerCount: 2
Fore
SplineSet
1571 357 m 0,0,1
 1571 395 1571 395 1558 427.5 c 128,-1,2
 1545 460 1545 460 1516 487 c 1,3,4
 1464 542 1464 542 1385 542 c 0,5,6
 1347 542 1347 542 1314 529 c 128,-1,7
 1281 516 1281 516 1254 487 c 1,8,9
 1199 433 1199 433 1199 357 c 0,10,11
 1199 283 1199 283 1253 224 c 1,12,-1
 1253 225 l 1,13,14
 1310 170 1310 170 1385 170 c 0,15,16
 1461 170 1461 170 1516 225 c 0,17,18
 1571 281 1571 281 1571 357 c 0,0,1
611 1033 m 256,19,20
 611 1109 611 1109 556 1164 c 1,21,22
 504 1219 504 1219 425 1219 c 0,23,24
 351 1219 351 1219 293 1164 c 1,25,26
 239 1109 239 1109 239 1033 c 256,27,28
 239 957 239 957 293 902 c 1,29,30
 350 847 350 847 425 847 c 256,31,32
 500 847 500 847 555 902 c 0,33,34
 611 957 611 957 611 1033 c 256,19,20
1235 1426 m 1,35,-1
 1378 1426 l 1,36,37
 1329 1337 1329 1337 1277.5 1242.5 c 128,-1,38
 1226 1148 1226 1148 1174 1053 c 128,-1,39
 1122 958 1122 958 1071 864.5 c 128,-1,40
 1020 771 1020 771 972 683 c 0,41,42
 955 652 955 652 936.5 618.5 c 128,-1,43
 918 585 918 585 900 551 c 0,44,45
 874 503 874 503 847 454.5 c 128,-1,46
 820 406 820 406 794 358 c 0,47,48
 765 304 765 304 734.5 249 c 128,-1,49
 704 194 704 194 673 137 c 0,50,51
 650 95 650 95 624 48.5 c 128,-1,52
 598 2 598 2 577 -37 c 1,53,-1
 434 -37 l 1,54,-1
 1235 1426 l 1,35,-1
1741 357 m 0,55,56
 1741 207 1741 207 1638 104 c 0,57,58
 1534 0 1534 0 1385 0 c 256,59,60
 1236 0 1236 0 1133 104 c 0,61,62
 1081 156 1081 156 1054.5 218.5 c 128,-1,63
 1028 281 1028 281 1028 357 c 0,64,65
 1028 503 1028 503 1133 608 c 1,66,67
 1235 712 1235 712 1385 712 c 0,68,69
 1534 712 1534 712 1638 608 c 0,70,71
 1741 505 1741 505 1741 357 c 0,55,56
782 1033 m 0,72,73
 782 958 782 958 755.5 895.5 c 128,-1,74
 729 833 729 833 677 781 c 0,75,76
 575 677 575 677 425 677 c 0,77,78
 276 677 276 677 172 781 c 0,79,80
 69 884 69 884 69 1033 c 256,81,82
 69 1182 69 1182 172 1285 c 1,83,84
 274 1390 274 1390 425 1390 c 0,85,86
 574 1390 574 1390 677 1284 c 1,87,-1
 677 1285 l 1,88,89
 782 1180 782 1180 782 1033 c 0,72,73
EndSplineSet
Ligature2: "Ligature Substitution lookup 34 subtable" zero fraction zero
Ligature2: "Ligature Substitution lookup 34 subtable" zero slash zero
EndChar

StartChar: ampersand
Encoding: 38 38 9
Width: 1366
GlyphClass: 2
Flags: W
LayerCount: 2
Fore
SplineSet
758 1148 m 1,0,1
 758 1204 758 1204 721 1247 c 1,2,-1
 721 1246 l 1,3,4
 700 1266 700 1266 675 1277.5 c 128,-1,5
 650 1289 650 1289 618 1289 c 0,6,7
 518 1289 518 1289 481 1224 c 1,8,-1
 481 1225 l 1,9,10
 472 1208 472 1208 466.5 1189 c 128,-1,11
 461 1170 461 1170 461 1150 c 0,12,13
 461 1124 461 1124 469.5 1097.5 c 128,-1,14
 478 1071 478 1071 493 1045 c 0,15,16
 509 1019 509 1019 534 985.5 c 128,-1,17
 559 952 559 952 590 915 c 1,18,19
 632 946 632 946 661.5 970.5 c 128,-1,20
 691 995 691 995 705 1012 c 1,21,-1
 716 987 l 1,22,-1
 758 1148 l 1,0,1
523 673 m 1,23,24
 471 637 471 637 426.5 602 c 128,-1,25
 382 567 382 567 358 545 c 1,26,27
 332 511 332 511 314.5 465 c 128,-1,28
 297 419 297 419 297 374 c 0,29,30
 297 323 297 323 316.5 281.5 c 128,-1,31
 336 240 336 240 373 211 c 1,32,33
 412 183 412 183 455.5 167.5 c 128,-1,34
 499 152 499 152 543 152 c 0,35,36
 592 152 592 152 637 165 c 128,-1,37
 682 178 682 178 721 201 c 1,38,-1
 721 200 l 1,39,40
 751 220 751 220 779.5 246 c 128,-1,41
 808 272 808 272 830 298 c 1,42,-1
 523 673 l 1,23,24
260 1128 m 0,43,44
 260 1275 260 1275 357 1370 c 0,45,46
 456 1466 456 1466 620 1466 c 0,47,48
 778 1466 778 1466 866 1377 c 0,49,50
 910 1332 910 1332 932 1279.5 c 128,-1,51
 954 1227 954 1227 954 1162 c 0,52,53
 954 1093 954 1093 930 1028.5 c 128,-1,54
 906 964 906 964 864 911 c 1,55,56
 839 884 839 884 797.5 849 c 128,-1,57
 756 814 756 814 704 778 c 1,58,59
 766 706 766 706 827 631 c 0,60,61
 843 611 843 611 857 594 c 128,-1,62
 871 577 871 577 885 560 c 0,63,64
 894 550 894 550 900 543.5 c 128,-1,65
 906 537 906 537 911.5 531 c 128,-1,66
 917 525 917 525 923.5 518 c 128,-1,67
 930 511 930 511 939 500 c 1,68,69
 947 526 947 526 954 550.5 c 128,-1,70
 961 575 961 575 965 589 c 0,71,72
 968 597 968 597 973 624 c 128,-1,73
 978 651 978 651 983 686 c 0,74,75
 984 689 984 689 985.5 697 c 128,-1,76
 987 705 987 705 988 708 c 1,77,-1
 1185 708 l 1,78,79
 1174 633 1174 633 1156 557.5 c 128,-1,80
 1138 482 1138 482 1116 422 c 0,81,82
 1105 393 1105 393 1096.5 363 c 128,-1,83
 1088 333 1088 333 1086 310 c 1,84,85
 1098 294 1098 294 1110 279 c 128,-1,86
 1122 264 1122 264 1134 250 c 256,87,88
 1146 236 1146 236 1158 222 c 128,-1,89
 1170 208 1170 208 1181 194 c 0,90,91
 1197 175 1197 175 1211.5 157 c 128,-1,92
 1226 139 1226 139 1242 121 c 0,93,94
 1247 116 1247 116 1252 109.5 c 128,-1,95
 1257 103 1257 103 1262 96 c 0,96,97
 1267 88 1267 88 1273.5 80.5 c 128,-1,98
 1280 73 1280 73 1286 66 c 0,99,100
 1291 60 1291 60 1299 50 c 128,-1,101
 1307 40 1307 40 1315.5 30 c 128,-1,102
 1324 20 1324 20 1331 11.5 c 128,-1,103
 1338 3 1338 3 1340 0 c 1,104,-1
 1072 0 l 1,105,-1
 945 155 l 1,106,107
 905 115 905 115 870.5 86.5 c 128,-1,108
 836 58 836 58 807 39 c 1,109,110
 747 4 747 4 678 -14.5 c 128,-1,111
 609 -33 609 -33 531 -33 c 0,112,113
 297 -33 297 -33 193 92 c 1,114,115
 139 155 139 155 113.5 226 c 128,-1,116
 88 297 88 297 88 375 c 0,117,118
 88 459 88 459 114.5 530.5 c 128,-1,119
 141 602 141 602 190 659 c 1,120,121
 219 690 219 690 273 731.5 c 128,-1,122
 327 773 327 773 402 819 c 1,123,124
 362 868 362 868 333 910.5 c 128,-1,125
 304 953 304 953 291 985 c 0,126,127
 275 1022 275 1022 267.5 1058 c 128,-1,128
 260 1094 260 1094 260 1128 c 0,43,44
EndSplineSet
EndChar

StartChar: quotesingle
Encoding: 39 39 10
Width: 391
GlyphClass: 2
Flags: W
LayerCount: 2
Fore
SplineSet
298 1468 m 1,0,1
 296 1427 296 1427 293 1377.5 c 128,-1,2
 290 1328 290 1328 288 1285 c 0,3,4
 286 1255 286 1255 284.5 1225.5 c 128,-1,5
 283 1196 283 1196 281 1168 c 0,6,7
 280 1161 280 1161 280 1153 c 128,-1,8
 280 1145 280 1145 279 1137 c 0,9,10
 279 1132 279 1132 278.5 1124.5 c 128,-1,11
 278 1117 278 1117 278 1112 c 0,12,13
 277 1084 277 1084 275 1052 c 128,-1,14
 273 1020 273 1020 271 987 c 128,-1,15
 269 954 269 954 267.5 922 c 128,-1,16
 266 890 266 890 264 862 c 1,17,-1
 120 862 l 1,18,19
 118 895 118 895 116 935.5 c 128,-1,20
 114 976 114 976 112 1011 c 0,21,22
 110 1048 110 1048 108 1087 c 128,-1,23
 106 1126 106 1126 104 1161 c 0,24,25
 104 1163 104 1163 103.5 1164.5 c 128,-1,26
 103 1166 103 1166 103 1168 c 2,27,-1
 103 1172 l 1,28,29
 101 1194 101 1194 100.5 1218 c 128,-1,30
 100 1242 100 1242 98 1265 c 1,31,32
 96 1313 96 1313 92.5 1368 c 128,-1,33
 89 1423 89 1423 86 1468 c 1,34,-1
 298 1468 l 1,0,1
EndSplineSet
EndChar

StartChar: parenleft
Encoding: 40 40 11
Width: 820
GlyphClass: 2
Flags: W
LayerCount: 2
Fore
SplineSet
601 1491 m 1,0,1
 513 1322 513 1322 460.5 1205.5 c 128,-1,2
 408 1089 408 1089 385 1026 c 1,3,4
 370 976 370 976 357.5 918 c 128,-1,5
 345 860 345 860 336.5 798.5 c 128,-1,6
 328 737 328 737 323 672.5 c 128,-1,7
 318 608 318 608 318 544 c 0,8,9
 318 406 318 406 337 279.5 c 128,-1,10
 356 153 356 153 393 41 c 1,11,12
 417 -27 417 -27 469.5 -138 c 128,-1,13
 522 -249 522 -249 604 -403 c 1,14,-1
 429 -403 l 1,15,16
 358 -293 358 -293 310.5 -216.5 c 128,-1,17
 263 -140 263 -140 246 -109 c 0,18,19
 213 -49 213 -49 172 59 c 0,20,21
 116 206 116 206 94 369 c 0,22,23
 89 411 89 411 86 451.5 c 128,-1,24
 83 492 83 492 83 533 c 0,25,26
 83 677 83 677 107 806.5 c 128,-1,27
 131 936 131 936 176 1051 c 1,28,29
 207 1124 207 1124 267.5 1234.5 c 128,-1,30
 328 1345 328 1345 422 1491 c 1,31,-1
 601 1491 l 1,0,1
EndSplineSet
Substitution2: "<17013,16013> Islamic Ornamental lookup 65 subtable" uniFD3E
Substitution2: "'salt' Stylistic Alternatives in Arabic lookup 25 subtable" uniFD3E
EndChar

StartChar: parenright
Encoding: 41 41 12
Width: 820
GlyphClass: 2
Flags: W
LayerCount: 2
Fore
SplineSet
70 -403 m 1,0,1
 246 -65 246 -65 286 66 c 1,2,3
 320 169 320 169 336 287.5 c 128,-1,4
 352 406 352 406 352 544 c 0,5,6
 352 679 352 679 332 807.5 c 128,-1,7
 312 936 312 936 277 1047 c 1,8,9
 254 1114 254 1114 201 1226.5 c 128,-1,10
 148 1339 148 1339 66 1491 c 1,11,-1
 241 1491 l 1,12,13
 316 1371 316 1371 364.5 1291.5 c 128,-1,14
 413 1212 413 1212 429 1184 c 0,15,16
 436 1172 436 1172 445 1154 c 128,-1,17
 454 1136 454 1136 463 1115 c 128,-1,18
 472 1094 472 1094 481 1072 c 128,-1,19
 490 1050 490 1050 498 1030 c 0,20,21
 545 907 545 907 566 786 c 128,-1,22
 587 665 587 665 587 554 c 0,23,24
 587 410 587 410 563 280 c 128,-1,25
 539 150 539 150 493 36 c 0,26,27
 463 -36 463 -36 402 -146.5 c 128,-1,28
 341 -257 341 -257 247 -403 c 1,29,-1
 70 -403 l 1,0,1
EndSplineSet
Substitution2: "<17013,16013> Islamic Ornamental lookup 65 subtable" uniFD3F
Substitution2: "'salt' Stylistic Alternatives in Arabic lookup 25 subtable" uniFD3F
EndChar

StartChar: asterisk
Encoding: 42 42 13
Width: 814
GlyphClass: 2
Flags: W
LayerCount: 2
Fore
SplineSet
428 1468 m 1,0,-1
 428 1256 l 1,1,2
 459 1266 459 1266 492 1277.5 c 128,-1,3
 525 1289 525 1289 557 1301 c 0,4,5
 574 1307 574 1307 597.5 1315 c 128,-1,6
 621 1323 621 1323 636 1328 c 1,7,8
 641 1314 641 1314 649.5 1290 c 128,-1,9
 658 1266 658 1266 663 1252 c 0,10,11
 664 1250 664 1250 665 1245.5 c 128,-1,12
 666 1241 666 1241 667 1239 c 0,13,14
 669 1236 669 1236 670.5 1230 c 128,-1,15
 672 1224 672 1224 674 1219 c 256,16,17
 676 1214 676 1214 679.5 1203 c 128,-1,18
 683 1192 683 1192 684 1189 c 1,19,-1
 475 1123 l 1,20,21
 478 1119 478 1119 481 1116 c 128,-1,22
 484 1113 484 1113 487 1108 c 0,23,24
 491 1103 491 1103 495 1097.5 c 128,-1,25
 499 1092 499 1092 503 1086 c 1,26,-1
 502 1087 l 1,27,-1
 520 1064 l 1,28,29
 526 1053 526 1053 533 1045 c 1,30,-1
 532 1045 l 1,31,32
 537 1040 537 1040 541 1033.5 c 128,-1,33
 545 1027 545 1027 550 1022 c 1,34,35
 555 1014 555 1014 559.5 1008.5 c 128,-1,36
 564 1003 564 1003 567 998 c 0,37,38
 569 994 569 994 576 985.5 c 128,-1,39
 583 977 583 977 588 969 c 0,40,41
 592 964 592 964 598.5 955.5 c 128,-1,42
 605 947 605 947 607 944 c 1,43,44
 604 942 604 942 593 934.5 c 128,-1,45
 582 927 582 927 577 923 c 0,46,47
 572 920 572 920 569.5 917.5 c 128,-1,48
 567 915 567 915 563 912 c 0,49,50
 561 910 561 910 556 907 c 128,-1,51
 551 904 551 904 549 902 c 1,52,-1
 550 902 l 1,53,54
 547 900 547 900 544.5 898 c 128,-1,55
 542 896 542 896 540 894 c 1,56,57
 535 892 535 892 529 887 c 2,58,-1
 518 880 l 2,59,60
 517 879 517 879 512 876 c 128,-1,61
 507 873 507 873 502 869 c 1,62,-1
 504 870 l 2,63,64
 502 868 502 868 496 865 c 128,-1,65
 490 862 490 862 482 858 c 1,66,-1
 359 1039 l 1,67,68
 358 1038 358 1038 357.5 1037 c 128,-1,69
 357 1036 357 1036 356 1035 c 0,70,71
 350 1028 350 1028 344.5 1020 c 128,-1,72
 339 1012 339 1012 333 1004 c 1,73,-1
 334 1005 l 1,74,75
 314 974 314 974 290 939.5 c 128,-1,76
 266 905 266 905 246 876 c 0,77,78
 243 873 243 873 242 871 c 1,79,80
 308 805 308 805 334.5 776.5 c 128,-1,81
 361 748 361 748 359.5 746.5 c 128,-1,82
 358 745 358 745 336 763 c 128,-1,83
 314 781 314 781 282.5 807.5 c 128,-1,84
 251 834 251 834 216.5 862.5 c 128,-1,85
 182 891 182 891 157 909 c 1,86,-1
 158 909 l 1,87,88
 156 911 156 911 153.5 912.5 c 128,-1,89
 151 914 151 914 148 916 c 0,90,91
 144 919 144 919 141 921 c 0,92,93
 139 923 139 923 138.5 923 c 128,-1,94
 138 923 138 923 137 924 c 0,95,96
 134 926 134 926 124 933 c 128,-1,97
 114 940 114 940 107 945 c 1,98,-1
 239 1123 l 1,99,100
 234 1125 234 1125 227 1127 c 128,-1,101
 220 1129 220 1129 213 1131 c 2,102,-1
 148 1153 l 1,103,-1
 149 1153 l 1,104,-1
 82 1173 l 2,105,106
 71 1176 71 1176 54 1182 c 128,-1,107
 37 1188 37 1188 29 1191 c 1,108,109
 31 1196 31 1196 33.5 1204.5 c 128,-1,110
 36 1213 36 1213 39 1218 c 0,111,112
 41 1222 41 1222 42 1225.5 c 128,-1,113
 43 1229 43 1229 44 1230 c 0,114,115
 46 1238 46 1238 49 1248 c 128,-1,116
 52 1258 52 1258 55 1266 c 0,117,118
 57 1270 57 1270 59 1276 c 2,119,-1
 70 1309 l 1,120,-1
 76 1329 l 1,121,-1
 284 1254 l 1,122,-1
 284 1468 l 1,123,-1
 428 1468 l 1,0,-1
EndSplineSet
Substitution2: "<17013,16013> Islamic Ornamental lookup 65 subtable" asterisk
EndChar

StartChar: plus
Encoding: 43 43 14
Width: 1196
GlyphClass: 2
Flags: W
LayerCount: 2
Fore
SplineSet
72 428 m 1,0,-1
 72 624 l 1,1,-1
 498 624 l 1,2,-1
 498 1054 l 1,3,-1
 697 1054 l 1,4,-1
 697 624 l 1,5,-1
 1123 624 l 1,6,-1
 1123 428 l 1,7,-1
 697 428 l 1,8,-1
 697 0 l 1,9,-1
 498 0 l 1,10,-1
 498 428 l 1,11,-1
 72 428 l 1,0,-1
EndSplineSet
Substitution2: "<17013,16013> Islamic Ornamental lookup 65 subtable" plus
EndChar

StartChar: comma
Encoding: 44 44 15
Width: 569
GlyphClass: 2
Flags: W
LayerCount: 2
Fore
SplineSet
158 -176 m 1,0,1
 193 -168 193 -168 217.5 -146 c 128,-1,2
 242 -124 242 -124 253 -89 c 0,3,4
 259 -69 259 -69 262.5 -49 c 128,-1,5
 266 -29 266 -29 266 -9 c 0,6,7
 266 -4 266 -4 267 -5.5 c 128,-1,8
 268 -7 268 -7 266 0 c 1,9,-1
 158 0 l 1,10,-1
 158 245 l 1,11,-1
 396 245 l 1,12,-1
 396 31 l 2,13,14
 396 -90 396 -90 349 -180 c 1,15,16
 299 -273 299 -273 158 -303 c 1,17,-1
 158 -176 l 1,0,1
EndSplineSet
Substitution2: "<17013,16013> Islamic Ornamental lookup 65 subtable" comma
EndChar

StartChar: hyphen
Encoding: 45 45 16
AltUni2: 0000ad.ffffffff.0 002212.ffffffff.0
Width: 682
GlyphClass: 2
Flags: W
LayerCount: 2
Fore
SplineSet
75 680 m 1,0,-1
 597 680 l 1,1,-1
 597 467 l 1,2,-1
 75 467 l 1,3,-1
 75 680 l 1,0,-1
EndSplineSet
Substitution2: "<17013,16013> Islamic Ornamental lookup 65 subtable" hyphen
Substitution2: "<17007,16007>  in Arabic lookup 57 nested-substitutions 0 subtable" hyphentwo
Substitution2: "<17006,16006>  in Arabic lookup 55 nested-substitutions 0 subtable" hyphentwo
Substitution2: "Single Substitution lookup 26 subtable" hyphentwo
EndChar

StartChar: period
Encoding: 46 46 17
Width: 679
GlyphClass: 2
Flags: W
LayerCount: 2
Fore
SplineSet
180 209 m 0,0,1
 180 238 180 238 190 261.5 c 128,-1,2
 200 285 200 285 219 305 c 1,3,4
 239 324 239 324 262.5 334 c 128,-1,5
 286 344 286 344 315 344 c 0,6,7
 372 344 372 344 411 305 c 1,8,9
 429 285 429 285 439 261.5 c 128,-1,10
 449 238 449 238 449 209 c 0,11,12
 449 182 449 182 438.5 157.5 c 128,-1,13
 428 133 428 133 411 113 c 1,14,15
 392 94 392 94 368 83.5 c 128,-1,16
 344 73 344 73 315 73 c 0,17,18
 259 73 259 73 219 113 c 1,19,20
 180 155 180 155 180 209 c 0,0,1
EndSplineSet
Substitution2: "<17013,16013> Islamic Ornamental lookup 65 subtable" period
Substitution2: "<17010,16010> Urdu Swash lookup 62 subtable" uni06D4
Substitution2: "<8,16008> Period to Comma in Arabic lookup 59 nested-substitutions 0 subtable" uni066B
Substitution2: "Single Substitution lookup 26 subtable" uni066B
Substitution2: "'swsh' Swash in Arabic lookup 23 subtable" uni06D4
EndChar

StartChar: slash
Encoding: 47 47 18
Width: 569
GlyphClass: 2
Flags: W
LayerCount: 2
Fore
SplineSet
451 1468 m 1,0,-1
 634 1468 l 1,1,2
 629 1455 629 1455 626 1447 c 128,-1,3
 623 1439 623 1439 621 1433.5 c 128,-1,4
 619 1428 619 1428 618 1425 c 128,-1,5
 617 1422 617 1422 616 1418 c 1,6,-1
 616 1419 l 1,7,8
 614 1414 614 1414 613 1411 c 128,-1,9
 612 1408 612 1408 612 1405 c 0,10,11
 608 1393 608 1393 604 1379 c 128,-1,12
 600 1365 600 1365 596 1354 c 0,13,14
 545 1196 545 1196 496.5 1040 c 128,-1,15
 448 884 448 884 397 727 c 1,16,17
 359 606 359 606 319 480.5 c 128,-1,18
 279 355 279 355 241 234 c 0,19,20
 227 188 227 188 212.5 143 c 128,-1,21
 198 98 198 98 184 52 c 0,22,23
 181 44 181 44 175 26.5 c 128,-1,24
 169 9 169 9 166 0 c 1,25,-1
 -14 0 l 1,26,-1
 451 1468 l 1,0,-1
EndSplineSet
Substitution2: "<17013,16013> Islamic Ornamental lookup 65 subtable" slash
Substitution2: "<17010,16010> Urdu Swash lookup 62 subtable" slash
EndChar

StartChar: zero
Encoding: 48 48 19
Width: 1139
GlyphClass: 2
Flags: W
LayerCount: 2
Fore
SplineSet
836 711 m 0,0,1
 836 827 836 827 821 925 c 128,-1,2
 806 1023 806 1023 779 1098 c 1,3,4
 750 1163 750 1163 695.5 1202.5 c 128,-1,5
 641 1242 641 1242 565 1242 c 0,6,7
 417 1242 417 1242 349 1099.5 c 128,-1,8
 281 957 281 957 281 681 c 0,9,10
 281 576 281 576 293 490.5 c 128,-1,11
 305 405 305 405 326 342 c 1,12,13
 359 251 359 251 416.5 202 c 128,-1,14
 474 153 474 153 552 153 c 0,15,16
 615 153 615 153 667 183.5 c 128,-1,17
 719 214 719 214 757 268 c 1,18,-1
 756 266 l 1,19,20
 791 329 791 329 813.5 443.5 c 128,-1,21
 836 558 836 558 836 711 c 0,0,1
961 1199 m 0,22,23
 1009 1109 1009 1109 1033 990 c 128,-1,24
 1057 871 1057 871 1057 718 c 0,25,26
 1057 573 1057 573 1035 452.5 c 128,-1,27
 1013 332 1013 332 970 240 c 0,28,29
 905 103 905 103 801.5 32.5 c 128,-1,30
 698 -38 698 -38 553 -38 c 0,31,32
 422 -38 422 -38 324.5 20 c 128,-1,33
 227 78 227 78 164 190 c 1,34,35
 113 284 113 284 86 409 c 128,-1,36
 59 534 59 534 59 688 c 0,37,38
 59 806 59 806 75.5 911.5 c 128,-1,39
 92 1017 92 1017 122 1102 c 1,40,41
 182 1264 182 1264 290 1348 c 128,-1,42
 398 1432 398 1432 554 1432 c 0,43,44
 834 1432 834 1432 961 1199 c 0,22,23
EndSplineSet
Substitution2: "<17013,16013> Islamic Ornamental lookup 65 subtable" zero
Substitution2: "<17010,16010> Urdu Swash lookup 62 subtable" zero
EndChar

StartChar: one
Encoding: 49 49 20
Width: 1139
GlyphClass: 2
Flags: W
LayerCount: 2
Fore
SplineSet
186 992 m 1,0,-1
 186 1157 l 1,1,2
 286 1168 286 1168 355.5 1183 c 128,-1,3
 425 1198 425 1198 461 1218 c 1,4,-1
 460 1218 l 1,5,6
 493 1238 493 1238 520.5 1288.5 c 128,-1,7
 548 1339 548 1339 568 1426 c 1,8,-1
 735 1426 l 1,9,-1
 735 0 l 1,10,-1
 516 0 l 1,11,-1
 516 992 l 1,12,-1
 186 992 l 1,0,-1
EndSplineSet
Substitution2: "<17013,16013> Islamic Ornamental lookup 65 subtable" one
Substitution2: "<17010,16010> Urdu Swash lookup 62 subtable" one
EndChar

StartChar: two
Encoding: 50 50 21
Width: 1139
GlyphClass: 2
Flags: W
LayerCount: 2
Fore
SplineSet
584 695 m 1,0,-1
 583 695 l 1,1,2
 641 730 641 730 686.5 762.5 c 128,-1,3
 732 795 732 795 757 820 c 0,4,5
 795 858 795 858 814 902 c 128,-1,6
 833 946 833 946 833 994 c 0,7,8
 833 1110 833 1110 765 1175 c 1,9,10
 696 1244 696 1244 580 1244 c 0,11,12
 493 1244 493 1244 433.5 1211.5 c 128,-1,13
 374 1179 374 1179 343 1117 c 0,14,15
 326 1084 326 1084 315.5 1031 c 128,-1,16
 305 978 305 978 302 904 c 1,17,-1
 94 904 l 1,18,19
 96 1005 96 1005 115 1087.5 c 128,-1,20
 134 1170 134 1170 163 1226 c 1,21,22
 223 1327 223 1327 328.5 1382 c 128,-1,23
 434 1437 434 1437 581 1437 c 0,24,25
 702 1437 702 1437 794 1402 c 128,-1,26
 886 1367 886 1367 943 1303 c 1,27,28
 999 1236 999 1236 1029 1160.5 c 128,-1,29
 1059 1085 1059 1085 1059 1002 c 0,30,31
 1059 916 1059 916 1026.5 840.5 c 128,-1,32
 994 765 994 765 936 703 c 0,33,34
 902 668 902 668 839 625.5 c 128,-1,35
 776 583 776 583 686 532 c 2,36,-1
 654 514 l 2,37,38
 645 509 645 509 633.5 503 c 128,-1,39
 622 497 622 497 613 492 c 0,40,41
 609 490 609 490 608 489 c 2,42,-1
 594 481 l 1,43,44
 580 471 580 471 569.5 465.5 c 128,-1,45
 559 460 559 460 551 457 c 1,46,-1
 552 458 l 1,47,48
 510 435 510 435 470.5 408.5 c 128,-1,49
 431 382 431 382 405 359 c 0,50,51
 366 324 366 324 336 284 c 128,-1,52
 306 244 306 244 292 198 c 1,53,-1
 1052 198 l 1,54,-1
 1052 0 l 1,55,-1
 58 0 l 1,56,57
 66 101 66 101 85 186.5 c 128,-1,58
 104 272 104 272 135 337 c 0,59,60
 168 405 168 405 234.5 468.5 c 128,-1,61
 301 532 301 532 396 588 c 1,62,-1
 584 695 l 1,0,-1
EndSplineSet
Substitution2: "<17013,16013> Islamic Ornamental lookup 65 subtable" two
Substitution2: "<17010,16010> Urdu Swash lookup 62 subtable" two
EndChar

StartChar: three
Encoding: 51 51 22
Width: 1139
GlyphClass: 2
Flags: W
LayerCount: 2
Fore
SplineSet
257 461 m 1,0,1
 272 317 272 317 308 258 c 0,2,3
 340 207 340 207 398.5 180 c 128,-1,4
 457 153 457 153 542 153 c 0,5,6
 675 153 675 153 755 224 c 0,7,8
 795 259 795 259 814.5 304 c 128,-1,9
 834 349 834 349 834 403 c 0,10,11
 834 472 834 472 813 519.5 c 128,-1,12
 792 567 792 567 752 594 c 1,13,-1
 752 593 l 1,14,15
 708 619 708 619 648 633.5 c 128,-1,16
 588 648 588 648 515 648 c 0,17,18
 507 648 507 648 495.5 648 c 128,-1,19
 484 648 484 648 471.5 647.5 c 128,-1,20
 459 647 459 647 447.5 646.5 c 128,-1,21
 436 646 436 646 428 646 c 1,22,-1
 428 836 l 1,23,24
 466 831 466 831 487.5 830 c 128,-1,25
 509 829 509 829 528 829 c 0,26,27
 574 829 574 829 614 837 c 128,-1,28
 654 845 654 845 684 859 c 1,29,-1
 683 858 l 1,30,31
 731 884 731 884 759 930.5 c 128,-1,32
 787 977 787 977 787 1040 c 0,33,34
 787 1137 787 1137 718 1188 c 1,35,36
 651 1242 651 1242 555 1242 c 0,37,38
 474 1242 474 1242 415.5 1213.5 c 128,-1,39
 357 1185 357 1185 324 1132 c 1,40,-1
 324 1133 l 1,41,42
 308 1105 308 1105 297 1058 c 128,-1,43
 286 1011 286 1011 284 942 c 1,44,-1
 80 942 l 1,45,46
 81 1032 81 1032 97.5 1104 c 128,-1,47
 114 1176 114 1176 144 1230 c 1,48,49
 201 1327 201 1327 300 1380.5 c 128,-1,50
 399 1434 399 1434 536 1434 c 0,51,52
 759 1434 759 1434 880 1335.5 c 128,-1,53
 1001 1237 1001 1237 1001 1047 c 0,54,55
 1001 913 1001 913 927 827 c 0,56,57
 912 810 912 810 890 793 c 128,-1,58
 868 776 868 776 839 760 c 1,59,60
 941 715 941 715 997.5 630 c 128,-1,61
 1054 545 1054 545 1054 430 c 0,62,63
 1054 330 1054 330 1018 243.5 c 128,-1,64
 982 157 982 157 918 93 c 1,65,66
 850 30 850 30 752.5 -4 c 128,-1,67
 655 -38 655 -38 532 -38 c 0,68,69
 276 -38 276 -38 159 104 c 0,70,71
 104 172 104 172 75.5 262 c 128,-1,72
 47 352 47 352 45 461 c 1,73,-1
 257 461 l 1,0,1
EndSplineSet
Substitution2: "<17013,16013> Islamic Ornamental lookup 65 subtable" three
Substitution2: "<17010,16010> Urdu Swash lookup 62 subtable" three
EndChar

StartChar: four
Encoding: 52 52 23
Width: 1139
GlyphClass: 2
Flags: W
LayerCount: 2
Fore
SplineSet
659 527 m 1,0,-1
 659 1097 l 1,1,2
 617 1038 617 1038 572 974.5 c 128,-1,3
 527 911 527 911 487 853 c 0,4,5
 457 811 457 811 428.5 771 c 128,-1,6
 400 731 400 731 372 691.5 c 128,-1,7
 344 652 344 652 315.5 611.5 c 128,-1,8
 287 571 287 571 255 527 c 1,9,-1
 659 527 l 1,0,-1
662 0 m 1,10,-1
 662 343 l 1,11,-1
 48 343 l 1,12,-1
 48 536 l 1,13,14
 67 563 67 563 88 592 c 128,-1,15
 109 621 109 621 129 649 c 0,16,17
 149 678 149 678 168.5 705 c 128,-1,18
 188 732 188 732 207 758 c 0,19,20
 224 781 224 781 240 803 c 128,-1,21
 256 825 256 825 272 848 c 0,22,23
 308 899 308 899 344.5 949.5 c 128,-1,24
 381 1000 381 1000 416 1048 c 0,25,26
 423 1057 423 1057 429 1066 c 128,-1,27
 435 1075 435 1075 442 1083 c 1,28,29
 454 1101 454 1101 466.5 1118 c 128,-1,30
 479 1135 479 1135 492 1154 c 0,31,32
 509 1178 509 1178 529 1205 c 128,-1,33
 549 1232 549 1232 568 1258 c 0,34,35
 600 1302 600 1302 633.5 1348.5 c 128,-1,36
 667 1395 667 1395 696 1436 c 1,37,-1
 870 1436 l 1,38,-1
 870 527 l 1,39,-1
 1075 527 l 1,40,-1
 1075 343 l 1,41,-1
 870 343 l 1,42,-1
 870 0 l 1,43,-1
 662 0 l 1,10,-1
EndSplineSet
Substitution2: "<17013,16013> Islamic Ornamental lookup 65 subtable" four
Substitution2: "<17010,16010> Urdu Swash lookup 62 subtable" four
EndChar

StartChar: five
Encoding: 53 53 24
Width: 1139
GlyphClass: 2
Flags: W
LayerCount: 2
Fore
SplineSet
273 389 m 1,0,1
 296 230 296 230 405 179 c 0,2,3
 436 165 436 165 470.5 157.5 c 128,-1,4
 505 150 505 150 544 150 c 0,5,6
 618 150 618 150 673.5 173.5 c 128,-1,7
 729 197 729 197 764 245 c 1,8,9
 836 340 836 340 836 455 c 0,10,11
 836 525 836 525 814.5 579 c 128,-1,12
 793 633 793 633 751 671 c 1,13,14
 709 707 709 707 657.5 727 c 128,-1,15
 606 747 606 747 547 747 c 0,16,17
 462 747 462 747 398.5 711.5 c 128,-1,18
 335 676 335 676 287 613 c 1,19,20
 283 613 283 613 274 613.5 c 128,-1,21
 265 614 265 614 260 614 c 0,22,23
 254 615 254 615 249 615 c 128,-1,24
 244 615 244 615 239 616 c 0,25,26
 234 616 234 616 230 616.5 c 128,-1,27
 226 617 226 617 221 617 c 0,28,29
 215 618 215 618 209.5 618 c 128,-1,30
 204 618 204 618 199 619 c 1,31,32
 193 619 193 619 184 619.5 c 128,-1,33
 175 620 175 620 169 621 c 0,34,35
 165 621 165 621 159.5 621.5 c 128,-1,36
 154 622 154 622 149 622 c 0,37,38
 142 623 142 623 127.5 624.5 c 128,-1,39
 113 626 113 626 110 627 c 1,40,41
 112 643 112 643 116 666.5 c 128,-1,42
 120 690 120 690 122 707 c 0,43,44
 133 786 133 786 144 865 c 128,-1,45
 155 944 155 944 165 1020 c 0,46,47
 169 1047 169 1047 173 1074 c 128,-1,48
 177 1101 177 1101 181 1128 c 0,49,50
 186 1160 186 1160 190 1190.5 c 128,-1,51
 194 1221 194 1221 199 1253 c 1,52,-1
 199 1252 l 1,53,54
 200 1261 200 1261 200 1270 c 128,-1,55
 200 1279 200 1279 202 1286 c 0,56,57
 206 1313 206 1313 211 1348 c 128,-1,58
 216 1383 216 1383 220 1409 c 1,59,-1
 977 1409 l 1,60,-1
 977 1207 l 1,61,-1
 381 1207 l 1,62,63
 381 1205 381 1205 380 1202.5 c 128,-1,64
 379 1200 379 1200 379 1198 c 0,65,66
 372 1154 372 1154 365 1109 c 128,-1,67
 358 1064 358 1064 350 1019 c 0,68,69
 346 992 346 992 343 974.5 c 128,-1,70
 340 957 340 957 338 941.5 c 128,-1,71
 336 926 336 926 333.5 909.5 c 128,-1,72
 331 893 331 893 327 867 c 1,73,74
 346 880 346 880 362.5 888 c 128,-1,75
 379 896 379 896 393 904 c 1,76,77
 474 937 474 937 581 937 c 0,78,79
 781 937 781 937 918 809 c 0,80,81
 1057 679 1057 679 1057 482 c 0,82,83
 1057 382 1057 382 1024 290.5 c 128,-1,84
 991 199 991 199 930 122 c 1,85,86
 867 46 867 46 766 5.5 c 128,-1,87
 665 -35 665 -35 527 -35 c 0,88,89
 438 -35 438 -35 359.5 -9.5 c 128,-1,90
 281 16 281 16 213 64 c 1,91,92
 152 112 152 112 112 196 c 128,-1,93
 72 280 72 280 59 389 c 1,94,-1
 273 389 l 1,0,1
EndSplineSet
Substitution2: "<17013,16013> Islamic Ornamental lookup 65 subtable" five
Substitution2: "<17010,16010> Urdu Swash lookup 62 subtable" five
EndChar

StartChar: six
Encoding: 54 54 25
Width: 1139
GlyphClass: 2
Flags: W
LayerCount: 2
Fore
SplineSet
847 450 m 0,0,1
 847 501 847 501 832.5 549.5 c 128,-1,2
 818 598 818 598 787 645 c 1,3,4
 730 737 730 737 577 737 c 0,5,6
 525 737 525 737 477 718 c 128,-1,7
 429 699 429 699 388 666 c 1,8,-1
 388 667 l 1,9,10
 307 592 307 592 307 450 c 0,11,12
 307 388 307 388 326 335 c 128,-1,13
 345 282 345 282 381 238 c 1,14,15
 419 196 419 196 471 173.5 c 128,-1,16
 523 151 523 151 586 151 c 0,17,18
 651 151 651 151 699.5 173.5 c 128,-1,19
 748 196 748 196 781 239 c 1,20,21
 813 283 813 283 830 336.5 c 128,-1,22
 847 390 847 390 847 450 c 0,0,1
831 1034 m 1,23,24
 821 1085 821 1085 808.5 1117 c 128,-1,25
 796 1149 796 1149 782 1170 c 1,26,27
 722 1252 722 1252 601 1252 c 0,28,29
 472 1252 472 1252 391 1133 c 128,-1,30
 310 1014 310 1014 289 788 c 1,31,32
 349 857 349 857 416 888 c 1,33,34
 501 929 501 929 610 929 c 0,35,36
 701 929 701 929 781 899 c 128,-1,37
 861 869 861 869 928 812 c 1,38,39
 991 753 991 753 1027.5 664.5 c 128,-1,40
 1064 576 1064 576 1064 464 c 0,41,42
 1064 368 1064 368 1031 280 c 128,-1,43
 998 192 998 192 936 117 c 1,44,45
 872 42 872 42 780.5 3 c 128,-1,46
 689 -36 689 -36 570 -36 c 0,47,48
 470 -36 470 -36 380.5 4.5 c 128,-1,49
 291 45 291 45 218 118 c 1,50,51
 149 195 149 195 110.5 324 c 128,-1,52
 72 453 72 453 72 631 c 0,53,54
 72 761 72 761 89 873.5 c 128,-1,55
 106 986 106 986 137 1078 c 1,56,57
 200 1255 200 1255 315.5 1346.5 c 128,-1,58
 431 1438 431 1438 598 1438 c 0,59,60
 718 1438 718 1438 803.5 1404.5 c 128,-1,61
 889 1371 889 1371 937 1310 c 1,62,63
 982 1249 982 1249 1007 1179 c 128,-1,64
 1032 1109 1032 1109 1034 1034 c 1,65,-1
 831 1034 l 1,23,24
EndSplineSet
Substitution2: "<17013,16013> Islamic Ornamental lookup 65 subtable" six
Substitution2: "<17010,16010> Urdu Swash lookup 62 subtable" six
EndChar

StartChar: seven
Encoding: 55 55 26
Width: 1139
GlyphClass: 2
Flags: W
LayerCount: 2
Fore
SplineSet
1075 1409 m 1,0,-1
 1075 1234 l 1,1,2
 1040 1199 1040 1199 993 1138.5 c 128,-1,3
 946 1078 946 1078 893 1002 c 1,4,-1
 893 1003 l 1,5,6
 840 925 840 925 789.5 834 c 128,-1,7
 739 743 739 743 695 654 c 1,8,-1
 696 655 l 1,9,10
 656 565 656 565 622.5 479 c 128,-1,11
 589 393 589 393 568 324 c 1,12,13
 554 273 554 273 534.5 189.5 c 128,-1,14
 515 106 515 106 493 0 c 1,15,-1
 266 0 l 1,16,17
 284 101 284 101 314 208 c 128,-1,18
 344 315 344 315 383 421 c 128,-1,19
 422 527 422 527 468.5 629.5 c 128,-1,20
 515 732 515 732 565 823 c 1,21,22
 622 920 622 920 689 1017.5 c 128,-1,23
 756 1115 756 1115 826 1200 c 1,24,-1
 71 1200 l 1,25,-1
 71 1409 l 1,26,-1
 1075 1409 l 1,0,-1
EndSplineSet
Substitution2: "<17013,16013> Islamic Ornamental lookup 65 subtable" seven
Substitution2: "<17010,16010> Urdu Swash lookup 62 subtable" seven
EndChar

StartChar: eight
Encoding: 56 56 27
Width: 1139
GlyphClass: 2
Flags: W
LayerCount: 2
Fore
SplineSet
789 1050 m 0,0,1
 789 1085 789 1085 774 1118.5 c 128,-1,2
 759 1152 759 1152 730 1182 c 0,3,4
 669 1243 669 1243 551 1243 c 0,5,6
 494 1243 494 1243 449 1226.5 c 128,-1,7
 404 1210 404 1210 378 1182 c 1,8,9
 326 1121 326 1121 326 1040 c 0,10,11
 326 996 326 996 343 960 c 128,-1,12
 360 924 360 924 392 898 c 1,13,14
 427 872 427 872 468.5 858 c 128,-1,15
 510 844 510 844 557 844 c 0,16,17
 664 844 664 844 727 904 c 1,18,19
 789 966 789 966 789 1050 c 0,0,1
836 399 m 0,20,21
 836 457 836 457 814.5 508 c 128,-1,22
 793 559 793 559 759 594 c 1,23,24
 720 623 720 623 666 642 c 128,-1,25
 612 661 612 661 555 661 c 0,26,27
 497 661 497 661 447 642.5 c 128,-1,28
 397 624 397 624 359 592 c 1,29,30
 285 524 285 524 285 404 c 0,31,32
 285 354 285 354 303 308 c 128,-1,33
 321 262 321 262 353 226 c 1,34,35
 388 192 388 192 443.5 171.5 c 128,-1,36
 499 151 499 151 568 151 c 0,37,38
 625 151 625 151 674 167.5 c 128,-1,39
 723 184 723 184 761 214 c 1,40,-1
 760 214 l 1,41,42
 798 245 798 245 817 292 c 128,-1,43
 836 339 836 339 836 399 c 0,20,21
192 824 m 1,44,45
 110 907 110 907 110 1039 c 0,46,47
 110 1122 110 1122 140 1191 c 128,-1,48
 170 1260 170 1260 227 1319 c 1,49,50
 343 1436 343 1436 561 1436 c 0,51,52
 663 1436 663 1436 746 1407.5 c 128,-1,53
 829 1379 829 1379 888 1325 c 1,54,55
 945 1271 945 1271 976 1206 c 128,-1,56
 1007 1141 1007 1141 1007 1066 c 0,57,58
 1007 1000 1007 1000 988 943 c 128,-1,59
 969 886 969 886 937 844 c 1,60,61
 921 826 921 826 897.5 805 c 128,-1,62
 874 784 874 784 841 764 c 1,63,64
 880 744 880 744 908.5 723.5 c 128,-1,65
 937 703 937 703 958 683 c 1,66,67
 1006 631 1006 631 1030.5 565.5 c 128,-1,68
 1055 500 1055 500 1055 417 c 0,69,70
 1055 324 1055 324 1022 242 c 128,-1,71
 989 160 989 160 926 93 c 1,72,73
 862 28 862 28 771.5 -6 c 128,-1,74
 681 -40 681 -40 564 -40 c 0,75,76
 461 -40 461 -40 371.5 -10 c 128,-1,77
 282 20 282 20 207 74 c 1,78,79
 138 133 138 133 99.5 217.5 c 128,-1,80
 61 302 61 302 61 408 c 0,81,82
 61 524 61 524 116 614.5 c 128,-1,83
 171 705 171 705 281 762 c 1,84,85
 220 794 220 794 192 825 c 1,86,-1
 192 824 l 1,44,45
EndSplineSet
Substitution2: "<17013,16013> Islamic Ornamental lookup 65 subtable" eight
Substitution2: "<17010,16010> Urdu Swash lookup 62 subtable" eight
EndChar

StartChar: nine
Encoding: 57 57 28
Width: 1139
GlyphClass: 2
Flags: W
LayerCount: 2
Fore
SplineSet
808 952 m 0,0,1
 808 1099 808 1099 734 1170 c 1,2,3
 661 1242 661 1242 547 1242 c 0,4,5
 491 1242 491 1242 440 1219.5 c 128,-1,6
 389 1197 389 1197 353 1162 c 1,7,8
 321 1120 321 1120 301.5 1063 c 128,-1,9
 282 1006 282 1006 282 940 c 0,10,11
 282 879 282 879 300 825 c 128,-1,12
 318 771 318 771 344 733 c 1,13,14
 377 701 377 701 429.5 679 c 128,-1,15
 482 657 482 657 545 657 c 0,16,17
 645 657 645 657 726 723 c 1,18,19
 808 786 808 786 808 952 c 0,0,1
292 370 m 1,20,21
 298 298 298 298 327.5 245 c 128,-1,22
 357 192 357 192 398 167 c 1,23,-1
 397 167 l 1,24,25
 423 153 423 153 452 145.5 c 128,-1,26
 481 138 481 138 512 138 c 0,27,28
 630 138 630 138 717 239 c 1,29,-1
 716 239 l 1,30,31
 754 285 754 285 782 376 c 128,-1,32
 810 467 810 467 829 598 c 1,33,34
 799 568 799 568 763 544 c 128,-1,35
 727 520 727 520 687 504 c 128,-1,36
 647 488 647 488 605.5 479.5 c 128,-1,37
 564 471 564 471 522 471 c 0,38,39
 418 471 418 471 334 504.5 c 128,-1,40
 250 538 250 538 190 602 c 1,41,42
 131 668 131 668 99.5 753 c 128,-1,43
 68 838 68 838 68 938 c 0,44,45
 68 1035 68 1035 99.5 1122 c 128,-1,46
 131 1209 131 1209 188 1283 c 1,47,48
 248 1357 248 1357 337 1395.5 c 128,-1,49
 426 1434 426 1434 543 1434 c 0,50,51
 702 1434 702 1434 811 1361 c 128,-1,52
 920 1288 920 1288 980 1148 c 1,53,54
 994 1111 994 1111 1006 1066.5 c 128,-1,55
 1018 1022 1018 1022 1027 972 c 128,-1,56
 1036 922 1036 922 1041 869 c 128,-1,57
 1046 816 1046 816 1046 763 c 0,58,59
 1046 637 1046 637 1025 519 c 128,-1,60
 1004 401 1004 401 967 303 c 1,61,62
 901 139 901 139 788 50 c 128,-1,63
 675 -39 675 -39 519 -39 c 0,64,65
 306 -39 306 -39 195 72 c 0,66,67
 87 181 87 181 86 370 c 1,68,-1
 292 370 l 1,20,21
EndSplineSet
Substitution2: "<17013,16013> Islamic Ornamental lookup 65 subtable" nine
Substitution2: "<17010,16010> Urdu Swash lookup 62 subtable" nine
EndChar

StartChar: colon
Encoding: 58 58 29
Width: 680
GlyphClass: 2
Flags: W
LayerCount: 2
Fore
SplineSet
311 664 m 0,0,1
 253 664 253 664 216 704 c 1,2,3
 199 725 199 725 189.5 747.5 c 128,-1,4
 180 770 180 770 180 797 c 0,5,6
 180 825 180 825 190 849 c 128,-1,7
 200 873 200 873 218 891 c 128,-1,8
 236 909 236 909 260 919.5 c 128,-1,9
 284 930 284 930 311 930 c 256,10,11
 338 930 338 930 361 920 c 128,-1,12
 384 910 384 910 404 892 c 0,13,14
 445 855 445 855 445 798 c 0,15,16
 445 738 445 738 404 700 c 0,17,18
 365 664 365 664 311 664 c 0,0,1
180 215 m 0,19,20
 180 241 180 241 190.5 265 c 128,-1,21
 201 289 201 289 217 309 c 1,22,23
 258 348 258 348 312 348 c 0,24,25
 339 348 339 348 364.5 338 c 128,-1,26
 390 328 390 328 410 310 c 1,27,28
 428 292 428 292 439 268 c 128,-1,29
 450 244 450 244 450 215 c 0,30,31
 450 189 450 189 440 166 c 128,-1,32
 430 143 430 143 412 121 c 1,33,34
 392 101 392 101 366.5 90.5 c 128,-1,35
 341 80 341 80 308 80 c 0,36,37
 259 80 259 80 218 119 c 1,38,39
 200 140 200 140 190 163.5 c 128,-1,40
 180 187 180 187 180 215 c 0,19,20
EndSplineSet
Substitution2: "<17013,16013> Islamic Ornamental lookup 65 subtable" colon
Substitution2: "<17010,16010> Urdu Swash lookup 62 subtable" colon
EndChar

StartChar: semicolon
Encoding: 59 59 30
Width: 569
GlyphClass: 2
Flags: W
LayerCount: 2
Fore
SplineSet
214 1066 m 1,0,-1
 452 1066 l 1,1,-1
 452 821 l 1,2,-1
 214 821 l 1,3,-1
 214 1066 l 1,0,-1
214 -176 m 1,4,5
 249 -167 249 -167 273.5 -144.5 c 128,-1,6
 298 -122 298 -122 309 -93 c 0,7,8
 315 -75 315 -75 318.5 -53 c 128,-1,9
 322 -31 322 -31 322 -8 c 2,10,-1
 322 -3 l 1,11,-1
 321 0 l 1,12,-1
 214 0 l 1,13,-1
 214 245 l 1,14,-1
 452 245 l 1,15,-1
 452 31 l 2,16,17
 452 -21 452 -21 445 -67.5 c 128,-1,18
 438 -114 438 -114 422 -150 c 0,19,20
 397 -205 397 -205 342.5 -245 c 128,-1,21
 288 -285 288 -285 214 -304 c 1,22,-1
 214 -176 l 1,4,5
EndSplineSet
Substitution2: "<17013,16013> Islamic Ornamental lookup 65 subtable" semicolon
Substitution2: "<17010,16010> Urdu Swash lookup 62 subtable" semicolon
EndChar

StartChar: less
Encoding: 60 60 31
Width: 1196
GlyphClass: 2
Flags: W
LayerCount: 2
Fore
SplineSet
11 619 m 1,0,-1
 227 702 l 1,1,-1
 226 702 l 1,2,3
 317 738 317 738 408 774 c 128,-1,4
 499 810 499 810 590 845 c 1,5,-1
 589 845 l 1,6,7
 602 850 602 850 614.5 855.5 c 128,-1,8
 627 861 627 861 641 866 c 1,9,-1
 640 866 l 1,10,11
 672 879 672 879 703.5 891 c 128,-1,12
 735 903 735 903 766 915 c 1,13,-1
 765 915 l 1,14,15
 813 934 813 934 866.5 955 c 128,-1,16
 920 976 920 976 975 997.5 c 128,-1,17
 1030 1019 1030 1019 1083.5 1039.5 c 128,-1,18
 1137 1060 1137 1060 1186 1079 c 1,19,-1
 1186 870 l 1,20,-1
 278 527 l 1,21,22
 302 518 302 518 325.5 509.5 c 128,-1,23
 349 501 349 501 374 492 c 0,24,25
 416 476 416 476 456 461 c 128,-1,26
 496 446 496 446 538 429 c 0,27,28
 596 407 596 407 655 384.5 c 128,-1,29
 714 362 714 362 773 340 c 0,30,31
 876 301 876 301 982.5 261 c 128,-1,32
 1089 221 1089 221 1186 184 c 1,33,-1
 1186 -25 l 1,34,35
 1165 -17 1165 -17 1140.5 -7.5 c 128,-1,36
 1116 2 1116 2 1091.5 11.5 c 128,-1,37
 1067 21 1067 21 1042.5 30.5 c 128,-1,38
 1018 40 1018 40 997 49 c 0,39,40
 875 98 875 98 753.5 145.5 c 128,-1,41
 632 193 632 193 514 240 c 0,42,43
 492 249 492 249 466.5 258.5 c 128,-1,44
 441 268 441 268 415 278 c 128,-1,45
 389 288 389 288 363 298 c 128,-1,46
 337 308 337 308 315 316 c 1,47,48
 282 330 282 330 247 343.5 c 128,-1,49
 212 357 212 357 177 370 c 0,50,51
 137 386 137 386 93 402.5 c 128,-1,52
 49 419 49 419 11 435 c 1,53,-1
 11 619 l 1,0,-1
EndSplineSet
Substitution2: "<17013,16013> Islamic Ornamental lookup 65 subtable" less
Substitution2: "<17010,16010> Urdu Swash lookup 62 subtable" less
EndChar

StartChar: equal
Encoding: 61 61 32
Width: 1196
GlyphClass: 2
Flags: W
LayerCount: 2
Fore
SplineSet
1123 836 m 1,0,-1
 1123 640 l 1,1,-1
 72 640 l 1,2,-1
 72 836 l 1,3,-1
 1123 836 l 1,0,-1
1123 415 m 1,4,-1
 1123 217 l 1,5,-1
 72 217 l 1,6,-1
 72 415 l 1,7,-1
 1123 415 l 1,4,-1
EndSplineSet
Substitution2: "<17013,16013> Islamic Ornamental lookup 65 subtable" equal
Substitution2: "<17010,16010> Urdu Swash lookup 62 subtable" equal
EndChar

StartChar: greater
Encoding: 62 62 33
Width: 1196
GlyphClass: 2
Flags: W
LayerCount: 2
Fore
SplineSet
1186 433 m 1,0,1
 1151 419 1151 419 1112 404 c 128,-1,2
 1073 389 1073 389 1038 375 c 0,3,4
 931 333 931 333 822.5 291.5 c 128,-1,5
 714 250 714 250 609 208 c 1,6,7
 571 194 571 194 534 179 c 128,-1,8
 497 164 497 164 459 150 c 2,9,-1
 309 91 l 1,10,-1
 310 91 l 1,11,12
 305 89 305 89 299.5 87 c 128,-1,13
 294 85 294 85 289 83 c 0,14,15
 258 71 258 71 222.5 57 c 128,-1,16
 187 43 187 43 150 29 c 128,-1,17
 113 15 113 15 77.5 1 c 128,-1,18
 42 -13 42 -13 11 -25 c 1,19,-1
 11 184 l 1,20,-1
 917 527 l 1,21,22
 865 547 865 547 814 566.5 c 128,-1,23
 763 586 763 586 709 606 c 0,24,25
 636 634 636 634 563 661.5 c 128,-1,26
 490 689 490 689 417 717 c 0,27,28
 369 735 369 735 316.5 754.5 c 128,-1,29
 264 774 264 774 211.5 794 c 128,-1,30
 159 814 159 814 108 833 c 128,-1,31
 57 852 57 852 11 870 c 1,32,-1
 11 1080 l 1,33,34
 29 1073 29 1073 51 1064.5 c 128,-1,35
 73 1056 73 1056 95.5 1047 c 128,-1,36
 118 1038 118 1038 140 1029 c 128,-1,37
 162 1020 162 1020 181 1013 c 0,38,39
 288 971 288 971 397 928.5 c 128,-1,40
 506 886 506 886 609 845 c 0,41,42
 748 791 748 791 896.5 732.5 c 128,-1,43
 1045 674 1045 674 1186 619 c 1,44,-1
 1186 433 l 1,0,1
EndSplineSet
Substitution2: "<17013,16013> Islamic Ornamental lookup 65 subtable" greater
Substitution2: "<17010,16010> Urdu Swash lookup 62 subtable" greater
EndChar

StartChar: question
Encoding: 63 63 34
Width: 1139
GlyphClass: 2
Flags: W
LayerCount: 2
Fore
SplineSet
481 235 m 1,0,-1
 706 235 l 1,1,-1
 706 0 l 1,2,-1
 481 0 l 1,3,-1
 481 235 l 1,0,-1
613 1487 m 0,4,5
 813 1487 813 1487 932 1372 c 0,6,7
 992 1315 992 1315 1022.5 1242.5 c 128,-1,8
 1053 1170 1053 1170 1053 1079 c 0,9,10
 1053 1025 1053 1025 1041.5 982 c 128,-1,11
 1030 939 1030 939 1007 904 c 0,12,13
 997 889 997 889 979.5 867.5 c 128,-1,14
 962 846 962 846 939.5 820.5 c 128,-1,15
 917 795 917 795 890 767 c 128,-1,16
 863 739 863 739 834 710 c 0,17,18
 816 691 816 691 797 670.5 c 128,-1,19
 778 650 778 650 761.5 630 c 128,-1,20
 745 610 745 610 733 592.5 c 128,-1,21
 721 575 721 575 716 561 c 1,22,-1
 716 562 l 1,23,24
 705 533 705 533 697.5 482.5 c 128,-1,25
 690 432 690 432 689 365 c 1,26,-1
 483 365 l 1,27,28
 484 446 484 446 493.5 508 c 128,-1,29
 503 570 503 570 518 612 c 1,30,31
 535 656 535 656 573 708 c 128,-1,32
 611 760 611 760 668 815 c 0,33,34
 679 826 679 826 696.5 843.5 c 128,-1,35
 714 861 714 861 729 877 c 0,36,37
 733 881 733 881 737.5 884.5 c 128,-1,38
 742 888 742 888 746 892 c 0,39,40
 763 908 763 908 777 925 c 128,-1,41
 791 942 791 942 800 959 c 1,42,43
 820 989 820 989 828.5 1019.5 c 128,-1,44
 837 1050 837 1050 837 1081 c 0,45,46
 837 1124 837 1124 822 1165 c 128,-1,47
 807 1206 807 1206 782 1237 c 1,48,-1
 782 1236 l 1,49,50
 756 1268 756 1268 711 1285.5 c 128,-1,51
 666 1303 666 1303 606 1303 c 0,52,53
 532 1303 532 1303 478 1272.5 c 128,-1,54
 424 1242 424 1242 393 1191 c 1,55,56
 378 1160 378 1160 367.5 1108 c 128,-1,57
 357 1056 357 1056 354 987 c 1,58,-1
 150 987 l 1,59,60
 151 1108 151 1108 183 1197.5 c 128,-1,61
 215 1287 215 1287 274 1353 c 1,62,63
 335 1417 335 1417 421 1452 c 128,-1,64
 507 1487 507 1487 613 1487 c 0,4,5
EndSplineSet
Substitution2: "<17013,16013> Islamic Ornamental lookup 65 subtable" question
Substitution2: "<17010,16010> Urdu Swash lookup 62 subtable" question
EndChar

StartChar: at
Encoding: 64 64 35
Width: 2079
GlyphClass: 2
Flags: W
LayerCount: 2
Fore
SplineSet
1092 1031 m 0,0,1
 1044 1031 1044 1031 997 996 c 128,-1,2
 950 961 950 961 913 906 c 1,3,4
 875 842 875 842 853.5 777.5 c 128,-1,5
 832 713 832 713 832 653 c 0,6,7
 832 565 832 565 870 518.5 c 128,-1,8
 908 472 908 472 965 472 c 0,9,10
 1087 472 1087 472 1156 617 c 0,11,12
 1229 770 1229 770 1229 889 c 0,13,14
 1229 914 1229 914 1218.5 940 c 128,-1,15
 1208 966 1208 966 1193 986 c 1,16,17
 1173 1007 1173 1007 1147 1019 c 128,-1,18
 1121 1031 1121 1031 1092 1031 c 0,0,1
408 218 m 0,19,20
 227 427 227 427 227 701 c 0,21,22
 227 860 227 860 283.5 1000.5 c 128,-1,23
 340 1141 340 1141 446 1254 c 1,24,25
 568 1375 568 1375 733 1441 c 128,-1,26
 898 1507 898 1507 1099 1507 c 0,27,28
 1275 1507 1275 1507 1415 1461.5 c 128,-1,29
 1555 1416 1555 1416 1657 1328 c 1,30,31
 1751 1243 1751 1243 1800 1132 c 128,-1,32
 1849 1021 1849 1021 1849 884 c 0,33,34
 1849 769 1849 769 1814 670.5 c 128,-1,35
 1779 572 1779 572 1712 492 c 1,36,37
 1643 414 1643 414 1564.5 372 c 128,-1,38
 1486 330 1486 330 1400 330 c 0,39,40
 1349 330 1349 330 1311 343 c 128,-1,41
 1273 356 1273 356 1248 380 c 0,42,43
 1225 402 1225 402 1213.5 427.5 c 128,-1,44
 1202 453 1202 453 1199 482 c 1,45,46
 1176 447 1176 447 1150.5 420.5 c 128,-1,47
 1125 394 1125 394 1096 377 c 0,48,49
 1056 355 1056 355 1012 342.5 c 128,-1,50
 968 330 968 330 924 330 c 0,51,52
 861 330 861 330 809.5 354 c 128,-1,53
 758 378 758 378 718 422 c 1,54,55
 639 518 639 518 639 656 c 0,56,57
 639 756 639 756 671.5 845.5 c 128,-1,58
 704 935 704 935 770 1011 c 1,59,60
 834 1083 834 1083 907 1123.5 c 128,-1,61
 980 1164 980 1164 1057 1164 c 0,62,63
 1110 1164 1110 1164 1154.5 1148 c 128,-1,64
 1199 1132 1199 1132 1232 1104 c 1,65,66
 1252 1085 1252 1085 1267.5 1063 c 128,-1,67
 1283 1041 1283 1041 1294 1015 c 1,68,69
 1296 1020 1296 1020 1297 1024.5 c 128,-1,70
 1298 1029 1298 1029 1300 1034 c 0,71,72
 1302 1044 1302 1044 1305 1055 c 128,-1,73
 1308 1066 1308 1066 1312 1077 c 0,74,75
 1316 1089 1316 1089 1320.5 1105.5 c 128,-1,76
 1325 1122 1325 1122 1328 1131 c 1,77,-1
 1503 1131 l 1,78,-1
 1367 684 l 1,79,80
 1356 642 1356 642 1348.5 609 c 128,-1,81
 1341 576 1341 576 1341 553 c 0,82,83
 1341 517 1341 517 1363 501 c 128,-1,84
 1385 485 1385 485 1412 485 c 0,85,86
 1436 485 1436 485 1460.5 494 c 128,-1,87
 1485 503 1485 503 1509.5 518 c 128,-1,88
 1534 533 1534 533 1557 553 c 128,-1,89
 1580 573 1580 573 1599 596 c 1,90,91
 1636 651 1636 651 1661 729 c 128,-1,92
 1686 807 1686 807 1686 891 c 0,93,94
 1686 1110 1686 1110 1533 1233 c 1,95,96
 1376 1361 1376 1361 1116 1361 c 0,97,98
 940 1361 940 1361 799 1304 c 128,-1,99
 658 1247 658 1247 560 1148 c 1,100,-1
 560 1149 l 1,101,102
 484 1059 484 1059 439 942 c 128,-1,103
 394 825 394 825 394 694 c 0,104,105
 394 639 394 639 406 584.5 c 128,-1,106
 418 530 418 530 439.5 478.5 c 128,-1,107
 461 427 461 427 490 380.5 c 128,-1,108
 519 334 519 334 552 295 c 1,109,110
 598 253 598 253 656 218 c 128,-1,111
 714 183 714 183 781 157.5 c 128,-1,112
 848 132 848 132 922.5 117.5 c 128,-1,113
 997 103 997 103 1075 103 c 0,114,115
 1233 103 1233 103 1372.5 155.5 c 128,-1,116
 1512 208 1512 208 1637 299 c 1,117,118
 1651 280 1651 280 1669 255 c 128,-1,119
 1687 230 1687 230 1701 211 c 1,120,-1
 1713 180 l 1,121,122
 1662 137 1662 137 1594.5 99.5 c 128,-1,123
 1527 62 1527 62 1441 27 c 1,124,125
 1351 -8 1351 -8 1254 -25 c 128,-1,126
 1157 -42 1157 -42 1050 -42 c 0,127,128
 634 -42 634 -42 408 218 c 0,19,20
EndSplineSet
Substitution2: "<17013,16013> Islamic Ornamental lookup 65 subtable" at
Substitution2: "<17010,16010> Urdu Swash lookup 62 subtable" at
EndChar

StartChar: A
Encoding: 65 65 36
Width: 1366
GlyphClass: 2
Flags: W
LayerCount: 2
Fore
SplineSet
884 620 m 1,0,1
 855 704 855 704 825.5 787.5 c 128,-1,2
 796 871 796 871 767 957 c 0,3,4
 751 1002 751 1002 737 1044 c 128,-1,5
 723 1086 723 1086 709 1126 c 0,6,7
 705 1137 705 1137 703 1144 c 128,-1,8
 701 1151 701 1151 698.5 1157.5 c 128,-1,9
 696 1164 696 1164 693.5 1172 c 128,-1,10
 691 1180 691 1180 686 1193 c 1,11,12
 669 1146 669 1146 652 1101.5 c 128,-1,13
 635 1057 635 1057 618 1010 c 0,14,15
 605 975 605 975 592.5 940.5 c 128,-1,16
 580 906 580 906 567 871 c 0,17,18
 557 844 557 844 548 817.5 c 128,-1,19
 539 791 539 791 529 765 c 0,20,21
 522 745 522 745 516 727.5 c 128,-1,22
 510 710 510 710 504 693.5 c 128,-1,23
 498 677 498 677 491 659 c 128,-1,24
 484 641 484 641 476 620 c 1,25,-1
 884 620 l 1,0,1
574 1468 m 1,26,-1
 815 1468 l 1,27,28
 829 1433 829 1433 844 1391 c 128,-1,29
 859 1349 859 1349 873 1311 c 0,30,31
 883 1283 883 1283 893 1257 c 128,-1,32
 903 1231 903 1231 912 1205 c 0,33,34
 934 1146 934 1146 954.5 1089 c 128,-1,35
 975 1032 975 1032 996 974 c 0,36,37
 1018 915 1018 915 1038.5 858 c 128,-1,38
 1059 801 1059 801 1080 742 c 0,39,40
 1124 622 1124 622 1169.5 494.5 c 128,-1,41
 1215 367 1215 367 1258 248 c 0,42,43
 1271 214 1271 214 1284.5 176.5 c 128,-1,44
 1298 139 1298 139 1312 102 c 0,45,46
 1316 91 1316 91 1321 77 c 128,-1,47
 1326 63 1326 63 1331 49 c 128,-1,48
 1336 35 1336 35 1340.5 22 c 128,-1,49
 1345 9 1345 9 1349 0 c 1,50,-1
 1101 0 l 1,51,-1
 958 430 l 1,52,-1
 411 430 l 1,53,54
 409 424 409 424 408 422 c 256,55,56
 407 420 407 420 406 417.5 c 128,-1,57
 405 415 405 415 404 413 c 0,58,59
 387 365 387 365 369.5 315.5 c 128,-1,60
 352 266 352 266 333 215 c 0,61,62
 320 179 320 179 305.5 138 c 128,-1,63
 291 97 291 97 277 59 c 0,64,65
 272 46 272 46 266 29 c 128,-1,66
 260 12 260 12 255 0 c 1,67,-1
 22 0 l 1,68,-1
 574 1468 l 1,26,-1
EndSplineSet
Substitution2: "<17013,16013> Islamic Ornamental lookup 65 subtable" A
Substitution2: "<17010,16010> Urdu Swash lookup 62 subtable" A
EndChar

StartChar: B
Encoding: 66 66 37
Width: 1366
GlyphClass: 2
Flags: W
LayerCount: 2
Fore
SplineSet
708 861 m 2,0,1
 768 861 768 861 814.5 870 c 128,-1,2
 861 879 861 879 894 894 c 1,3,-1
 893 893 l 1,4,5
 941 918 941 918 966.5 962.5 c 128,-1,6
 992 1007 992 1007 992 1073 c 0,7,8
 992 1137 992 1137 964 1181 c 128,-1,9
 936 1225 936 1225 888 1248 c 1,10,-1
 889 1248 l 1,11,12
 857 1260 857 1260 808.5 1267 c 128,-1,13
 760 1274 760 1274 701 1274 c 2,14,-1
 370 1274 l 1,15,-1
 370 861 l 1,16,-1
 708 861 l 2,0,1
774 198 m 2,17,18
 857 198 857 198 919 224 c 128,-1,19
 981 250 981 250 1018 295 c 1,20,-1
 1017 294 l 1,21,22
 1037 325 1037 325 1049 363.5 c 128,-1,23
 1061 402 1061 402 1061 444 c 0,24,25
 1061 512 1061 512 1025 563 c 128,-1,26
 989 614 989 614 932 643 c 1,27,28
 896 655 896 655 846.5 663.5 c 128,-1,29
 797 672 797 672 741 672 c 2,30,-1
 370 672 l 1,31,-1
 370 198 l 1,32,-1
 774 198 l 2,17,18
148 1468 m 1,33,-1
 781 1468 l 2,34,35
 909 1468 909 1468 1002 1427.5 c 128,-1,36
 1095 1387 1095 1387 1152 1312 c 1,37,38
 1184 1265 1184 1265 1201 1210.5 c 128,-1,39
 1218 1156 1218 1156 1218 1096 c 0,40,41
 1218 955 1218 955 1137 863 c 0,42,43
 1122 846 1122 846 1098.5 828.5 c 128,-1,44
 1075 811 1075 811 1044 791 c 1,45,46
 1142 749 1142 749 1185 706 c 1,47,48
 1236 657 1236 657 1261.5 589 c 128,-1,49
 1287 521 1287 521 1287 435 c 0,50,51
 1287 366 1287 366 1263 299 c 128,-1,52
 1239 232 1239 232 1197 174 c 1,53,54
 1129 91 1129 91 1021.5 45.5 c 128,-1,55
 914 0 914 0 771 0 c 2,56,-1
 148 0 l 1,57,-1
 148 1468 l 1,33,-1
EndSplineSet
Substitution2: "<17013,16013> Islamic Ornamental lookup 65 subtable" B
Substitution2: "<17010,16010> Urdu Swash lookup 62 subtable" B
EndChar

StartChar: C
Encoding: 67 67 38
AltUni2: 00216d.ffffffff.0
Width: 1479
GlyphClass: 2
Flags: W
LayerCount: 2
Fore
SplineSet
1163 1007 m 1,0,1
 1145 1078 1145 1078 1112 1134.5 c 128,-1,2
 1079 1191 1079 1191 1037 1230 c 1,3,4
 992 1267 992 1267 926.5 1287 c 128,-1,5
 861 1307 861 1307 776 1307 c 0,6,7
 675 1307 675 1307 590.5 1269.5 c 128,-1,8
 506 1232 506 1232 443 1163 c 1,9,10
 384 1090 384 1090 351.5 977.5 c 128,-1,11
 319 865 319 865 319 716 c 0,12,13
 319 467 319 467 432 316 c 0,14,15
 489 240 489 240 574.5 203 c 128,-1,16
 660 166 660 166 772 166 c 0,17,18
 877 166 877 166 955 204.5 c 128,-1,19
 1033 243 1033 243 1087 324 c 0,20,21
 1140 404 1140 404 1177 558 c 1,22,-1
 1396 558 l 1,23,24
 1380 433 1380 433 1335.5 331.5 c 128,-1,25
 1291 230 1291 230 1222 153 c 1,26,27
 1134 64 1134 64 1014 13.5 c 128,-1,28
 894 -37 894 -37 749 -37 c 0,29,30
 621 -37 621 -37 512.5 4 c 128,-1,31
 404 45 404 45 318 119 c 1,32,33
 206 222 206 222 147.5 380 c 128,-1,34
 89 538 89 538 89 749 c 0,35,36
 89 913 89 913 132 1045.5 c 128,-1,37
 175 1178 175 1178 260 1281 c 0,38,39
 353 1392 353 1392 482 1449.5 c 128,-1,40
 611 1507 611 1507 774 1507 c 0,41,42
 909 1507 909 1507 1021 1467 c 128,-1,43
 1133 1427 1133 1427 1208 1361 c 1,44,45
 1280 1291 1280 1291 1325.5 1200.5 c 128,-1,46
 1371 1110 1371 1110 1383 1007 c 1,47,-1
 1163 1007 l 1,0,1
EndSplineSet
Substitution2: "<17013,16013> Islamic Ornamental lookup 65 subtable" C
Substitution2: "<17010,16010> Urdu Swash lookup 62 subtable" C
EndChar

StartChar: D
Encoding: 68 68 39
AltUni2: 00216e.ffffffff.0
Width: 1479
GlyphClass: 2
Flags: W
LayerCount: 2
Fore
SplineSet
721 198 m 2,0,1
 769 198 769 198 808.5 203 c 128,-1,2
 848 208 848 208 880 216 c 1,3,-1
 879 216 l 1,4,5
 933 235 933 235 977.5 270 c 128,-1,6
 1022 305 1022 305 1057 359 c 1,7,8
 1084 397 1084 397 1104.5 454.5 c 128,-1,9
 1125 512 1125 512 1137 575 c 0,10,11
 1144 613 1144 613 1147.5 652.5 c 128,-1,12
 1151 692 1151 692 1151 723 c 0,13,14
 1151 784 1151 784 1143 841.5 c 128,-1,15
 1135 899 1135 899 1121.5 951 c 128,-1,16
 1108 1003 1108 1003 1089 1048 c 128,-1,17
 1070 1093 1070 1093 1047 1128 c 1,18,-1
 1048 1127 l 1,19,20
 997 1193 997 1193 913 1231 c 128,-1,21
 829 1269 829 1269 719 1269 c 2,22,-1
 390 1269 l 1,23,-1
 390 198 l 1,24,-1
 721 198 l 2,0,1
163 1468 m 1,25,-1
 760 1468 l 2,26,27
 912 1468 912 1468 1030.5 1413 c 128,-1,28
 1149 1358 1149 1358 1232 1252 c 1,29,30
 1303 1155 1303 1155 1342 1029.5 c 128,-1,31
 1381 904 1381 904 1381 756 c 0,32,33
 1381 641 1381 641 1358.5 534.5 c 128,-1,34
 1336 428 1336 428 1294 337 c 1,35,36
 1215 172 1215 172 1082 86 c 128,-1,37
 949 0 949 0 758 0 c 2,38,-1
 163 0 l 1,39,-1
 163 1468 l 1,25,-1
EndSplineSet
Substitution2: "<17013,16013> Islamic Ornamental lookup 65 subtable" D
Substitution2: "<17010,16010> Urdu Swash lookup 62 subtable" D
EndChar

StartChar: E
Encoding: 69 69 40
Width: 1366
GlyphClass: 2
Flags: W
LayerCount: 2
Fore
SplineSet
171 1468 m 1,0,-1
 1250 1468 l 1,1,-1
 1250 1261 l 1,2,-1
 393 1261 l 1,3,-1
 393 856 l 1,4,-1
 1185 856 l 1,5,-1
 1185 659 l 1,6,-1
 393 659 l 1,7,-1
 393 203 l 1,8,-1
 1265 203 l 1,9,-1
 1265 0 l 1,10,-1
 171 0 l 1,11,-1
 171 1468 l 1,0,-1
EndSplineSet
Substitution2: "<17013,16013> Islamic Ornamental lookup 65 subtable" E
Substitution2: "<17010,16010> Urdu Swash lookup 62 subtable" E
EndChar

StartChar: F
Encoding: 70 70 41
Width: 1251
GlyphClass: 2
Flags: W
LayerCount: 2
Fore
SplineSet
171 1468 m 1,0,-1
 1198 1468 l 1,1,-1
 1198 1261 l 1,2,-1
 395 1261 l 1,3,-1
 395 856 l 1,4,-1
 1101 856 l 1,5,-1
 1101 653 l 1,6,-1
 395 653 l 1,7,-1
 395 0 l 1,8,-1
 171 0 l 1,9,-1
 171 1468 l 1,0,-1
EndSplineSet
Substitution2: "<17013,16013> Islamic Ornamental lookup 65 subtable" F
Substitution2: "<17010,16010> Urdu Swash lookup 62 subtable" F
EndChar

StartChar: G
Encoding: 71 71 42
Width: 1593
GlyphClass: 2
Flags: W
LayerCount: 2
Fore
SplineSet
1147 1425 m 1,0,1
 1257 1369 1257 1369 1324.5 1263 c 128,-1,2
 1392 1157 1392 1157 1422 1002 c 1,3,-1
 1197 1002 l 1,4,5
 1158 1157 1158 1157 1051 1230 c 128,-1,6
 944 1303 944 1303 786 1303 c 0,7,8
 694 1303 694 1303 609.5 1263.5 c 128,-1,9
 525 1224 525 1224 460 1159 c 1,10,11
 396 1084 396 1084 362 975 c 128,-1,12
 328 866 328 866 328 723 c 0,13,14
 328 471 328 471 439 315 c 1,15,16
 545 161 545 161 793 161 c 0,17,18
 981 161 981 161 1103 270 c 1,19,20
 1161 320 1161 320 1192.5 406 c 128,-1,21
 1224 492 1224 492 1229 607 c 1,22,-1
 781 607 l 1,23,-1
 781 800 l 1,24,-1
 1442 800 l 1,25,-1
 1442 0 l 1,26,-1
 1288 0 l 1,27,-1
 1245 168 l 1,28,29
 1201 124 1201 124 1159.5 89 c 128,-1,30
 1118 54 1118 54 1086 36 c 0,31,32
 953 -38 953 -38 753 -38 c 0,33,34
 623 -38 623 -38 510 5 c 128,-1,35
 397 48 397 48 304 131 c 1,36,37
 205 237 205 237 151.5 383.5 c 128,-1,38
 98 530 98 530 98 712 c 0,39,40
 98 893 98 893 151 1040.5 c 128,-1,41
 204 1188 204 1188 298 1297 c 1,42,43
 392 1397 392 1397 517 1451 c 128,-1,44
 642 1505 642 1505 791 1505 c 0,45,46
 995 1505 995 1505 1147 1425 c 1,0,1
EndSplineSet
Substitution2: "<17013,16013> Islamic Ornamental lookup 65 subtable" G
Substitution2: "<17010,16010> Urdu Swash lookup 62 subtable" G
EndChar

StartChar: H
Encoding: 72 72 43
Width: 1479
GlyphClass: 2
Flags: W
LayerCount: 2
Fore
SplineSet
158 1468 m 1,0,-1
 386 1468 l 1,1,-1
 386 875 l 1,2,-1
 1102 875 l 1,3,-1
 1102 1468 l 1,4,-1
 1330 1468 l 1,5,-1
 1330 0 l 1,6,-1
 1102 0 l 1,7,-1
 1102 672 l 1,8,-1
 386 672 l 1,9,-1
 386 0 l 1,10,-1
 158 0 l 1,11,-1
 158 1468 l 1,0,-1
EndSplineSet
Substitution2: "<17013,16013> Islamic Ornamental lookup 65 subtable" H
Substitution2: "<17010,16010> Urdu Swash lookup 62 subtable" H
EndChar

StartChar: I
Encoding: 73 73 44
Width: 569
GlyphClass: 2
Flags: W
LayerCount: 2
Fore
SplineSet
187 1468 m 1,0,-1
 416 1468 l 1,1,-1
 416 0 l 1,2,-1
 187 0 l 1,3,-1
 187 1468 l 1,0,-1
EndSplineSet
Substitution2: "<17013,16013> Islamic Ornamental lookup 65 subtable" I
Substitution2: "<17010,16010> Urdu Swash lookup 62 subtable" I
EndChar

StartChar: J
Encoding: 74 74 45
Width: 1024
GlyphClass: 2
Flags: W
LayerCount: 2
Fore
SplineSet
883 444 m 2,0,1
 883 353 883 353 868.5 280.5 c 128,-1,2
 854 208 854 208 827 155 c 1,3,4
 774 62 774 62 675.5 12 c 128,-1,5
 577 -38 577 -38 434 -38 c 0,6,7
 353 -38 353 -38 279.5 -14 c 128,-1,8
 206 10 206 10 148 52 c 1,9,10
 90 99 90 99 59.5 180 c 128,-1,11
 29 261 29 261 29 376 c 2,12,-1
 29 494 l 1,13,-1
 242 494 l 1,14,-1
 242 376 l 2,15,16
 242 267 242 267 290.5 212 c 128,-1,17
 339 157 339 157 442 157 c 0,18,19
 514 157 514 157 561.5 182.5 c 128,-1,20
 609 208 609 208 632 255 c 1,21,-1
 631 254 l 1,22,23
 645 288 645 288 652.5 347.5 c 128,-1,24
 660 407 660 407 660 495 c 2,25,-1
 660 1468 l 1,26,-1
 883 1468 l 1,27,-1
 883 444 l 2,0,1
EndSplineSet
Substitution2: "<17013,16013> Islamic Ornamental lookup 65 subtable" J
Substitution2: "<17010,16010> Urdu Swash lookup 62 subtable" J
EndChar

StartChar: K
Encoding: 75 75 46
AltUni2: 00212a.ffffffff.0
Width: 1366
GlyphClass: 2
Flags: W
LayerCount: 2
Fore
SplineSet
154 1468 m 1,0,-1
 375 1468 l 1,1,-1
 375 790 l 1,2,-1
 1053 1468 l 1,3,-1
 1368 1468 l 1,4,-1
 751 872 l 1,5,6
 811 787 811 787 874.5 699.5 c 128,-1,7
 938 612 938 612 1001 524 c 0,8,9
 1029 486 1029 486 1061.5 440 c 128,-1,10
 1094 394 1094 394 1120 358 c 0,11,12
 1142 327 1142 327 1165.5 294 c 128,-1,13
 1189 261 1189 261 1212 229 c 0,14,15
 1227 207 1227 207 1242.5 185.5 c 128,-1,16
 1258 164 1258 164 1273 143 c 0,17,18
 1278 137 1278 137 1283 130.5 c 128,-1,19
 1288 124 1288 124 1293 117 c 0,20,21
 1301 105 1301 105 1312.5 88.5 c 128,-1,22
 1324 72 1324 72 1336 55.5 c 128,-1,23
 1348 39 1348 39 1358.5 24 c 128,-1,24
 1369 9 1369 9 1375 0 c 1,25,-1
 1083 0 l 1,26,-1
 587 712 l 1,27,28
 570 696 570 696 555 681.5 c 128,-1,29
 540 667 540 667 523 650 c 1,30,-1
 515 643 l 1,31,32
 479 608 479 608 444 575 c 128,-1,33
 409 542 409 542 375 509 c 1,34,-1
 375 0 l 1,35,-1
 154 0 l 1,36,-1
 154 1468 l 1,0,-1
EndSplineSet
Substitution2: "<17013,16013> Islamic Ornamental lookup 65 subtable" K
Substitution2: "<17010,16010> Urdu Swash lookup 62 subtable" K
EndChar

StartChar: L
Encoding: 76 76 47
AltUni2: 00216c.ffffffff.0
Width: 1139
GlyphClass: 2
Flags: W
LayerCount: 2
Fore
SplineSet
151 1468 m 1,0,-1
 376 1468 l 1,1,-1
 376 203 l 1,2,-1
 1104 203 l 1,3,-1
 1104 0 l 1,4,-1
 151 0 l 1,5,-1
 151 1468 l 1,0,-1
EndSplineSet
Substitution2: "<17013,16013> Islamic Ornamental lookup 65 subtable" L
Substitution2: "<17010,16010> Urdu Swash lookup 62 subtable" L
EndChar

StartChar: M
Encoding: 77 77 48
AltUni2: 00216f.ffffffff.0
Width: 1706
GlyphClass: 2
Flags: W
LayerCount: 2
Fore
SplineSet
151 1467 m 1,0,-1
 476 1467 l 1,1,-1
 858 339 l 1,2,3
 860 342 860 342 862 350 c 0,4,5
 874 388 874 388 889 432.5 c 128,-1,6
 904 477 904 477 919 522 c 128,-1,7
 934 567 934 567 949 611 c 128,-1,8
 964 655 964 655 977 693 c 0,9,10
 1023 829 1023 829 1073 975.5 c 128,-1,11
 1123 1122 1123 1122 1168 1261 c 0,12,13
 1176 1285 1176 1285 1185 1310.5 c 128,-1,14
 1194 1336 1194 1336 1203 1362 c 0,15,16
 1211 1388 1211 1388 1220 1417 c 128,-1,17
 1229 1446 1229 1446 1237 1467 c 1,18,-1
 1559 1467 l 1,19,-1
 1559 0 l 1,20,-1
 1318 0 l 1,21,-1
 1318 861 l 2,22,23
 1318 876 1318 876 1318 897.5 c 128,-1,24
 1318 919 1318 919 1319 948 c 1,25,-1
 1319 960 l 2,26,27
 1319 962 1319 962 1319.5 962.5 c 128,-1,28
 1320 963 1320 963 1320 965 c 2,29,-1
 1320 1004 l 1,30,-1
 1320 1028 l 1,31,32
 1316 1017 1316 1017 1312.5 1006.5 c 128,-1,33
 1309 996 1309 996 1307 985 c 1,34,35
 1281 913 1281 913 1257.5 843 c 128,-1,36
 1234 773 1234 773 1211 704 c 2,37,-1
 974 0 l 1,38,-1
 739 0 l 1,39,-1
 389 1031 l 1,40,-1
 389 1021 l 2,41,42
 389 1020 389 1020 389.5 1020 c 128,-1,43
 390 1020 390 1020 390 1018 c 0,44,45
 391 997 391 997 391.5 973.5 c 128,-1,46
 392 950 392 950 392.5 928.5 c 128,-1,47
 393 907 393 907 393 889 c 128,-1,48
 393 871 393 871 393 861 c 2,49,-1
 393 0 l 1,50,-1
 151 0 l 1,51,-1
 151 1467 l 1,0,-1
EndSplineSet
Substitution2: "<17013,16013> Islamic Ornamental lookup 65 subtable" M
Substitution2: "<17010,16010> Urdu Swash lookup 62 subtable" M
EndChar

StartChar: N
Encoding: 78 78 49
Width: 1479
GlyphClass: 2
Flags: W
LayerCount: 2
Fore
SplineSet
153 1468 m 1,0,-1
 408 1468 l 1,1,-1
 1109 345 l 1,2,-1
 1109 1468 l 1,3,-1
 1325 1468 l 1,4,-1
 1325 0 l 1,5,-1
 1081 0 l 1,6,-1
 370 1123 l 1,7,-1
 370 0 l 1,8,-1
 153 0 l 1,9,-1
 153 1468 l 1,0,-1
EndSplineSet
Substitution2: "<17013,16013> Islamic Ornamental lookup 65 subtable" N
Substitution2: "<17010,16010> Urdu Swash lookup 62 subtable" N
EndChar

StartChar: O
Encoding: 79 79 50
Width: 1593
GlyphClass: 2
Flags: W
LayerCount: 2
Fore
SplineSet
1281 756 m 0,0,1
 1281 1005 1281 1005 1152 1155 c 0,2,3
 1025 1303 1025 1303 802 1303 c 0,4,5
 585 1303 585 1303 450 1155 c 0,6,7
 313 1006 313 1006 313 714 c 0,8,9
 313 661 313 661 322 607 c 128,-1,10
 331 553 331 553 347 502 c 128,-1,11
 363 451 363 451 384.5 404.5 c 128,-1,12
 406 358 406 358 431 320 c 1,13,-1
 430 321 l 1,14,15
 489 247 489 247 585.5 205.5 c 128,-1,16
 682 164 682 164 810 164 c 0,17,18
 931 164 931 164 1022 210 c 128,-1,19
 1113 256 1113 256 1168 340 c 1,20,21
 1224 431 1224 431 1252.5 535.5 c 128,-1,22
 1281 640 1281 640 1281 756 c 0,0,1
1366 1257 m 0,23,24
 1439 1159 1439 1159 1475.5 1036 c 128,-1,25
 1512 913 1512 913 1512 759 c 0,26,27
 1512 601 1512 601 1467.5 461.5 c 128,-1,28
 1423 322 1423 322 1345 215 c 1,29,30
 1247 91 1247 91 1106 24.5 c 128,-1,31
 965 -42 965 -42 786 -42 c 0,32,33
 448 -42 448 -42 253 183 c 1,34,35
 80 398 80 398 80 727 c 0,36,37
 80 873 80 873 118.5 1001.5 c 128,-1,38
 157 1130 157 1130 228 1235 c 1,39,40
 324 1365 324 1365 465 1436 c 128,-1,41
 606 1507 606 1507 790 1507 c 0,42,43
 1179 1507 1179 1507 1366 1257 c 0,23,24
EndSplineSet
Substitution2: "<17013,16013> Islamic Ornamental lookup 65 subtable" O
Substitution2: "<17010,16010> Urdu Swash lookup 62 subtable" O
EndChar

StartChar: P
Encoding: 80 80 51
Width: 1366
GlyphClass: 2
Flags: W
LayerCount: 2
Fore
SplineSet
768 1243 m 1,0,-1
 419 1243 l 1,1,-1
 419 816 l 1,2,-1
 768 816 l 2,3,4
 825 816 825 816 874.5 829 c 128,-1,5
 924 842 924 842 958 865 c 1,6,7
 990 888 990 888 1008 931 c 128,-1,8
 1026 974 1026 974 1026 1033 c 0,9,10
 1026 1169 1026 1169 929 1217 c 1,11,-1
 945 1241 l 1,12,-1
 768 1243 l 1,0,-1
169 1467 m 1,13,-1
 832 1467 l 2,14,15
 930 1467 930 1467 1012 1437.5 c 128,-1,16
 1094 1408 1094 1408 1154 1354 c 1,17,18
 1214 1296 1214 1296 1246 1216 c 128,-1,19
 1278 1136 1278 1136 1278 1034 c 0,20,21
 1278 858 1278 858 1171 728 c 1,22,23
 1114 661 1114 661 1030.5 628 c 128,-1,24
 947 595 947 595 832 595 c 2,25,-1
 419 595 l 1,26,-1
 419 0 l 1,27,-1
 169 0 l 1,28,-1
 169 1467 l 1,13,-1
EndSplineSet
Substitution2: "<17013,16013> Islamic Ornamental lookup 65 subtable" P
Substitution2: "<17010,16010> Urdu Swash lookup 62 subtable" P
EndChar

StartChar: Q
Encoding: 81 81 52
Width: 1593
GlyphClass: 2
Flags: W
LayerCount: 2
Fore
SplineSet
836 310 m 1,0,1
 844 321 844 321 859.5 340.5 c 128,-1,2
 875 360 875 360 884 370 c 2,3,-1
 889 375 l 2,4,5
 890 376 890 376 890 376.5 c 128,-1,6
 890 377 890 377 891 378 c 0,7,8
 892 380 892 380 894 382 c 1,9,-1
 894 381 l 1,10,11
 900 387 900 387 908 396.5 c 128,-1,12
 916 406 916 406 924.5 416.5 c 128,-1,13
 933 427 933 427 941 437 c 128,-1,14
 949 447 949 447 955 454 c 1,15,-1
 1142 310 l 1,16,17
 1178 358 1178 358 1207 414 c 128,-1,18
 1236 470 1236 470 1250 518 c 1,19,-1
 1249 518 l 1,20,21
 1264 580 1264 580 1272.5 641 c 128,-1,22
 1281 702 1281 702 1281 756 c 0,23,24
 1281 1005 1281 1005 1152 1155 c 0,25,26
 1025 1303 1025 1303 802 1303 c 0,27,28
 695 1303 695 1303 603 1264 c 128,-1,29
 511 1225 511 1225 445 1160 c 1,30,31
 313 1013 313 1013 313 714 c 0,32,33
 313 587 313 587 344 487.5 c 128,-1,34
 375 388 375 388 440 313 c 1,35,36
 503 237 503 237 595.5 200.5 c 128,-1,37
 688 164 688 164 811 164 c 0,38,39
 859 164 859 164 902.5 169.5 c 128,-1,40
 946 175 946 175 986 192 c 1,41,-1
 836 310 l 1,0,1
1510 20 m 1,42,43
 1493 2 1493 2 1489.5 -2.5 c 128,-1,44
 1486 -7 1486 -7 1484 -8 c 1,45,-1
 1484 -7 l 1,46,47
 1473 -24 1473 -24 1465.5 -31 c 128,-1,48
 1458 -38 1458 -38 1451 -46 c 0,49,50
 1450 -47 1450 -47 1450 -47.5 c 128,-1,51
 1450 -48 1450 -48 1449 -49 c 2,52,-1
 1450 -46 l 1,53,54
 1448 -48 1448 -48 1446 -51.5 c 128,-1,55
 1444 -55 1444 -55 1442 -58 c 0,56,57
 1438 -63 1438 -63 1431 -71.5 c 128,-1,58
 1424 -80 1424 -80 1416.5 -89 c 128,-1,59
 1409 -98 1409 -98 1402 -106.5 c 128,-1,60
 1395 -115 1395 -115 1391 -121 c 1,61,-1
 1163 53 l 1,62,63
 1082 9 1082 9 989 -16.5 c 128,-1,64
 896 -42 896 -42 787 -42 c 0,65,66
 446 -42 446 -42 251 183 c 1,67,68
 80 402 80 402 80 727 c 0,69,70
 80 873 80 873 118.5 1001.5 c 128,-1,71
 157 1130 157 1130 228 1235 c 1,72,73
 324 1365 324 1365 465 1436 c 128,-1,74
 606 1507 606 1507 790 1507 c 0,75,76
 984 1507 984 1507 1128 1443.5 c 128,-1,77
 1272 1380 1272 1380 1366 1257 c 1,78,79
 1435 1159 1435 1159 1473.5 1033.5 c 128,-1,80
 1512 908 1512 908 1512 759 c 0,81,82
 1512 688 1512 688 1503 619.5 c 128,-1,83
 1494 551 1494 551 1478 488 c 1,84,85
 1453 397 1453 397 1411 318 c 128,-1,86
 1369 239 1369 239 1310 175 c 1,87,-1
 1510 20 l 1,42,43
EndSplineSet
Substitution2: "<17013,16013> Islamic Ornamental lookup 65 subtable" Q
Substitution2: "<17010,16010> Urdu Swash lookup 62 subtable" Q
EndChar

StartChar: R
Encoding: 82 82 53
Width: 1479
GlyphClass: 2
Flags: W
LayerCount: 2
Fore
SplineSet
838 810 m 2,0,1
 904 810 904 810 956 823.5 c 128,-1,2
 1008 837 1008 837 1046 862 c 1,3,-1
 1045 862 l 1,4,5
 1080 888 1080 888 1099 935.5 c 128,-1,6
 1118 983 1118 983 1118 1047 c 0,7,8
 1118 1117 1118 1117 1092 1166.5 c 128,-1,9
 1066 1216 1066 1216 1016 1242 c 1,10,-1
 1017 1241 l 1,11,12
 956 1269 956 1269 863 1269 c 2,13,-1
 404 1269 l 1,14,-1
 404 810 l 1,15,-1
 838 810 l 2,0,1
179 1468 m 1,16,-1
 859 1468 l 2,17,18
 941 1468 941 1468 1012 1455.5 c 128,-1,19
 1083 1443 1083 1443 1137 1419 c 1,20,21
 1237 1371 1237 1371 1292 1281.5 c 128,-1,22
 1347 1192 1347 1192 1347 1065 c 0,23,24
 1347 944 1347 944 1299.5 862 c 128,-1,25
 1252 780 1252 780 1161 723 c 1,26,27
 1196 704 1196 704 1223.5 684 c 128,-1,28
 1251 664 1251 664 1268 642 c 1,29,30
 1290 611 1290 611 1303.5 563 c 128,-1,31
 1317 515 1317 515 1319 452 c 2,32,-1
 1326 259 l 2,33,34
 1329 175 1329 175 1339 141 c 0,35,36
 1347 112 1347 112 1362 91 c 128,-1,37
 1377 70 1377 70 1401 59 c 1,38,-1
 1401 0 l 1,39,-1
 1139 0 l 1,40,41
 1128 18 1128 18 1123.5 31 c 128,-1,42
 1119 44 1119 44 1117 56 c 2,43,-1
 1116 64 l 1,44,-1
 1116 61 l 1,45,46
 1114 69 1114 69 1113 86.5 c 128,-1,47
 1112 104 1112 104 1110 127 c 0,48,49
 1109 135 1109 135 1109 144 c 128,-1,50
 1109 153 1109 153 1108 162 c 1,51,-1
 1108 170 l 2,52,53
 1108 172 1108 172 1107.5 173.5 c 128,-1,54
 1107 175 1107 175 1107 177 c 0,55,56
 1105 206 1105 206 1104 236 c 128,-1,57
 1103 266 1103 266 1101 296 c 0,58,59
 1100 326 1100 326 1099 355.5 c 128,-1,60
 1098 385 1098 385 1096 415 c 0,61,62
 1091 475 1091 475 1066.5 523 c 128,-1,63
 1042 571 1042 571 1000 593 c 1,64,-1
 1001 592 l 1,65,66
 973 603 973 603 931 609.5 c 128,-1,67
 889 616 889 616 831 616 c 2,68,-1
 404 616 l 1,69,-1
 404 0 l 1,70,-1
 179 0 l 1,71,-1
 179 1468 l 1,16,-1
EndSplineSet
Substitution2: "<17013,16013> Islamic Ornamental lookup 65 subtable" R
Substitution2: "<17010,16010> Urdu Swash lookup 62 subtable" R
EndChar

StartChar: S
Encoding: 83 83 54
Width: 1366
GlyphClass: 2
Flags: W
LayerCount: 2
Fore
SplineSet
309 494 m 1,0,1
 314 428 314 428 328.5 376.5 c 128,-1,2
 343 325 343 325 366 290 c 1,3,-1
 365 291 l 1,4,5
 411 225 411 225 493.5 189 c 128,-1,6
 576 153 576 153 694 153 c 0,7,8
 745 153 745 153 796 162 c 128,-1,9
 847 171 847 171 889 184 c 1,10,11
 965 213 965 213 1008.5 264.5 c 128,-1,12
 1052 316 1052 316 1052 386 c 0,13,14
 1052 439 1052 439 1034 478 c 128,-1,15
 1016 517 1016 517 987 540 c 1,16,-1
 988 539 l 1,17,18
 972 549 972 549 946 560 c 128,-1,19
 920 571 920 571 888.5 582.5 c 128,-1,20
 857 594 857 594 823 604 c 128,-1,21
 789 614 789 614 757 623 c 0,22,23
 753 625 753 625 745 626 c 0,24,25
 741 627 741 627 738 627.5 c 128,-1,26
 735 628 735 628 731 629 c 0,27,28
 720 631 720 631 709 634 c 128,-1,29
 698 637 698 637 687 640 c 1,30,-1
 688 639 l 1,31,32
 656 646 656 646 624.5 653.5 c 128,-1,33
 593 661 593 661 564 667 c 0,34,35
 466 688 466 688 396 713 c 128,-1,36
 326 738 326 738 287 764 c 0,37,38
 217 811 217 811 180.5 881.5 c 128,-1,39
 144 952 144 952 144 1047 c 0,40,41
 144 1145 144 1145 180.5 1228.5 c 128,-1,42
 217 1312 217 1312 283 1376 c 1,43,44
 352 1439 352 1439 450 1472 c 128,-1,45
 548 1505 548 1505 673 1505 c 0,46,47
 787 1505 787 1505 887 1475.5 c 128,-1,48
 987 1446 987 1446 1066 1392 c 1,49,50
 1141 1335 1141 1335 1185 1240 c 128,-1,51
 1229 1145 1229 1145 1231 1017 c 1,52,-1
 1018 1017 l 1,53,54
 1009 1077 1009 1077 994 1124 c 128,-1,55
 979 1171 979 1171 957 1198 c 0,56,57
 873 1305 873 1305 667 1305 c 0,58,59
 586 1305 586 1305 526 1288 c 128,-1,60
 466 1271 466 1271 431 1236 c 1,61,62
 395 1202 395 1202 378 1162.5 c 128,-1,63
 361 1123 361 1123 361 1079 c 0,64,65
 361 1034 361 1034 382 998 c 128,-1,66
 403 962 403 962 440 939 c 1,67,-1
 439 939 l 1,68,69
 466 925 466 925 533.5 905.5 c 128,-1,70
 601 886 601 886 698 863 c 1,71,-1
 697 863 l 1,72,73
 723 857 723 857 754.5 850 c 128,-1,74
 786 843 786 843 815 836 c 0,75,76
 837 831 837 831 858 826.5 c 128,-1,77
 879 822 879 822 899 817 c 0,78,79
 969 800 969 800 1029 776 c 128,-1,80
 1089 752 1089 752 1130 723 c 1,81,82
 1200 669 1200 669 1236.5 593 c 128,-1,83
 1273 517 1273 517 1273 417 c 0,84,85
 1273 296 1273 296 1226 206.5 c 128,-1,86
 1179 117 1179 117 1091 63 c 1,87,88
 1006 15 1006 15 900 -13.5 c 128,-1,89
 794 -42 794 -42 680 -42 c 0,90,91
 543 -42 543 -42 435.5 -6 c 128,-1,92
 328 30 328 30 250 99 c 1,93,94
 175 168 175 168 135 267 c 128,-1,95
 95 366 95 366 96 494 c 1,96,-1
 309 494 l 1,0,1
EndSplineSet
Substitution2: "<17013,16013> Islamic Ornamental lookup 65 subtable" S
Substitution2: "<17010,16010> Urdu Swash lookup 62 subtable" S
EndChar

StartChar: T
Encoding: 84 84 55
Width: 1251
GlyphClass: 2
Flags: W
LayerCount: 2
Fore
SplineSet
1229 1467 m 1,0,-1
 1229 1240 l 1,1,-1
 756 1240 l 1,2,-1
 756 0 l 1,3,-1
 502 0 l 1,4,-1
 502 1240 l 1,5,-1
 29 1240 l 1,6,-1
 29 1467 l 1,7,-1
 1229 1467 l 1,0,-1
EndSplineSet
Substitution2: "<17013,16013> Islamic Ornamental lookup 65 subtable" T
Substitution2: "<17010,16010> Urdu Swash lookup 62 subtable" T
EndChar

StartChar: U
Encoding: 85 85 56
Width: 1479
GlyphClass: 2
Flags: W
LayerCount: 2
Fore
SplineSet
396 1468 m 1,0,-1
 396 564 l 2,1,2
 396 486 396 486 410.5 424 c 128,-1,3
 425 362 425 362 451 312 c 1,4,-1
 451 313 l 1,5,6
 495 241 495 241 565.5 202.5 c 128,-1,7
 636 164 636 164 732 164 c 0,8,9
 851 164 851 164 932 204.5 c 128,-1,10
 1013 245 1013 245 1056 323 c 1,11,12
 1078 367 1078 367 1089.5 426.5 c 128,-1,13
 1101 486 1101 486 1101 564 c 2,14,-1
 1101 1468 l 1,15,-1
 1330 1468 l 1,16,-1
 1330 645 l 2,17,18
 1330 512 1330 512 1311 409 c 128,-1,19
 1292 306 1292 306 1256 232 c 1,20,21
 1187 103 1187 103 1059 32.5 c 128,-1,22
 931 -38 931 -38 748 -38 c 0,23,24
 566 -38 566 -38 438 32.5 c 128,-1,25
 310 103 310 103 241 232 c 1,26,27
 205 306 205 306 186 409 c 128,-1,28
 167 512 167 512 167 645 c 2,29,-1
 167 1468 l 1,30,-1
 396 1468 l 1,0,-1
EndSplineSet
Substitution2: "<17013,16013> Islamic Ornamental lookup 65 subtable" U
Substitution2: "<17010,16010> Urdu Swash lookup 62 subtable" U
EndChar

StartChar: V
Encoding: 86 86 57
Width: 1366
GlyphClass: 2
Flags: W
LayerCount: 2
Fore
SplineSet
293 1468 m 1,0,-1
 694 277 l 1,1,2
 709 323 709 323 724 368.5 c 128,-1,3
 739 414 739 414 755 460 c 2,4,-1
 806 613 l 2,5,6
 817 645 817 645 827 676.5 c 128,-1,7
 837 708 837 708 848 740 c 0,8,9
 862 785 862 785 877.5 829.5 c 128,-1,10
 893 874 893 874 908 919 c 0,11,12
 925 971 925 971 944.5 1027.5 c 128,-1,13
 964 1084 964 1084 981 1136 c 0,14,15
 1008 1219 1008 1219 1036 1305 c 128,-1,16
 1064 1391 1064 1391 1090 1468 c 1,17,-1
 1341 1468 l 1,18,19
 1325 1426 1325 1426 1308.5 1379.5 c 128,-1,20
 1292 1333 1292 1333 1274.5 1286 c 128,-1,21
 1257 1239 1257 1239 1240.5 1192.5 c 128,-1,22
 1224 1146 1224 1146 1208 1103 c 0,23,24
 1174 1009 1174 1009 1139 913.5 c 128,-1,25
 1104 818 1104 818 1071 727 c 0,26,27
 1045 655 1045 655 1017.5 578.5 c 128,-1,28
 990 502 990 502 963 429 c 1,29,30
 949 388 949 388 934 348.5 c 128,-1,31
 919 309 919 309 905 269 c 0,32,33
 895 243 895 243 883.5 211 c 128,-1,34
 872 179 872 179 861 152 c 1,35,36
 848 116 848 116 833 75.5 c 128,-1,37
 818 35 818 35 806 0 c 1,38,-1
 579 0 l 1,39,40
 553 75 553 75 524 154 c 128,-1,41
 495 233 495 233 468 308 c 0,42,43
 430 414 430 414 391.5 518 c 128,-1,44
 353 622 353 622 315 727 c 0,45,46
 293 787 293 787 269.5 851 c 128,-1,47
 246 915 246 915 224 978 c 0,48,49
 203 1036 203 1036 180 1098.5 c 128,-1,50
 157 1161 157 1161 134 1224 c 128,-1,51
 111 1287 111 1287 88.5 1349 c 128,-1,52
 66 1411 66 1411 45 1468 c 1,53,-1
 293 1468 l 1,0,-1
EndSplineSet
Substitution2: "<17013,16013> Islamic Ornamental lookup 65 subtable" V
Substitution2: "<17010,16010> Urdu Swash lookup 62 subtable" V
EndChar

StartChar: W
Encoding: 87 87 58
Width: 1933
GlyphClass: 2
Flags: W
LayerCount: 2
Fore
SplineSet
281 1468 m 1,0,-1
 542 346 l 1,1,2
 552 381 552 381 560.5 414.5 c 128,-1,3
 569 448 569 448 579 483 c 0,4,5
 624 644 624 644 669.5 808 c 128,-1,6
 715 972 715 972 758 1127 c 0,7,8
 764 1148 764 1148 769.5 1168 c 128,-1,9
 775 1188 775 1188 781 1209 c 0,10,11
 787 1229 787 1229 792.5 1249.5 c 128,-1,12
 798 1270 798 1270 804 1290 c 0,13,14
 813 1323 813 1323 822.5 1358.5 c 128,-1,15
 832 1394 832 1394 842 1427 c 0,16,17
 844 1435 844 1435 847.5 1447.5 c 128,-1,18
 851 1460 851 1460 853 1468 c 1,19,-1
 1087 1468 l 1,20,-1
 1398 346 l 1,21,22
 1400 350 1400 350 1400.5 353.5 c 128,-1,23
 1401 357 1401 357 1403 360 c 1,24,25
 1405 368 1405 368 1406 375 c 128,-1,26
 1407 382 1407 382 1409 389 c 0,27,28
 1433 495 1433 495 1459 607.5 c 128,-1,29
 1485 720 1485 720 1512 835 c 0,30,31
 1530 912 1530 912 1549 994 c 128,-1,32
 1568 1076 1568 1076 1587 1158 c 128,-1,33
 1606 1240 1606 1240 1624.5 1319 c 128,-1,34
 1643 1398 1643 1398 1659 1468 c 1,35,-1
 1904 1468 l 1,36,37
 1900 1453 1900 1453 1894 1428 c 128,-1,38
 1888 1403 1888 1403 1883 1386 c 1,39,-1
 1884 1386 l 1,40,41
 1864 1313 1864 1313 1844.5 1238 c 128,-1,42
 1825 1163 1825 1163 1807 1093 c 0,43,44
 1782 999 1782 999 1757 902 c 1,45,-1
 1742 851 l 1,46,47
 1687 644 1687 644 1630.5 426 c 128,-1,48
 1574 208 1574 208 1520 0 c 1,49,-1
 1291 0 l 1,50,-1
 971 1152 l 1,51,-1
 935 1023 l 2,52,53
 922 978 922 978 909.5 933.5 c 128,-1,54
 897 889 897 889 885 844 c 0,55,56
 870 792 870 792 854.5 736.5 c 128,-1,57
 839 681 839 681 824 629 c 0,58,59
 804 555 804 555 781.5 473.5 c 128,-1,60
 759 392 759 392 736 310 c 128,-1,61
 713 228 713 228 691 149 c 128,-1,62
 669 70 669 70 649 0 c 1,63,-1
 421 0 l 1,64,-1
 328 353 l 2,65,66
 312 414 312 414 297 476 c 128,-1,67
 282 538 282 538 265 601 c 0,68,69
 262 613 262 613 258 625 c 128,-1,70
 254 637 254 637 251 648 c 1,71,-1
 252 648 l 1,72,73
 246 671 246 671 239.5 693 c 128,-1,74
 233 715 233 715 228 738 c 0,75,76
 206 824 206 824 181 918.5 c 128,-1,77
 156 1013 156 1013 131.5 1108.5 c 128,-1,78
 107 1204 107 1204 83 1295.5 c 128,-1,79
 59 1387 59 1387 38 1468 c 1,80,-1
 281 1468 l 1,0,-1
EndSplineSet
Substitution2: "<17013,16013> Islamic Ornamental lookup 65 subtable" W
Substitution2: "<17010,16010> Urdu Swash lookup 62 subtable" W
EndChar

StartChar: X
Encoding: 88 88 59
Width: 1366
GlyphClass: 2
Flags: W
LayerCount: 2
Fore
SplineSet
299 0 m 1,0,-1
 26 0 l 1,1,-1
 551 753 l 1,2,3
 536 776 536 776 520.5 798.5 c 128,-1,4
 505 821 505 821 489 843 c 0,5,6
 438 917 438 917 382.5 998 c 128,-1,7
 327 1079 327 1079 271 1160 c 128,-1,8
 215 1241 215 1241 161 1320 c 128,-1,9
 107 1399 107 1399 59 1468 c 1,10,-1
 341 1468 l 1,11,-1
 699 931 l 1,12,13
 737 989 737 989 780.5 1054 c 128,-1,14
 824 1119 824 1119 863 1179 c 0,15,16
 928 1277 928 1277 993 1374 c 1,17,18
 1007 1397 1007 1397 1023.5 1422 c 128,-1,19
 1040 1447 1040 1447 1054 1468 c 1,20,-1
 1325 1468 l 1,21,-1
 832 751 l 1,22,23
 891 665 891 665 957 569 c 128,-1,24
 1023 473 1023 473 1090 375 c 128,-1,25
 1157 277 1157 277 1223 181.5 c 128,-1,26
 1289 86 1289 86 1348 0 c 1,27,-1
 1067 0 l 1,28,-1
 688 580 l 1,29,-1
 299 0 l 1,0,-1
EndSplineSet
Substitution2: "<17013,16013> Islamic Ornamental lookup 65 subtable" X
Substitution2: "<17010,16010> Urdu Swash lookup 62 subtable" X
EndChar

StartChar: Y
Encoding: 89 89 60
Width: 1366
GlyphClass: 2
Flags: W
LayerCount: 2
Fore
SplineSet
29 1468 m 1,0,-1
 293 1468 l 1,1,-1
 696 793 l 1,2,3
 710 817 710 817 722.5 838 c 128,-1,4
 735 859 735 859 749 882 c 2,5,-1
 814 990 l 2,6,7
 831 1018 831 1018 849 1048.5 c 128,-1,8
 867 1079 867 1079 883 1107 c 1,9,10
 897 1129 897 1129 909 1150.5 c 128,-1,11
 921 1172 921 1172 935 1194 c 256,12,13
 949 1216 949 1216 961 1237.5 c 128,-1,14
 973 1259 973 1259 987 1280 c 1,15,16
 1006 1312 1006 1312 1027.5 1347.5 c 128,-1,17
 1049 1383 1049 1383 1068 1416 c 1,18,-1
 1068 1415 l 1,19,20
 1075 1427 1075 1427 1083.5 1442 c 128,-1,21
 1092 1457 1092 1457 1099 1468 c 1,22,-1
 1365 1468 l 1,23,-1
 810 589 l 1,24,-1
 810 0 l 1,25,-1
 583 0 l 1,26,-1
 583 589 l 1,27,-1
 29 1468 l 1,0,-1
EndSplineSet
Substitution2: "<17013,16013> Islamic Ornamental lookup 65 subtable" Y
Substitution2: "<17010,16010> Urdu Swash lookup 62 subtable" Y
EndChar

StartChar: Z
Encoding: 90 90 61
Width: 1251
GlyphClass: 2
Flags: W
LayerCount: 2
Fore
SplineSet
44 183 m 1,0,-1
 909 1266 l 1,1,-1
 109 1266 l 1,2,-1
 109 1468 l 1,3,-1
 1207 1468 l 1,4,-1
 1207 1279 l 1,5,-1
 339 203 l 1,6,-1
 1207 203 l 1,7,-1
 1207 0 l 1,8,-1
 44 0 l 1,9,-1
 44 183 l 1,0,-1
EndSplineSet
Substitution2: "<17013,16013> Islamic Ornamental lookup 65 subtable" Z
Substitution2: "<17010,16010> Urdu Swash lookup 62 subtable" Z
EndChar

StartChar: bracketleft
Encoding: 91 91 62
Width: 736
GlyphClass: 2
Flags: W
LayerCount: 2
Fore
SplineSet
82 1477 m 1,0,-1
 504 1477 l 1,1,-1
 504 1285 l 1,2,-1
 297 1285 l 1,3,-1
 297 -197 l 1,4,-1
 504 -197 l 1,5,-1
 504 -388 l 1,6,-1
 82 -388 l 1,7,-1
 82 1477 l 1,0,-1
EndSplineSet
Substitution2: "<17013,16013> Islamic Ornamental lookup 65 subtable" bracketleft
Substitution2: "<17010,16010> Urdu Swash lookup 62 subtable" bracketleft
EndChar

StartChar: backslash
Encoding: 92 92 63
Width: 569
GlyphClass: 2
Flags: W
LayerCount: 2
Fore
SplineSet
102 1468 m 1,0,1
 145 1359 145 1359 189.5 1245 c 128,-1,2
 234 1131 234 1131 276 1020 c 1,3,4
 303 953 303 953 330.5 881.5 c 128,-1,5
 358 810 358 810 384 743 c 1,6,-1
 384 744 l 1,7,8
 399 707 399 707 414 667.5 c 128,-1,9
 429 628 429 628 445 588 c 0,10,11
 460 548 460 548 475.5 509 c 128,-1,12
 491 470 491 470 505 432 c 0,13,14
 519 395 519 395 535 355.5 c 128,-1,15
 551 316 551 316 565 277 c 1,16,17
 578 245 578 245 592 209 c 128,-1,18
 606 173 606 173 620.5 136.5 c 128,-1,19
 635 100 635 100 648 65 c 128,-1,20
 661 30 661 30 673 0 c 1,21,-1
 487 0 l 1,22,23
 449 100 449 100 407 207 c 128,-1,24
 365 314 365 314 325 414 c 1,25,-1
 205 726 l 2,26,27
 179 794 179 794 150.5 866 c 128,-1,28
 122 938 122 938 95 1008 c 0,29,30
 52 1120 52 1120 5.5 1239.5 c 128,-1,31
 -41 1359 -41 1359 -84 1468 c 1,32,-1
 102 1468 l 1,0,1
EndSplineSet
Substitution2: "<17013,16013> Islamic Ornamental lookup 65 subtable" backslash
Substitution2: "<17010,16010> Urdu Swash lookup 62 subtable" backslash
EndChar

StartChar: bracketright
Encoding: 93 93 64
Width: 736
GlyphClass: 2
Flags: W
LayerCount: 2
Fore
SplineSet
82 -197 m 1,0,-1
 288 -197 l 1,1,-1
 288 1285 l 1,2,-1
 82 1285 l 1,3,-1
 82 1477 l 1,4,-1
 504 1477 l 1,5,-1
 504 -388 l 1,6,-1
 82 -388 l 1,7,-1
 82 -197 l 1,0,-1
EndSplineSet
Substitution2: "<17013,16013> Islamic Ornamental lookup 65 subtable" bracketright
Substitution2: "<17010,16010> Urdu Swash lookup 62 subtable" bracketright
EndChar

StartChar: asciicircum
Encoding: 94 94 65
Width: 961
GlyphClass: 2
Flags: W
LayerCount: 2
Fore
SplineSet
565 1468 m 1,0,1
 587 1416 587 1416 611.5 1356.5 c 128,-1,2
 636 1297 636 1297 658 1244 c 0,3,4
 660 1239 660 1239 661.5 1234.5 c 128,-1,5
 663 1230 663 1230 665 1225 c 1,6,-1
 665 1226 l 1,7,8
 684 1183 684 1183 702 1134 c 1,9,10
 712 1111 712 1111 721.5 1087.5 c 128,-1,11
 731 1064 731 1064 740 1040 c 1,12,-1
 740 1041 l 1,13,14
 761 990 761 990 784 933 c 128,-1,15
 807 876 807 876 831 818 c 128,-1,16
 855 760 855 760 878 703 c 128,-1,17
 901 646 901 646 922 594 c 1,18,-1
 730 594 l 1,19,-1
 480 1214 l 1,20,21
 462 1169 462 1169 444.5 1125 c 128,-1,22
 427 1081 427 1081 408 1035 c 1,23,-1
 408 1036 l 1,24,25
 402 1019 402 1019 395 1002.5 c 128,-1,26
 388 986 388 986 381 969 c 0,27,28
 367 937 367 937 355.5 905.5 c 128,-1,29
 344 874 344 874 331 843 c 0,30,31
 320 816 320 816 309 789 c 128,-1,32
 298 762 298 762 287 736 c 0,33,34
 278 715 278 715 269.5 691.5 c 128,-1,35
 261 668 261 668 252 645 c 0,36,37
 247 634 247 634 241 619 c 128,-1,38
 235 604 235 604 231 594 c 1,39,-1
 37 594 l 1,40,41
 43 609 43 609 51 628 c 128,-1,42
 59 647 59 647 67.5 667 c 128,-1,43
 76 687 76 687 84 707 c 128,-1,44
 92 727 92 727 99 743 c 0,45,46
 113 777 113 777 125.5 809.5 c 128,-1,47
 138 842 138 842 151 872 c 0,48,49
 162 896 162 896 171 921.5 c 128,-1,50
 180 947 180 947 191 972 c 256,51,52
 202 997 202 997 211 1021 c 128,-1,53
 220 1045 220 1045 230 1071 c 0,54,55
 247 1111 247 1111 263.5 1152 c 128,-1,56
 280 1193 280 1193 297 1235 c 0,57,58
 308 1262 308 1262 319.5 1290.5 c 128,-1,59
 331 1319 331 1319 343 1348 c 256,60,61
 355 1377 355 1377 368 1409 c 128,-1,62
 381 1441 381 1441 392 1468 c 1,63,-1
 565 1468 l 1,0,1
EndSplineSet
Substitution2: "<17013,16013> Islamic Ornamental lookup 65 subtable" asciicircum
Substitution2: "<17010,16010> Urdu Swash lookup 62 subtable" asciicircum
EndChar

StartChar: underscore
Encoding: 95 95 66
Width: 1139
GlyphClass: 2
Flags: W
LayerCount: 2
Fore
SplineSet
-3 -251 m 1,0,-1
 -3 -120 l 1,1,-1
 1142 -120 l 1,2,-1
 1142 -251 l 1,3,-1
 -3 -251 l 1,0,-1
EndSplineSet
Substitution2: "<17013,16013> Islamic Ornamental lookup 65 subtable" underscore
Substitution2: "<17010,16010> Urdu Swash lookup 62 subtable" underscore
EndChar

StartChar: grave
Encoding: 96 96 67
Width: 682
GlyphClass: 2
Flags: W
LayerCount: 2
Fore
SplineSet
488 1186 m 1,0,-1
 318 1186 l 1,1,2
 302 1203 302 1203 284 1222 c 128,-1,3
 266 1241 266 1241 251 1258 c 0,4,5
 241 1268 241 1268 231.5 1279 c 128,-1,6
 222 1290 222 1290 211 1301 c 0,7,8
 198 1314 198 1314 186 1327.5 c 128,-1,9
 174 1341 174 1341 161 1355 c 0,10,11
 149 1368 149 1368 130.5 1387.5 c 128,-1,12
 112 1407 112 1407 92.5 1428 c 128,-1,13
 73 1449 73 1449 55 1468.5 c 128,-1,14
 37 1488 37 1488 25 1501 c 1,15,-1
 290 1501 l 1,16,-1
 488 1186 l 1,0,-1
EndSplineSet
Substitution2: "<17013,16013> Islamic Ornamental lookup 65 subtable" grave
Substitution2: "<17010,16010> Urdu Swash lookup 62 subtable" grave
EndChar

StartChar: a
Encoding: 97 97 68
Width: 1139
GlyphClass: 2
Flags: W
LayerCount: 2
Fore
SplineSet
465 145 m 0,0,1
 507 145 507 145 553 157 c 128,-1,2
 599 169 599 169 638 187 c 1,3,4
 701 222 701 222 738.5 278 c 128,-1,5
 776 334 776 334 776 406 c 2,6,-1
 776 524 l 1,7,8
 738 507 738 507 693.5 495.5 c 128,-1,9
 649 484 649 484 611 479 c 2,10,-1
 504 465 l 1,11,12
 463 458 463 458 425 449 c 128,-1,13
 387 440 387 440 367 428 c 0,14,15
 334 407 334 407 312.5 373 c 128,-1,16
 291 339 291 339 291 295 c 0,17,18
 291 262 291 262 304.5 234.5 c 128,-1,19
 318 207 318 207 342 187 c 1,20,21
 368 168 368 168 399 156.5 c 128,-1,22
 430 145 430 145 465 145 c 0,0,1
702 666 m 2,23,24
 724 668 724 668 742 680.5 c 128,-1,25
 760 693 760 693 771 709 c 1,26,27
 781 734 781 734 781 769 c 0,28,29
 781 852 781 852 721 888.5 c 128,-1,30
 661 925 661 925 549 925 c 0,31,32
 486 925 486 925 438.5 906 c 128,-1,33
 391 887 391 887 364 855 c 1,34,-1
 365 856 l 1,35,36
 353 840 353 840 342.5 806 c 128,-1,37
 332 772 332 772 325 729 c 1,38,-1
 132 729 l 1,39,40
 135 843 135 843 168 915 c 128,-1,41
 201 987 201 987 263 1027 c 1,42,43
 327 1065 327 1065 398 1084.5 c 128,-1,44
 469 1104 469 1104 553 1104 c 0,45,46
 647 1104 647 1104 724.5 1085.5 c 128,-1,47
 802 1067 802 1067 862 1032 c 1,48,49
 983 956 983 956 983 799 c 2,50,-1
 983 195 l 2,51,52
 983 175 983 175 991.5 162.5 c 128,-1,53
 1000 150 1000 150 1026 150 c 0,54,55
 1034 150 1034 150 1050 152.5 c 128,-1,56
 1066 155 1066 155 1099 162 c 1,57,-1
 1099 1 l 1,58,59
 1073 -9 1073 -9 1053.5 -14 c 128,-1,60
 1034 -19 1034 -19 1023 -20 c 0,61,62
 1012 -22 1012 -22 995.5 -22.5 c 128,-1,63
 979 -23 979 -23 962 -23 c 0,64,65
 916 -23 916 -23 878.5 -3 c 128,-1,66
 841 17 841 17 819 47 c 0,67,68
 809 60 809 60 802.5 78 c 128,-1,69
 796 96 796 96 791 121 c 1,70,71
 762 92 762 92 726 65.5 c 128,-1,72
 690 39 690 39 652 19 c 1,73,74
 599 -7 599 -7 541.5 -21 c 128,-1,75
 484 -35 484 -35 423 -35 c 0,76,77
 350 -35 350 -35 285.5 -11 c 128,-1,78
 221 13 221 13 175 57 c 0,79,80
 127 104 127 104 102.5 162.5 c 128,-1,81
 78 221 78 221 78 291 c 0,82,83
 78 366 78 366 102.5 425.5 c 128,-1,84
 127 485 127 485 174 528 c 1,85,86
 219 567 219 567 283 593 c 128,-1,87
 347 619 347 619 421 630 c 1,88,-1
 702 666 l 2,23,24
EndSplineSet
Substitution2: "<17013,16013> Islamic Ornamental lookup 65 subtable" a
Substitution2: "<17010,16010> Urdu Swash lookup 62 subtable" a
EndChar

StartChar: b
Encoding: 98 98 69
Width: 1139
GlyphClass: 2
Flags: W
LayerCount: 2
Fore
SplineSet
855 550 m 0,0,1
 855 714 855 714 787 816 c 1,2,3
 721 918 721 918 591 918 c 0,4,5
 480 918 480 918 390 833 c 1,6,-1
 391 833 l 1,7,8
 305 747 305 747 305 550 c 0,9,10
 305 481 305 481 315 421.5 c 128,-1,11
 325 362 325 362 340 318 c 1,12,13
 358 287 358 287 384.5 257 c 128,-1,14
 411 227 411 227 443 204 c 128,-1,15
 475 181 475 181 511.5 167 c 128,-1,16
 548 153 548 153 586 153 c 0,17,18
 719 153 719 153 786 261 c 0,19,20
 821 316 821 316 838 387.5 c 128,-1,21
 855 459 855 459 855 550 c 0,0,1
113 1473 m 1,22,-1
 315 1473 l 1,23,-1
 315 977 l 1,24,25
 443 1106 443 1106 612 1106 c 0,26,27
 814 1106 814 1106 941 967 c 1,28,29
 1066 828 1066 828 1066 559 c 0,30,31
 1066 434 1066 434 1034 328 c 128,-1,32
 1002 222 1002 222 944 137 c 1,33,34
 881 53 881 53 794 10 c 128,-1,35
 707 -33 707 -33 597 -33 c 0,36,37
 536 -33 536 -33 482.5 -17.5 c 128,-1,38
 429 -2 429 -2 386 27 c 1,39,-1
 385 27 l 1,40,41
 354 48 354 48 306 105 c 1,42,-1
 306 0 l 1,43,-1
 113 0 l 1,44,-1
 113 1473 l 1,22,-1
EndSplineSet
Substitution2: "<17013,16013> Islamic Ornamental lookup 65 subtable" b
Substitution2: "<17010,16010> Urdu Swash lookup 62 subtable" b
EndChar

StartChar: c
Encoding: 99 99 70
AltUni2: 00217d.ffffffff.0
Width: 1024
GlyphClass: 2
Flags: W
LayerCount: 2
Fore
SplineSet
781 695 m 1,0,1
 760 808 760 808 713 862 c 0,2,3
 689 891 689 891 646 906 c 128,-1,4
 603 921 603 921 544 921 c 0,5,6
 469 921 469 921 410.5 878.5 c 128,-1,7
 352 836 352 836 317 765 c 1,8,-1
 318 766 l 1,9,10
 298 715 298 715 285 646.5 c 128,-1,11
 272 578 272 578 272 508 c 0,12,13
 272 431 272 431 287.5 367.5 c 128,-1,14
 303 304 303 304 336 253 c 1,15,16
 398 151 398 151 533 151 c 0,17,18
 635 151 635 151 696 217.5 c 128,-1,19
 757 284 757 284 782 402 c 1,20,-1
 985 402 l 1,21,22
 968 286 968 286 928 202 c 128,-1,23
 888 118 888 118 830 70 c 0,24,25
 711 -30 711 -30 519 -30 c 0,26,27
 414 -30 414 -30 328 10 c 128,-1,28
 242 50 242 50 179 125 c 1,29,30
 119 203 119 203 86.5 300.5 c 128,-1,31
 54 398 54 398 54 510 c 0,32,33
 54 792 54 792 192 951 c 1,34,35
 326 1109 326 1109 544 1109 c 0,36,37
 635 1109 635 1109 710.5 1086 c 128,-1,38
 786 1063 786 1063 843 1021 c 1,39,40
 896 977 896 977 932.5 894 c 128,-1,41
 969 811 969 811 983 695 c 1,42,-1
 781 695 l 1,0,1
EndSplineSet
Substitution2: "<17013,16013> Islamic Ornamental lookup 65 subtable" c
Substitution2: "<17010,16010> Urdu Swash lookup 62 subtable" c
EndChar

StartChar: d
Encoding: 100 100 71
AltUni2: 00217e.ffffffff.0
Width: 1139
GlyphClass: 2
Flags: W
LayerCount: 2
Fore
SplineSet
553 147 m 0,0,1
 668 147 668 147 741 247 c 1,2,3
 818 348 818 348 818 539 c 0,4,5
 818 729 818 729 740 822 c 0,6,7
 702 868 702 868 654 890.5 c 128,-1,8
 606 913 606 913 551 913 c 0,9,10
 425 913 425 913 347 817 c 0,11,12
 267 719 267 719 267 527 c 0,13,14
 267 365 267 365 337 255 c 1,15,16
 371 204 371 204 426 175.5 c 128,-1,17
 481 147 481 147 553 147 c 0,0,1
728 1045 m 0,18,19
 745 1034 745 1034 764.5 1017.5 c 128,-1,20
 784 1001 784 1001 810 972 c 1,21,-1
 810 1473 l 1,22,-1
 1010 1473 l 1,23,-1
 1010 0 l 1,24,-1
 822 0 l 1,25,-1
 822 116 l 1,26,27
 754 33 754 33 675 -2 c 128,-1,28
 596 -37 596 -37 498 -37 c 0,29,30
 406 -37 406 -37 327 2 c 128,-1,31
 248 41 248 41 182 116 c 1,32,33
 120 191 120 191 85.5 292.5 c 128,-1,34
 51 394 51 394 51 517 c 0,35,36
 51 751 51 751 170 924 c 1,37,38
 291 1097 291 1097 517 1097 c 0,39,40
 645 1097 645 1097 728 1045 c 0,18,19
EndSplineSet
Substitution2: "<17013,16013> Islamic Ornamental lookup 65 subtable" d
Substitution2: "<17010,16010> Urdu Swash lookup 62 subtable" d
EndChar

StartChar: e
Encoding: 101 101 72
Width: 1139
GlyphClass: 2
Flags: W
LayerCount: 2
Fore
SplineSet
841 639 m 1,0,1
 834 690 834 690 822.5 730 c 128,-1,2
 811 770 811 770 795 799 c 1,3,4
 760 856 760 856 702 887 c 128,-1,5
 644 918 644 918 567 918 c 0,6,7
 513 918 513 918 463.5 894.5 c 128,-1,8
 414 871 414 871 376 835 c 1,9,10
 346 798 346 798 322.5 746.5 c 128,-1,11
 299 695 299 695 293 639 c 1,12,-1
 841 639 l 1,0,1
1040 712 m 1,13,14
 1047 679 1047 679 1051 618 c 128,-1,15
 1055 557 1055 557 1055 467 c 1,16,-1
 288 467 l 1,17,18
 293 396 293 396 310.5 337.5 c 128,-1,19
 328 279 328 279 359 237 c 0,20,21
 424 146 424 146 565 146 c 0,22,23
 630 146 630 146 682.5 168.5 c 128,-1,24
 735 191 735 191 773 233 c 1,25,-1
 772 233 l 1,26,27
 792 257 792 257 810.5 289.5 c 128,-1,28
 829 322 829 322 840 359 c 1,29,-1
 1044 359 l 1,30,31
 1037 319 1037 319 1023.5 280 c 128,-1,32
 1010 241 1010 241 992 209 c 0,33,34
 972 173 972 173 950 142 c 128,-1,35
 928 111 928 111 904 88 c 0,36,37
 865 50 865 50 811 22.5 c 128,-1,38
 757 -5 757 -5 699 -22 c 1,39,40
 636 -37 636 -37 550 -37 c 0,41,42
 347 -37 347 -37 206 110 c 1,43,44
 67 258 67 258 67 519 c 0,45,46
 67 650 67 650 102 754 c 128,-1,47
 137 858 137 858 207 940 c 1,48,49
 349 1102 349 1102 578 1102 c 0,50,51
 635 1102 635 1102 691.5 1087.5 c 128,-1,52
 748 1073 748 1073 802 1047 c 1,53,54
 853 1021 853 1021 897 985.5 c 128,-1,55
 941 950 941 950 967 908 c 1,56,-1
 1040 712 l 1,13,14
EndSplineSet
Substitution2: "<17013,16013> Islamic Ornamental lookup 65 subtable" e
Substitution2: "<17010,16010> Urdu Swash lookup 62 subtable" e
EndChar

StartChar: f
Encoding: 102 102 73
Width: 569
GlyphClass: 2
Flags: W
LayerCount: 2
Fore
SplineSet
454 1489 m 1,0,1
 461 1489 461 1489 472.5 1488.5 c 128,-1,2
 484 1488 484 1488 497 1487.5 c 128,-1,3
 510 1487 510 1487 522.5 1486 c 128,-1,4
 535 1485 535 1485 544 1484 c 1,5,-1
 544 1293 l 1,6,7
 524 1295 524 1295 503 1296 c 128,-1,8
 482 1297 482 1297 475 1297 c 2,9,-1
 467 1297 l 2,10,11
 432 1297 432 1297 413 1288 c 128,-1,12
 394 1279 394 1279 386 1264 c 1,13,14
 383 1256 383 1256 380.5 1238 c 128,-1,15
 378 1220 378 1220 376 1194.5 c 128,-1,16
 374 1169 374 1169 372.5 1138.5 c 128,-1,17
 371 1108 371 1108 371 1075 c 1,18,-1
 544 1075 l 1,19,-1
 544 904 l 1,20,-1
 369 904 l 1,21,-1
 369 0 l 1,22,-1
 163 0 l 1,23,-1
 163 904 l 1,24,-1
 18 904 l 1,25,-1
 18 1075 l 1,26,-1
 163 1075 l 1,27,-1
 163 1223 l 1,28,29
 167 1337 167 1337 211 1403 c 1,30,-1
 454 1489 l 1,0,1
EndSplineSet
Substitution2: "<17013,16013> Islamic Ornamental lookup 65 subtable" f
Substitution2: "<17010,16010> Urdu Swash lookup 62 subtable" f
EndChar

StartChar: g
Encoding: 103 103 74
Width: 1139
GlyphClass: 2
Flags: W
LayerCount: 2
Fore
SplineSet
543 911 m 0,0,1
 459 911 459 911 398 865.5 c 128,-1,2
 337 820 337 820 302 747 c 1,3,-1
 302 748 l 1,4,5
 287 703 287 703 277.5 640.5 c 128,-1,6
 268 578 268 578 268 508 c 0,7,8
 268 338 268 338 335 250.5 c 128,-1,9
 402 163 402 163 517 163 c 0,10,11
 604 163 604 163 668.5 204.5 c 128,-1,12
 733 246 733 246 770 324 c 1,13,-1
 770 323 l 1,14,15
 787 368 787 368 799.5 427 c 128,-1,16
 812 486 812 486 812 544 c 0,17,18
 812 733 812 733 736 822 c 256,19,20
 660 911 660 911 543 911 c 0,0,1
812 956 m 1,21,-1
 812 1070 l 1,22,-1
 1005 1070 l 1,23,-1
 1005 101 l 2,24,25
 1005 1 1005 1 989.5 -80.5 c 128,-1,26
 974 -162 974 -162 945 -221 c 1,27,28
 887 -327 887 -327 779.5 -385 c 128,-1,29
 672 -443 672 -443 517 -443 c 0,30,31
 432 -443 432 -443 357 -422 c 128,-1,32
 282 -401 282 -401 223 -364 c 1,33,34
 166 -326 166 -326 130.5 -260.5 c 128,-1,35
 95 -195 95 -195 86 -99 c 1,36,-1
 295 -99 l 1,37,38
 310 -178 310 -178 344 -213 c 1,39,40
 401 -267 401 -267 521 -267 c 0,41,42
 714 -267 714 -267 772 -133 c 0,43,44
 803 -61 803 -61 805 117 c 1,45,46
 753 56 753 56 700 28 c 1,47,48
 662 10 662 10 609.5 -1.5 c 128,-1,49
 557 -13 557 -13 497 -13 c 0,50,51
 318 -13 318 -13 187 112 c 1,52,53
 57 238 57 238 57 523 c 0,54,55
 57 654 57 654 91 761 c 128,-1,56
 125 868 125 868 188 945 c 1,57,58
 323 1097 323 1097 510 1097 c 0,59,60
 576 1097 576 1097 632 1080.5 c 128,-1,61
 688 1064 688 1064 741 1031 c 1,62,-1
 812 956 l 1,21,-1
EndSplineSet
Substitution2: "<17013,16013> Islamic Ornamental lookup 65 subtable" g
Substitution2: "<17010,16010> Urdu Swash lookup 62 subtable" g
EndChar

StartChar: h
Encoding: 104 104 75
Width: 1139
GlyphClass: 2
Flags: W
LayerCount: 2
Fore
SplineSet
126 1473 m 1,0,-1
 333 1473 l 1,1,-1
 333 965 l 1,2,3
 357 991 357 991 380.5 1013 c 128,-1,4
 404 1035 404 1035 421 1046 c 0,5,6
 465 1073 465 1073 521 1088.5 c 128,-1,7
 577 1104 577 1104 642 1104 c 0,8,9
 879 1104 879 1104 965 936 c 0,10,11
 1011 846 1011 846 1011 688 c 2,12,-1
 1011 0 l 1,13,-1
 799 0 l 1,14,-1
 799 676 l 2,15,16
 799 787 799 787 772 838 c 1,17,-1
 772 837 l 1,18,19
 749 875 749 875 707 895.5 c 128,-1,20
 665 916 665 916 605 916 c 0,21,22
 501 916 501 916 417 844 c 1,23,24
 333 776 333 776 333 571 c 2,25,-1
 333 0 l 1,26,-1
 126 0 l 1,27,-1
 126 1473 l 1,0,-1
EndSplineSet
Substitution2: "<17013,16013> Islamic Ornamental lookup 65 subtable" h
Substitution2: "<17010,16010> Urdu Swash lookup 62 subtable" h
EndChar

StartChar: i
Encoding: 105 105 76
Width: 455
GlyphClass: 2
Flags: W
LayerCount: 2
Fore
SplineSet
118 1468 m 1,0,-1
 329 1468 l 1,1,-1
 329 1237 l 1,2,-1
 118 1237 l 1,3,-1
 118 1468 l 1,0,-1
118 1075 m 1,4,-1
 329 1075 l 1,5,-1
 329 0 l 1,6,-1
 118 0 l 1,7,-1
 118 1075 l 1,4,-1
EndSplineSet
Substitution2: "<17013,16013> Islamic Ornamental lookup 65 subtable" i
Substitution2: "<17010,16010> Urdu Swash lookup 62 subtable" i
EndChar

StartChar: j
Encoding: 106 106 77
Width: 455
GlyphClass: 2
Flags: W
LayerCount: 2
Fore
SplineSet
324 1233 m 1,0,-1
 116 1233 l 1,1,-1
 116 1468 l 1,2,-1
 324 1468 l 1,3,-1
 324 1233 l 1,0,-1
-50 -235 m 1,4,5
 15 -233 15 -233 52 -227 c 128,-1,6
 89 -221 89 -221 99 -215 c 1,7,8
 107 -209 107 -209 111.5 -184.5 c 128,-1,9
 116 -160 116 -160 116 -121 c 2,10,-1
 116 1075 l 1,11,-1
 324 1075 l 1,12,-1
 324 -140 l 2,13,14
 324 -200 324 -200 314 -246 c 128,-1,15
 304 -292 304 -292 286 -321 c 1,16,17
 254 -369 254 -369 192 -395.5 c 128,-1,18
 130 -422 130 -422 37 -422 c 0,19,20
 23 -422 23 -422 5 -421 c 128,-1,21
 -13 -420 -13 -420 -50 -416 c 1,22,-1
 -50 -235 l 1,4,5
EndSplineSet
Substitution2: "<17013,16013> Islamic Ornamental lookup 65 subtable" j
Substitution2: "<17010,16010> Urdu Swash lookup 62 subtable" j
EndChar

StartChar: k
Encoding: 107 107 78
Width: 1024
GlyphClass: 2
Flags: W
LayerCount: 2
Fore
SplineSet
123 1468 m 1,0,-1
 322 1468 l 1,1,-1
 322 655 l 1,2,3
 339 672 339 672 356.5 689 c 128,-1,4
 374 706 374 706 391 723 c 0,5,6
 402 733 402 733 411 742.5 c 128,-1,7
 420 752 420 752 431 763 c 0,8,9
 451 783 451 783 471.5 802.5 c 128,-1,10
 492 822 492 822 513 842 c 1,11,-1
 512 842 l 1,12,-1
 590 920 l 1,13,-1
 590 919 l 1,14,15
 620 950 620 950 651.5 981 c 128,-1,16
 683 1012 683 1012 713 1041 c 1,17,-1
 712 1041 l 1,18,19
 721 1050 721 1050 732.5 1060.5 c 128,-1,20
 744 1071 744 1071 752 1079 c 1,21,-1
 1022 1079 l 1,22,-1
 603 668 l 1,23,24
 627 632 627 632 651 595.5 c 128,-1,25
 675 559 675 559 700 521 c 0,26,27
 727 480 727 480 752.5 440.5 c 128,-1,28
 778 401 778 401 802 363 c 0,29,30
 817 340 817 340 831.5 318 c 128,-1,31
 846 296 846 296 860 273 c 1,32,33
 880 243 880 243 899 213 c 128,-1,34
 918 183 918 183 937 153 c 1,35,-1
 936 153 l 1,36,37
 947 137 947 137 959 119 c 128,-1,38
 971 101 971 101 983 81 c 0,39,40
 988 73 988 73 995 62 c 128,-1,41
 1002 51 1002 51 1009.5 39 c 128,-1,42
 1017 27 1017 27 1023.5 16.5 c 128,-1,43
 1030 6 1030 6 1034 0 c 1,44,-1
 772 0 l 1,45,-1
 451 519 l 1,46,47
 437 506 437 506 422.5 493.5 c 128,-1,48
 408 481 408 481 394 467 c 1,49,50
 382 457 382 457 370 445.5 c 128,-1,51
 358 434 358 434 345 422 c 0,52,53
 337 415 337 415 333 410.5 c 128,-1,54
 329 406 329 406 322 401 c 1,55,-1
 322 0 l 1,56,-1
 123 0 l 1,57,-1
 123 1468 l 1,0,-1
EndSplineSet
Substitution2: "<17013,16013> Islamic Ornamental lookup 65 subtable" k
Substitution2: "<17010,16010> Urdu Swash lookup 62 subtable" k
EndChar

StartChar: l
Encoding: 108 108 79
AltUni2: 00217c.ffffffff.0
Width: 455
GlyphClass: 2
Flags: W
LayerCount: 2
Fore
SplineSet
123 1468 m 1,0,-1
 331 1468 l 1,1,-1
 331 0 l 1,2,-1
 123 0 l 1,3,-1
 123 1468 l 1,0,-1
EndSplineSet
Substitution2: "<17013,16013> Islamic Ornamental lookup 65 subtable" l
Substitution2: "<17010,16010> Urdu Swash lookup 62 subtable" l
EndChar

StartChar: m
Encoding: 109 109 80
AltUni2: 00217f.ffffffff.0
Width: 1706
GlyphClass: 2
Flags: W
LayerCount: 2
Fore
SplineSet
132 1079 m 1,0,-1
 338 1079 l 1,1,-1
 338 957 l 1,2,3
 362 983 362 983 384.5 1005.5 c 128,-1,4
 407 1028 407 1028 427 1040 c 1,5,6
 472 1070 472 1070 524 1086 c 128,-1,7
 576 1102 576 1102 633 1102 c 0,8,9
 696 1102 696 1102 750 1085 c 128,-1,10
 804 1068 804 1068 844 1039 c 1,11,12
 878 1011 878 1011 915 949 c 1,13,14
 978 1025 978 1025 1057 1063.5 c 128,-1,15
 1136 1102 1136 1102 1228 1102 c 0,16,17
 1338 1102 1338 1102 1413.5 1060.5 c 128,-1,18
 1489 1019 1489 1019 1531 942 c 1,19,20
 1551 900 1551 900 1562 842.5 c 128,-1,21
 1573 785 1573 785 1573 713 c 2,22,-1
 1573 0 l 1,23,-1
 1359 0 l 1,24,-1
 1359 743 l 2,25,26
 1359 788 1359 788 1345 822.5 c 128,-1,27
 1331 857 1331 857 1310 877 c 1,28,29
 1287 891 1287 891 1255.5 901 c 128,-1,30
 1224 911 1224 911 1195 911 c 0,31,32
 1147 911 1147 911 1104 893 c 128,-1,33
 1061 875 1061 875 1026 845 c 1,34,35
 993 812 993 812 975 756.5 c 128,-1,36
 957 701 957 701 957 625 c 2,37,-1
 957 0 l 1,38,-1
 746 0 l 1,39,-1
 746 699 l 2,40,41
 746 749 746 749 739.5 787 c 128,-1,42
 733 825 733 825 723 848 c 1,43,44
 704 878 704 878 670 895.5 c 128,-1,45
 636 913 636 913 587 913 c 0,46,47
 544 913 544 913 499 893 c 128,-1,48
 454 873 454 873 415 839 c 1,49,-1
 416 839 l 1,50,51
 379 802 379 802 359.5 734.5 c 128,-1,52
 340 667 340 667 340 571 c 2,53,-1
 340 0 l 1,54,-1
 132 0 l 1,55,-1
 132 1079 l 1,0,-1
EndSplineSet
Substitution2: "<17013,16013> Islamic Ornamental lookup 65 subtable" m
Substitution2: "<17010,16010> Urdu Swash lookup 62 subtable" m
EndChar

StartChar: n
Encoding: 110 110 81
Width: 1139
GlyphClass: 2
Flags: W
LayerCount: 2
Fore
SplineSet
126 1079 m 1,0,-1
 324 1079 l 1,1,-1
 324 954 l 1,2,3
 398 1027 398 1027 479.5 1064.5 c 128,-1,4
 561 1102 561 1102 651 1102 c 0,5,6
 885 1102 885 1102 966 938 c 0,7,8
 988 893 988 893 999.5 831 c 128,-1,9
 1011 769 1011 769 1011 688 c 2,10,-1
 1011 0 l 1,11,-1
 801 0 l 1,12,-1
 801 676 l 2,13,14
 801 723 801 723 795 760 c 128,-1,15
 789 797 789 797 775 824 c 0,16,17
 732 913 732 913 618 913 c 0,18,19
 590 913 590 913 564.5 910 c 128,-1,20
 539 907 539 907 519 901 c 1,21,-1
 520 901 l 1,22,23
 489 890 489 890 455.5 867.5 c 128,-1,24
 422 845 422 845 399 819 c 1,25,26
 380 796 380 796 365.5 768.5 c 128,-1,27
 351 741 351 741 344 718 c 1,28,-1
 345 719 l 1,29,30
 339 692 339 692 336 652.5 c 128,-1,31
 333 613 333 613 333 564 c 2,32,-1
 333 0 l 1,33,-1
 126 0 l 1,34,-1
 126 1079 l 1,0,-1
EndSplineSet
Substitution2: "<17013,16013> Islamic Ornamental lookup 65 subtable" n
Substitution2: "<17010,16010> Urdu Swash lookup 62 subtable" n
EndChar

StartChar: o
Encoding: 111 111 82
Width: 1139
GlyphClass: 2
Flags: W
LayerCount: 2
Fore
SplineSet
848 556 m 0,0,1
 848 625 848 625 835 684 c 128,-1,2
 822 743 822 743 801 788 c 1,3,-1
 802 788 l 1,4,5
 767 854 767 854 705.5 889.5 c 128,-1,6
 644 925 644 925 559 925 c 0,7,8
 484 925 484 925 428 895 c 128,-1,9
 372 865 372 865 337 809 c 1,10,-1
 337 810 l 1,11,12
 302 750 302 750 283.5 676 c 128,-1,13
 265 602 265 602 265 519 c 0,14,15
 265 358 265 358 338 250 c 1,16,17
 408 144 408 144 557 144 c 0,18,19
 640 144 640 144 697 175.5 c 128,-1,20
 754 207 754 207 784 267 c 1,21,-1
 783 266 l 1,22,23
 813 332 813 332 830.5 405 c 128,-1,24
 848 478 848 478 848 556 c 0,0,1
1061 561 m 0,25,26
 1061 433 1061 433 1028 325.5 c 128,-1,27
 995 218 995 218 935 133 c 1,28,29
 872 49 872 49 773 5.5 c 128,-1,30
 674 -38 674 -38 540 -38 c 0,31,32
 428 -38 428 -38 340 1 c 128,-1,33
 252 40 252 40 186 114 c 1,34,35
 123 189 123 189 89 291 c 128,-1,36
 55 393 55 393 55 516 c 0,37,38
 55 786 55 786 193 948 c 0,39,40
 329 1109 329 1109 564 1109 c 0,41,42
 776 1109 776 1109 918 971 c 0,43,44
 1061 831 1061 831 1061 561 c 0,25,26
EndSplineSet
Substitution2: "<17013,16013> Islamic Ornamental lookup 65 subtable" o
Substitution2: "<17010,16010> Urdu Swash lookup 62 subtable" o
EndChar

StartChar: p
Encoding: 112 112 83
Width: 1139
GlyphClass: 2
Flags: W
LayerCount: 2
Fore
SplineSet
855 546 m 0,0,1
 855 604 855 604 845.5 659 c 128,-1,2
 836 714 836 714 821 756 c 1,3,-1
 821 755 l 1,4,5
 786 830 786 830 726.5 874.5 c 128,-1,6
 667 919 667 919 584 919 c 0,7,8
 544 919 544 919 508.5 906 c 128,-1,9
 473 893 473 893 443 870 c 128,-1,10
 413 847 413 847 389 815 c 128,-1,11
 365 783 365 783 348 745 c 1,12,-1
 348 746 l 1,13,14
 331 699 331 699 322 636.5 c 128,-1,15
 313 574 313 574 313 502 c 0,16,17
 313 445 313 445 322 394.5 c 128,-1,18
 331 344 331 344 348 303 c 1,19,20
 381 233 381 233 441.5 191 c 128,-1,21
 502 149 502 149 584 149 c 0,22,23
 641 149 641 149 689.5 175 c 128,-1,24
 738 201 738 201 776 248 c 1,25,-1
 776 247 l 1,26,27
 811 298 811 298 833 374 c 128,-1,28
 855 450 855 450 855 546 c 0,0,1
113 1075 m 1,29,-1
 315 1075 l 1,30,-1
 315 962 l 1,31,32
 339 990 339 990 361.5 1010.5 c 128,-1,33
 384 1031 384 1031 406 1044 c 0,34,35
 452 1073 452 1073 506.5 1088.5 c 128,-1,36
 561 1104 561 1104 624 1104 c 0,37,38
 810 1104 810 1104 939 963 c 1,39,40
 1002 892 1002 892 1034 793 c 128,-1,41
 1066 694 1066 694 1066 562 c 0,42,43
 1066 388 1066 388 1019 263.5 c 128,-1,44
 972 139 972 139 883 62 c 1,45,46
 823 14 823 14 754 -10.5 c 128,-1,47
 685 -35 685 -35 608 -35 c 0,48,49
 486 -35 486 -35 400 19 c 0,50,51
 382 30 382 30 362.5 46.5 c 128,-1,52
 343 63 343 63 320 89 c 1,53,-1
 320 -417 l 1,54,-1
 113 -417 l 1,55,-1
 113 1075 l 1,29,-1
EndSplineSet
Substitution2: "<17013,16013> Islamic Ornamental lookup 65 subtable" p
Substitution2: "<17010,16010> Urdu Swash lookup 62 subtable" p
EndChar

StartChar: q
Encoding: 113 113 84
Width: 1139
GlyphClass: 2
Flags: W
LayerCount: 2
Fore
SplineSet
306 304 m 0,0,1
 370 149 370 149 534 149 c 0,2,3
 708 149 708 149 773 312 c 0,4,5
 791 359 791 359 800.5 417.5 c 128,-1,6
 810 476 810 476 810 549 c 0,7,8
 810 610 810 610 799 668 c 128,-1,9
 788 726 788 726 769 769 c 1,10,-1
 770 768 l 1,11,12
 735 835 735 835 674 875.5 c 128,-1,13
 613 916 613 916 532 916 c 0,14,15
 425 916 425 916 348 822 c 0,16,17
 269 726 269 726 269 525 c 0,18,19
 269 458 269 458 278.5 403.5 c 128,-1,20
 288 349 288 349 306 304 c 0,0,1
744 1034 m 0,21,22
 760 1022 760 1022 776 1006.5 c 128,-1,23
 792 991 792 991 812 965 c 1,24,-1
 812 1079 l 1,25,-1
 1010 1079 l 1,26,-1
 1010 -417 l 1,27,-1
 802 -417 l 1,28,-1
 802 93 l 1,29,30
 748 34 748 34 674 0.5 c 128,-1,31
 600 -33 600 -33 502 -33 c 0,32,33
 412 -33 412 -33 335.5 1 c 128,-1,34
 259 35 259 35 190 102 c 1,35,36
 55 237 55 237 55 512 c 0,37,38
 55 771 55 771 180 935 c 1,39,40
 311 1102 311 1102 514 1102 c 0,41,42
 652 1102 652 1102 744 1034 c 0,21,22
EndSplineSet
Substitution2: "<17013,16013> Islamic Ornamental lookup 65 subtable" q
Substitution2: "<17010,16010> Urdu Swash lookup 62 subtable" q
EndChar

StartChar: r
Encoding: 114 114 85
Width: 682
GlyphClass: 2
Flags: W
LayerCount: 2
Fore
SplineSet
127 1079 m 1,0,-1
 325 1079 l 1,1,-1
 325 939 l 1,2,3
 340 959 340 959 359.5 980 c 128,-1,4
 379 1001 379 1001 400 1023 c 1,5,6
 485 1102 485 1102 596 1102 c 0,7,8
 598 1102 598 1102 605.5 1102 c 128,-1,9
 613 1102 613 1102 618 1101 c 1,10,11
 625 1101 625 1101 635 1099 c 1,12,-1
 645 1099 l 2,13,14
 648 1099 648 1099 657 1098.5 c 128,-1,15
 666 1098 666 1098 668 1098 c 1,16,-1
 668 880 l 1,17,18
 643 883 643 883 626 884 c 128,-1,19
 609 885 609 885 595 885 c 0,20,21
 533 885 533 885 484.5 864 c 128,-1,22
 436 843 436 843 402 805 c 1,23,-1
 403 806 l 1,24,25
 334 722 334 722 334 618 c 2,26,-1
 334 0 l 1,27,-1
 127 0 l 1,28,-1
 127 1079 l 1,0,-1
EndSplineSet
Substitution2: "<17013,16013> Islamic Ornamental lookup 65 subtable" r
Substitution2: "<17010,16010> Urdu Swash lookup 62 subtable" r
EndChar

StartChar: s
Encoding: 115 115 86
Width: 1024
GlyphClass: 2
Flags: W
LayerCount: 2
Fore
SplineSet
277 381 m 1,0,1
 289 274 289 274 316 240 c 1,2,-1
 315 241 l 1,3,4
 345 208 345 208 398.5 187 c 128,-1,5
 452 166 452 166 520 166 c 0,6,7
 565 166 565 166 603.5 175 c 128,-1,8
 642 184 642 184 674 204 c 1,9,10
 731 235 731 235 731 308 c 0,11,12
 731 331 731 331 720 350 c 128,-1,13
 709 369 709 369 689 382 c 1,14,-1
 690 380 l 1,15,16
 671 389 671 389 632.5 401.5 c 128,-1,17
 594 414 594 414 547 427 c 0,18,19
 545 428 545 428 541.5 429 c 128,-1,20
 538 430 538 430 536 431 c 0,21,22
 519 436 519 436 502 440 c 0,23,24
 495 442 495 442 491 442.5 c 128,-1,25
 487 443 487 443 481 445 c 1,26,27
 481 443 481 443 481 443 c 1,28,29
 467 446 467 446 451.5 450 c 128,-1,30
 436 454 436 454 424 456 c 1,31,-1
 409 461 l 1,32,-1
 410 461 l 1,33,34
 381 469 381 469 351.5 478.5 c 128,-1,35
 322 488 322 488 295.5 498.5 c 128,-1,36
 269 509 269 509 246 519.5 c 128,-1,37
 223 530 223 530 207 540 c 1,38,39
 150 580 150 580 117 634 c 128,-1,40
 84 688 84 688 84 757 c 0,41,42
 84 837 84 837 113.5 902.5 c 128,-1,43
 143 968 143 968 197 1018 c 1,44,45
 313 1113 313 1113 500 1113 c 0,46,47
 749 1113 749 1113 860 966 c 1,48,49
 893 919 893 919 909.5 862.5 c 128,-1,50
 926 806 926 806 926 731 c 1,51,-1
 707 731 l 1,52,53
 702 769 702 769 692 800.5 c 128,-1,54
 682 832 682 832 670 849 c 1,55,-1
 671 847 l 1,56,57
 643 875 643 875 596.5 890.5 c 128,-1,58
 550 906 550 906 486 906 c 0,59,60
 404 906 404 906 361 877 c 128,-1,61
 318 848 318 848 318 799 c 0,62,63
 318 751 318 751 372 719 c 0,64,65
 389 708 389 708 416.5 698 c 128,-1,66
 444 688 444 688 476 680 c 1,67,-1
 484 677 l 2,68,69
 486 676 486 676 486 676 c 2,70,71
 488 675 488 675 491.5 674.5 c 128,-1,72
 495 674 495 674 497 673 c 2,73,-1
 496 674 l 1,74,75
 520 668 520 668 544.5 662 c 128,-1,76
 569 656 569 656 589 651 c 0,77,78
 680 628 680 628 747 605.5 c 128,-1,79
 814 583 814 583 849 560 c 0,80,81
 903 523 903 523 932 465 c 128,-1,82
 961 407 961 407 961 327 c 0,83,84
 961 252 961 252 932 187 c 128,-1,85
 903 122 903 122 850 69 c 1,86,87
 793 16 793 16 709 -11.5 c 128,-1,88
 625 -39 625 -39 511 -39 c 0,89,90
 269 -39 269 -39 163 74 c 1,91,92
 115 130 115 130 86.5 206 c 128,-1,93
 58 282 58 282 52 381 c 1,94,-1
 277 381 l 1,0,1
EndSplineSet
Substitution2: "<17013,16013> Islamic Ornamental lookup 65 subtable" s
Substitution2: "<17010,16010> Urdu Swash lookup 62 subtable" s
EndChar

StartChar: t
Encoding: 116 116 87
Width: 569
GlyphClass: 2
Flags: W
LayerCount: 2
Fore
SplineSet
142 1372 m 1,0,-1
 377 1372 l 1,1,-1
 377 1086 l 1,2,-1
 541 1086 l 1,3,-1
 541 885 l 1,4,-1
 377 885 l 1,5,-1
 377 246 l 2,6,7
 377 212 377 212 397 200 c 0,8,9
 403 196 403 196 417.5 194.5 c 128,-1,10
 432 193 432 193 450 193 c 0,11,12
 464 193 464 193 482.5 193.5 c 128,-1,13
 501 194 501 194 541 198 c 1,14,-1
 541 6 l 1,15,16
 498 -5 498 -5 458.5 -11 c 128,-1,17
 419 -17 419 -17 380 -17 c 0,18,19
 244 -17 244 -17 191 57 c 0,20,21
 142 127 142 127 142 236 c 2,22,-1
 142 885 l 1,23,-1
 3 885 l 1,24,-1
 3 1086 l 1,25,-1
 142 1086 l 1,26,-1
 142 1372 l 1,0,-1
EndSplineSet
Substitution2: "<17013,16013> Islamic Ornamental lookup 65 subtable" t
Substitution2: "<17010,16010> Urdu Swash lookup 62 subtable" t
EndChar

StartChar: u
Encoding: 117 117 88
Width: 1139
GlyphClass: 2
Flags: W
LayerCount: 2
Fore
SplineSet
332 1079 m 1,0,-1
 332 368 l 2,1,2
 332 293 332 293 356 245 c 0,3,4
 399 159 399 159 518 159 c 0,5,6
 558 159 558 159 593.5 170.5 c 128,-1,7
 629 182 629 182 659 203 c 128,-1,8
 689 224 689 224 713.5 252.5 c 128,-1,9
 738 281 738 281 755 314 c 1,10,-1
 754 313 l 1,11,12
 771 356 771 356 780.5 416.5 c 128,-1,13
 790 477 790 477 790 549 c 2,14,-1
 790 1079 l 1,15,-1
 996 1079 l 1,16,-1
 996 0 l 1,17,-1
 799 0 l 1,18,-1
 801 123 l 1,19,20
 786 105 786 105 770 87 c 128,-1,21
 754 69 754 69 742 58 c 1,22,23
 688 16 688 16 623.5 -6 c 128,-1,24
 559 -28 559 -28 487 -28 c 0,25,26
 370 -28 370 -28 290.5 12 c 128,-1,27
 211 52 211 52 168 130 c 1,28,29
 148 172 148 172 135 229 c 128,-1,30
 122 286 122 286 122 352 c 2,31,-1
 122 1079 l 1,32,-1
 332 1079 l 1,0,-1
EndSplineSet
Substitution2: "<17013,16013> Islamic Ornamental lookup 65 subtable" u
Substitution2: "<17010,16010> Urdu Swash lookup 62 subtable" u
EndChar

StartChar: v
Encoding: 118 118 89
Width: 1024
GlyphClass: 2
Flags: W
LayerCount: 2
Fore
SplineSet
238 1079 m 1,0,-1
 506 259 l 1,1,2
 507 261 507 261 507.5 262.5 c 128,-1,3
 508 264 508 264 509 266 c 0,4,5
 520 298 520 298 532 333.5 c 128,-1,6
 544 369 544 369 555 401 c 0,7,8
 574 456 574 456 593.5 511.5 c 128,-1,9
 613 567 613 567 632 624 c 0,10,11
 651 678 651 678 671 737 c 128,-1,12
 691 796 691 796 711 854.5 c 128,-1,13
 731 913 731 913 750.5 970.5 c 128,-1,14
 770 1028 770 1028 787 1079 c 1,15,-1
 1013 1079 l 1,16,17
 1011 1073 1011 1073 1008 1064.5 c 128,-1,18
 1005 1056 1005 1056 1001 1046.5 c 128,-1,19
 997 1037 997 1037 993.5 1028 c 128,-1,20
 990 1019 990 1019 988 1013 c 0,21,22
 969 962 969 962 949.5 911 c 128,-1,23
 930 860 930 860 913 814 c 0,24,25
 887 744 887 744 860.5 672 c 128,-1,26
 834 600 834 600 808 531 c 0,27,28
 759 403 759 403 708 267.5 c 128,-1,29
 657 132 657 132 607 0 c 1,30,-1
 397 0 l 1,31,32
 350 131 350 131 299.5 267 c 128,-1,33
 249 403 249 403 201 532 c 0,34,35
 193 552 193 552 185.5 575 c 128,-1,36
 178 598 178 598 170 619 c 0,37,38
 153 665 153 665 135 713 c 128,-1,39
 117 761 117 761 101 808 c 0,40,41
 96 823 96 823 90 838 c 128,-1,42
 84 853 84 853 78 869 c 0,43,44
 69 893 69 893 59 920 c 128,-1,45
 49 947 49 947 39 975 c 128,-1,46
 29 1003 29 1003 19 1030 c 128,-1,47
 9 1057 9 1057 1 1079 c 1,48,-1
 238 1079 l 1,0,-1
EndSplineSet
Substitution2: "<17013,16013> Islamic Ornamental lookup 65 subtable" v
Substitution2: "<17010,16010> Urdu Swash lookup 62 subtable" v
EndChar

StartChar: w
Encoding: 119 119 90
Width: 1479
GlyphClass: 2
Flags: W
LayerCount: 2
Fore
SplineSet
239 1079 m 1,0,-1
 427 307 l 1,1,2
 434 333 434 333 440 357.5 c 128,-1,3
 446 382 446 382 453 408 c 0,4,5
 461 437 461 437 467 466 c 128,-1,6
 473 495 473 495 481 524 c 0,7,8
 497 584 497 584 512 645.5 c 128,-1,9
 527 707 527 707 541 767 c 0,10,11
 546 787 546 787 551.5 807 c 128,-1,12
 557 827 557 827 562 847 c 0,13,14
 569 874 569 874 576.5 904.5 c 128,-1,15
 584 935 584 935 591.5 965.5 c 128,-1,16
 599 996 599 996 606 1025.5 c 128,-1,17
 613 1055 613 1055 619 1079 c 1,18,-1
 843 1079 l 1,19,-1
 1037 309 l 1,20,21
 1051 365 1051 365 1066.5 422.5 c 128,-1,22
 1082 480 1082 480 1097 537 c 1,23,-1
 1096 536 l 1,24,25
 1101 559 1101 559 1108 582 c 128,-1,26
 1115 605 1115 605 1121 628 c 1,27,-1
 1120 628 l 1,28,29
 1122 634 1122 634 1123.5 640 c 128,-1,30
 1125 646 1125 646 1127 651 c 0,31,32
 1144 714 1144 714 1160.5 781 c 128,-1,33
 1177 848 1177 848 1194 915 c 0,34,35
 1199 934 1199 934 1204.5 955.5 c 128,-1,36
 1210 977 1210 977 1216 999 c 128,-1,37
 1222 1021 1222 1021 1227.5 1041.5 c 128,-1,38
 1233 1062 1233 1062 1237 1079 c 1,39,-1
 1446 1079 l 1,40,41
 1437 1049 1437 1049 1427.5 1014.5 c 128,-1,42
 1418 980 1418 980 1407.5 944.5 c 128,-1,43
 1397 909 1397 909 1387 874.5 c 128,-1,44
 1377 840 1377 840 1368 808 c 0,45,46
 1358 775 1358 775 1348 741.5 c 128,-1,47
 1338 708 1338 708 1329 677 c 0,48,49
 1310 611 1310 611 1288.5 537.5 c 128,-1,50
 1267 464 1267 464 1244 386 c 0,51,52
 1234 352 1234 352 1224.5 316.5 c 128,-1,53
 1215 281 1215 281 1204 247 c 1,54,55
 1191 201 1191 201 1177 151.5 c 128,-1,56
 1163 102 1163 102 1149 58 c 0,57,58
 1145 45 1145 45 1140 28 c 128,-1,59
 1135 11 1135 11 1133 0 c 1,60,-1
 926 0 l 1,61,-1
 724 763 l 1,62,63
 719 746 719 746 716.5 731 c 128,-1,64
 714 716 714 716 709 698 c 1,65,-1
 709 699 l 1,66,67
 707 687 707 687 703.5 674.5 c 128,-1,68
 700 662 700 662 697 649 c 0,69,70
 693 634 693 634 689 618.5 c 128,-1,71
 685 603 685 603 681 588 c 0,72,73
 670 546 670 546 659.5 504 c 128,-1,74
 649 462 649 462 638 422 c 1,75,-1
 639 422 l 1,76,77
 626 373 626 373 613.5 321 c 128,-1,78
 601 269 601 269 587 216 c 0,79,80
 573 165 573 165 559 107.5 c 128,-1,81
 545 50 545 50 531 0 c 1,82,-1
 324 0 l 1,83,84
 296 96 296 96 267 197.5 c 128,-1,85
 238 299 238 299 210 397 c 0,86,87
 162 564 162 564 112 739 c 128,-1,88
 62 914 62 914 14 1079 c 1,89,-1
 239 1079 l 1,0,-1
EndSplineSet
Substitution2: "<17013,16013> Islamic Ornamental lookup 65 subtable" w
Substitution2: "<17010,16010> Urdu Swash lookup 62 subtable" w
EndChar

StartChar: x
Encoding: 120 120 91
Width: 1024
GlyphClass: 2
Flags: W
LayerCount: 2
Fore
SplineSet
12 1079 m 1,0,-1
 277 1079 l 1,1,-1
 509 722 l 1,2,3
 512 726 512 726 516 732 c 1,4,-1
 516 731 l 1,5,6
 521 740 521 740 527.5 749 c 128,-1,7
 534 758 534 758 540 768 c 0,8,9
 543 773 543 773 546 778 c 128,-1,10
 549 783 549 783 552 788 c 0,11,12
 598 858 598 858 648.5 935 c 128,-1,13
 699 1012 699 1012 744 1079 c 1,14,15
 755 1079 755 1079 769 1078.5 c 128,-1,16
 783 1078 783 1078 794 1078 c 0,17,18
 809 1077 809 1077 825 1077 c 128,-1,19
 841 1077 841 1077 855 1076 c 1,20,-1
 854 1076 l 2,21,22
 866 1076 866 1076 885 1075.5 c 128,-1,23
 904 1075 904 1075 924.5 1075 c 128,-1,24
 945 1075 945 1075 964.5 1075 c 128,-1,25
 984 1075 984 1075 996 1075 c 1,26,-1
 633 552 l 1,27,28
 638 547 638 547 641.5 541 c 128,-1,29
 645 535 645 535 650 529 c 0,30,31
 660 516 660 516 669 502.5 c 128,-1,32
 678 489 678 489 687 476 c 0,33,34
 715 434 715 434 745.5 390 c 128,-1,35
 776 346 776 346 805 306 c 0,36,37
 812 295 812 295 818.5 284.5 c 128,-1,38
 825 274 825 274 833 263 c 0,39,40
 856 230 856 230 878.5 196 c 128,-1,41
 901 162 901 162 923 129 c 1,42,-1
 923 130 l 1,43,44
 931 119 931 119 943.5 101.5 c 128,-1,45
 956 84 956 84 968.5 65 c 128,-1,46
 981 46 981 46 993 28.5 c 128,-1,47
 1005 11 1005 11 1012 0 c 1,48,-1
 750 0 l 1,49,-1
 498 379 l 1,50,51
 494 373 494 373 491 367.5 c 128,-1,52
 488 362 488 362 484 357 c 0,53,54
 479 349 479 349 474 341 c 128,-1,55
 469 333 469 333 464 325 c 0,56,57
 450 305 450 305 436.5 283 c 128,-1,58
 423 261 423 261 409 240 c 0,59,60
 389 211 389 211 367.5 177.5 c 128,-1,61
 346 144 346 144 328 115 c 0,62,63
 317 98 317 98 304 78 c 128,-1,64
 291 58 291 58 280 40 c 0,65,66
 275 32 275 32 266 19.5 c 128,-1,67
 257 7 257 7 252 0 c 1,68,-1
 -9 0 l 1,69,-1
 372 552 l 1,70,-1
 12 1079 l 1,0,-1
EndSplineSet
Substitution2: "<17013,16013> Islamic Ornamental lookup 65 subtable" x
Substitution2: "<17010,16010> Urdu Swash lookup 62 subtable" x
EndChar

StartChar: y
Encoding: 121 121 92
Width: 1024
GlyphClass: 2
Flags: W
LayerCount: 2
Fore
SplineSet
991 1024 m 1,0,-1
 990 1023 l 2,1,2
 989 1022 989 1022 989 1021 c 128,-1,3
 989 1020 989 1020 988 1019 c 2,4,-1
 991 1024 l 1,0,-1
783 1079 m 1,5,-1
 1009 1079 l 1,6,7
 1006 1068 1006 1068 1001.5 1055 c 128,-1,8
 997 1042 997 1042 995 1035 c 1,9,10
 995 1028 995 1028 991 1024 c 1,11,12
 988 1017 988 1017 985.5 1010.5 c 128,-1,13
 983 1004 983 1004 981 994 c 1,14,-1
 974 976 l 2,15,16
 972 970 972 970 969.5 963 c 128,-1,17
 967 956 967 956 965 951 c 1,18,-1
 965 952 l 1,19,-1
 957 929 l 2,20,21
 953 918 953 918 949 905.5 c 128,-1,22
 945 893 945 893 940 882 c 1,23,24
 920 825 920 825 893.5 752.5 c 128,-1,25
 867 680 867 680 839 598 c 0,26,27
 795 473 795 473 756 367 c 128,-1,28
 717 261 717 261 686 178 c 0,29,30
 684 172 684 172 682 168 c 0,31,32
 681 166 681 166 680.5 164 c 128,-1,33
 680 162 680 162 678 159 c 0,34,35
 643 66 643 66 610.5 -14.5 c 128,-1,36
 578 -95 578 -95 550 -158.5 c 128,-1,37
 522 -222 522 -222 499.5 -267.5 c 128,-1,38
 477 -313 477 -313 461 -336 c 1,39,40
 426 -381 426 -381 369.5 -405 c 128,-1,41
 313 -429 313 -429 233 -429 c 0,42,43
 194 -429 194 -429 173 -426 c 0,44,45
 169 -425 169 -425 161 -423.5 c 128,-1,46
 153 -422 153 -422 144 -420 c 128,-1,47
 135 -418 135 -418 126 -416 c 128,-1,48
 117 -414 117 -414 111 -412 c 1,49,-1
 111 -220 l 1,50,51
 143 -229 143 -229 163 -233.5 c 128,-1,52
 183 -238 183 -238 195 -240 c 128,-1,53
 207 -242 207 -242 214.5 -242.5 c 128,-1,54
 222 -243 222 -243 229 -243 c 0,55,56
 272 -243 272 -243 292 -229.5 c 128,-1,57
 312 -216 312 -216 325 -197 c 0,58,59
 326 -196 326 -196 328 -192 c 128,-1,60
 330 -188 330 -188 331 -186 c 0,61,62
 336 -175 336 -175 343 -157.5 c 128,-1,63
 350 -140 350 -140 360 -117 c 0,64,65
 376 -82 376 -82 385.5 -58 c 128,-1,66
 395 -34 395 -34 402 -17 c 1,67,68
 354 119 354 119 303 261 c 128,-1,69
 252 403 252 403 200 547 c 0,70,71
 153 679 153 679 103.5 817.5 c 128,-1,72
 54 956 54 956 10 1079 c 1,73,-1
 242 1079 l 1,74,-1
 511 258 l 1,75,-1
 783 1079 l 1,5,-1
EndSplineSet
Substitution2: "<17013,16013> Islamic Ornamental lookup 65 subtable" y
Substitution2: "<17010,16010> Urdu Swash lookup 62 subtable" y
EndChar

StartChar: z
Encoding: 122 122 93
Width: 1024
GlyphClass: 2
Flags: W
LayerCount: 2
Fore
SplineSet
46 162 m 1,0,-1
 648 890 l 1,1,-1
 93 890 l 1,2,-1
 93 1079 l 1,3,-1
 935 1079 l 1,4,-1
 935 913 l 1,5,-1
 336 189 l 1,6,-1
 954 189 l 1,7,-1
 954 0 l 1,8,-1
 46 0 l 1,9,-1
 46 162 l 1,0,-1
EndSplineSet
Substitution2: "<17013,16013> Islamic Ornamental lookup 65 subtable" z
Substitution2: "<17010,16010> Urdu Swash lookup 62 subtable" z
EndChar

StartChar: braceleft
Encoding: 123 123 94
Width: 1035
GlyphClass: 2
Flags: W
LayerCount: 2
Fore
SplineSet
558 21 m 2,0,1
 558 -118 558 -118 624 -171 c 1,2,3
 692 -232 692 -232 798 -242 c 1,4,-1
 798 -406 l 1,5,6
 695 -395 695 -395 612.5 -367 c 128,-1,7
 530 -339 530 -339 471 -298 c 1,8,9
 412 -253 412 -253 381 -178.5 c 128,-1,10
 350 -104 350 -104 350 -3 c 2,11,-1
 350 196 l 2,12,13
 350 244 350 244 342 283.5 c 128,-1,14
 334 323 334 323 321 351 c 1,15,16
 293 397 293 397 234 427 c 128,-1,17
 175 457 175 457 87 467 c 1,18,-1
 87 625 l 1,19,20
 175 634 175 634 234 666 c 128,-1,21
 293 698 293 698 321 740 c 1,22,23
 335 767 335 767 342.5 807 c 128,-1,24
 350 847 350 847 350 896 c 2,25,-1
 350 1054 l 2,26,27
 350 1242 350 1242 433 1357 c 1,28,29
 519 1469 519 1469 798 1495 c 1,30,-1
 798 1334 l 1,31,32
 718 1327 718 1327 664 1294 c 128,-1,33
 610 1261 610 1261 584 1210 c 1,34,-1
 585 1211 l 1,35,36
 558 1148 558 1148 558 1033 c 2,37,-1
 558 926 l 2,38,39
 558 854 558 854 548 793.5 c 128,-1,40
 538 733 538 733 519 693 c 0,41,42
 494 642 494 642 455 603.5 c 128,-1,43
 416 565 416 565 363 545 c 1,44,45
 417 522 417 522 455.5 484 c 128,-1,46
 494 446 494 446 519 395 c 0,47,48
 539 353 539 353 548.5 295.5 c 128,-1,49
 558 238 558 238 558 167 c 2,50,-1
 558 21 l 2,0,1
EndSplineSet
Substitution2: "<17013,16013> Islamic Ornamental lookup 65 subtable" braceleft
Substitution2: "<17010,16010> Urdu Swash lookup 62 subtable" braceleft
EndChar

StartChar: bar
Encoding: 124 124 95
Width: 532
GlyphClass: 2
Flags: W
LayerCount: 2
Fore
SplineSet
367 0 m 1,0,-1
 168 0 l 1,1,-1
 168 1489 l 1,2,-1
 367 1489 l 1,3,-1
 367 0 l 1,0,-1
EndSplineSet
Substitution2: "<17013,16013> Islamic Ornamental lookup 65 subtable" bar
Substitution2: "<17010,16010> Urdu Swash lookup 62 subtable" bar
EndChar

StartChar: braceright
Encoding: 125 125 96
Width: 1035
GlyphClass: 2
Flags: W
LayerCount: 2
Fore
SplineSet
366 692 m 1,0,1
 346 732 346 732 336.5 790.5 c 128,-1,2
 327 849 327 849 327 926 c 2,3,-1
 327 1033 l 2,4,5
 327 1094 327 1094 320.5 1139.5 c 128,-1,6
 314 1185 314 1185 300 1217 c 0,7,8
 254 1320 254 1320 87 1334 c 1,9,-1
 87 1495 l 1,10,11
 230 1482 230 1482 327 1439.5 c 128,-1,12
 424 1397 424 1397 472 1327 c 1,13,14
 502 1281 502 1281 518 1212.5 c 128,-1,15
 534 1144 534 1144 534 1054 c 2,16,-1
 534 896 l 2,17,18
 534 848 534 848 542 808 c 128,-1,19
 550 768 550 768 563 740 c 1,20,21
 591 695 591 695 649.5 665 c 128,-1,22
 708 635 708 635 798 625 c 1,23,-1
 798 467 l 1,24,25
 710 459 710 459 651 426.5 c 128,-1,26
 592 394 592 394 563 349 c 1,27,-1
 563 350 l 1,28,29
 549 321 549 321 541.5 282.5 c 128,-1,30
 534 244 534 244 534 196 c 2,31,-1
 534 -3 l 2,32,33
 534 -210 534 -210 412 -300 c 1,34,35
 294 -383 294 -383 87 -406 c 1,36,-1
 87 -243 l 1,37,38
 147 -235 147 -235 192 -216 c 128,-1,39
 237 -197 237 -197 267 -165 c 1,40,41
 327 -104 327 -104 327 21 c 2,42,-1
 327 167 l 2,43,44
 327 312 327 312 366 394 c 0,45,46
 391 448 391 448 429 486 c 128,-1,47
 467 524 467 524 521 546 c 1,48,49
 464 566 464 566 427.5 602 c 128,-1,50
 391 638 391 638 366 693 c 1,51,-1
 366 692 l 1,0,1
EndSplineSet
Substitution2: "<17013,16013> Islamic Ornamental lookup 65 subtable" braceright
Substitution2: "<17010,16010> Urdu Swash lookup 62 subtable" braceright
EndChar

StartChar: asciitilde
Encoding: 126 126 97
Width: 1196
GlyphClass: 2
Flags: W
LayerCount: 2
Fore
SplineSet
381 702 m 0,0,1
 406 698 406 698 435.5 691.5 c 128,-1,2
 465 685 465 685 491 674 c 256,3,4
 517 663 517 663 545.5 652.5 c 128,-1,5
 574 642 574 642 601 631 c 1,6,-1
 600 631 l 1,7,8
 656 610 656 610 708 589 c 1,9,-1
 706 590 l 2,10,11
 709 589 709 589 710 588.5 c 128,-1,12
 711 588 711 588 714 587 c 0,13,14
 719 585 719 585 727 582 c 128,-1,15
 735 579 735 579 740 577 c 0,16,17
 757 570 757 570 770 565 c 128,-1,18
 783 560 783 560 790 558 c 1,19,-1
 790 559 l 1,20,21
 816 552 816 552 838 549 c 128,-1,22
 860 546 860 546 877 546 c 0,23,24
 903 546 903 546 932.5 560.5 c 128,-1,25
 962 575 962 575 985 596 c 1,26,27
 1005 622 1005 622 1023.5 658.5 c 128,-1,28
 1042 695 1042 695 1052 740 c 1,29,-1
 1198 740 l 1,30,31
 1181 657 1181 657 1156 588 c 128,-1,32
 1131 519 1131 519 1096 463 c 0,33,34
 1057 400 1057 400 999.5 371 c 128,-1,35
 942 342 942 342 865 342 c 0,36,37
 845 342 845 342 815.5 346.5 c 128,-1,38
 786 351 786 351 757 359 c 0,39,40
 735 365 735 365 708.5 374 c 128,-1,41
 682 383 682 383 650 397 c 0,42,43
 645 399 645 399 640 401.5 c 128,-1,44
 635 404 635 404 629 406 c 0,45,46
 621 408 621 408 615 411 c 0,47,48
 613 412 613 412 612 412 c 128,-1,49
 611 412 611 412 609 413 c 0,50,51
 587 421 587 421 564 430 c 128,-1,52
 541 439 541 439 519 448 c 0,53,54
 511 451 511 451 502.5 453.5 c 128,-1,55
 494 456 494 456 487 459 c 1,56,-1
 488 459 l 1,57,58
 479 463 479 463 470 466.5 c 128,-1,59
 461 470 461 470 452 473 c 0,60,61
 435 479 435 479 415.5 484.5 c 128,-1,62
 396 490 396 490 377.5 494 c 128,-1,63
 359 498 359 498 342.5 500 c 128,-1,64
 326 502 326 502 314 502 c 0,65,66
 280 502 280 502 249.5 486 c 128,-1,67
 219 470 219 470 198 445 c 1,68,69
 186 427 186 427 170.5 392.5 c 128,-1,70
 155 358 155 358 141 314 c 1,71,-1
 -3 314 l 1,72,73
 8 368 8 368 18 407.5 c 128,-1,74
 28 447 28 447 37 473 c 1,75,76
 48 499 48 499 67.5 536.5 c 128,-1,77
 87 574 87 574 113 614 c 1,78,79
 153 661 153 661 203 684.5 c 128,-1,80
 253 708 253 708 319 708 c 0,81,82
 334 708 334 708 349.5 706 c 128,-1,83
 365 704 365 704 381 702 c 0,0,1
EndSplineSet
Substitution2: "<17013,16013> Islamic Ornamental lookup 65 subtable" asciitilde
Substitution2: "<17010,16010> Urdu Swash lookup 62 subtable" asciitilde
EndChar

StartChar: Adieresis
Encoding: 196 196 98
Width: 1366
GlyphClass: 2
Flags: W
LayerCount: 2
Fore
SplineSet
740 1808 m 1,0,-1
 954 1808 l 1,1,-1
 954 1575 l 1,2,-1
 740 1575 l 1,3,-1
 740 1808 l 1,0,-1
417 1808 m 1,4,-1
 631 1808 l 1,5,-1
 631 1575 l 1,6,-1
 417 1575 l 1,7,-1
 417 1808 l 1,4,-1
884 620 m 1,8,9
 855 704 855 704 825.5 787.5 c 128,-1,10
 796 871 796 871 767 957 c 0,11,12
 751 1002 751 1002 737 1044 c 128,-1,13
 723 1086 723 1086 709 1126 c 0,14,15
 705 1137 705 1137 703 1144 c 128,-1,16
 701 1151 701 1151 698.5 1157.5 c 128,-1,17
 696 1164 696 1164 693.5 1172 c 128,-1,18
 691 1180 691 1180 686 1193 c 1,19,20
 669 1146 669 1146 652 1101.5 c 128,-1,21
 635 1057 635 1057 618 1010 c 0,22,23
 605 975 605 975 592.5 940.5 c 128,-1,24
 580 906 580 906 567 871 c 0,25,26
 557 844 557 844 548 817.5 c 128,-1,27
 539 791 539 791 529 765 c 0,28,29
 522 745 522 745 516 727.5 c 128,-1,30
 510 710 510 710 504 693.5 c 128,-1,31
 498 677 498 677 491 659 c 128,-1,32
 484 641 484 641 476 620 c 1,33,-1
 884 620 l 1,8,9
574 1468 m 1,34,-1
 815 1468 l 1,35,36
 829 1433 829 1433 844 1391 c 128,-1,37
 859 1349 859 1349 873 1311 c 0,38,39
 883 1283 883 1283 893 1257 c 128,-1,40
 903 1231 903 1231 912 1205 c 0,41,42
 934 1146 934 1146 954.5 1089 c 128,-1,43
 975 1032 975 1032 996 974 c 0,44,45
 1018 915 1018 915 1038.5 858 c 128,-1,46
 1059 801 1059 801 1080 742 c 0,47,48
 1124 622 1124 622 1169.5 494.5 c 128,-1,49
 1215 367 1215 367 1258 248 c 0,50,51
 1271 214 1271 214 1284.5 176.5 c 128,-1,52
 1298 139 1298 139 1312 102 c 0,53,54
 1316 91 1316 91 1321 77 c 128,-1,55
 1326 63 1326 63 1331 49 c 128,-1,56
 1336 35 1336 35 1340.5 22 c 128,-1,57
 1345 9 1345 9 1349 0 c 1,58,-1
 1101 0 l 1,59,-1
 958 430 l 1,60,-1
 411 430 l 1,61,62
 409 424 409 424 408 422 c 256,63,64
 407 420 407 420 406 417.5 c 128,-1,65
 405 415 405 415 404 413 c 0,66,67
 387 365 387 365 369.5 315.5 c 128,-1,68
 352 266 352 266 333 215 c 0,69,70
 320 179 320 179 305.5 138 c 128,-1,71
 291 97 291 97 277 59 c 0,72,73
 272 46 272 46 266 29 c 128,-1,74
 260 12 260 12 255 0 c 1,75,-1
 22 0 l 1,76,-1
 574 1468 l 1,34,-1
EndSplineSet
Substitution2: "<17013,16013> Islamic Ornamental lookup 65 subtable" Adieresis
Substitution2: "<17010,16010> Urdu Swash lookup 62 subtable" Adieresis
EndChar

StartChar: Aring
Encoding: 197 197 99
AltUni2: 00212b.ffffffff.0
Width: 1366
GlyphClass: 2
Flags: W
LayerCount: 2
Fore
SplineSet
706 1608 m 256,0,1
 749 1608 749 1608 781 1640 c 0,2,3
 813 1671 813 1671 813 1715 c 0,4,5
 813 1757 813 1757 782 1791 c 1,6,7
 765 1806 765 1806 747 1814 c 128,-1,8
 729 1822 729 1822 706 1822 c 0,9,10
 665 1822 665 1822 631 1791 c 1,11,12
 615 1774 615 1774 606.5 1756 c 128,-1,13
 598 1738 598 1738 598 1715 c 0,14,15
 598 1673 598 1673 631 1640 c 0,16,17
 663 1608 663 1608 706 1608 c 256,0,1
884 620 m 1,18,19
 855 704 855 704 825.5 787.5 c 128,-1,20
 796 871 796 871 767 957 c 0,21,22
 751 1002 751 1002 737 1044 c 128,-1,23
 723 1086 723 1086 709 1126 c 0,24,25
 705 1137 705 1137 703 1144 c 128,-1,26
 701 1151 701 1151 698.5 1157.5 c 128,-1,27
 696 1164 696 1164 693.5 1172 c 128,-1,28
 691 1180 691 1180 686 1193 c 1,29,30
 669 1146 669 1146 652 1101.5 c 128,-1,31
 635 1057 635 1057 618 1010 c 0,32,33
 605 975 605 975 592.5 940.5 c 128,-1,34
 580 906 580 906 567 871 c 0,35,36
 557 844 557 844 548 817.5 c 128,-1,37
 539 791 539 791 529 765 c 0,38,39
 522 745 522 745 516 727.5 c 128,-1,40
 510 710 510 710 504 693.5 c 128,-1,41
 498 677 498 677 491 659 c 128,-1,42
 484 641 484 641 476 620 c 1,43,-1
 884 620 l 1,18,19
706 1935 m 0,44,45
 796 1935 796 1935 860 1869 c 1,46,-1
 860 1870 l 1,47,-1
 860 1869 l 1,48,-1
 861 1869 l 1,49,-1
 860 1869 l 1,50,51
 926 1805 926 1805 926 1715 c 0,52,53
 926 1623 926 1623 861 1558 c 0,54,55
 829 1526 829 1526 790.5 1511 c 128,-1,56
 752 1496 752 1496 706 1496 c 0,57,58
 661 1496 661 1496 622.5 1511 c 128,-1,59
 584 1526 584 1526 551 1558 c 0,60,61
 486 1623 486 1623 486 1715 c 0,62,63
 486 1806 486 1806 550 1870 c 0,64,65
 615 1935 615 1935 706 1935 c 0,44,45
574 1468 m 1,66,-1
 815 1468 l 1,67,68
 829 1433 829 1433 844 1391 c 128,-1,69
 859 1349 859 1349 873 1311 c 0,70,71
 883 1283 883 1283 893 1257 c 128,-1,72
 903 1231 903 1231 912 1205 c 0,73,74
 934 1146 934 1146 954.5 1089 c 128,-1,75
 975 1032 975 1032 996 974 c 0,76,77
 1018 915 1018 915 1038.5 858 c 128,-1,78
 1059 801 1059 801 1080 742 c 0,79,80
 1124 622 1124 622 1169.5 494.5 c 128,-1,81
 1215 367 1215 367 1258 248 c 0,82,83
 1271 214 1271 214 1284.5 176.5 c 128,-1,84
 1298 139 1298 139 1312 102 c 0,85,86
 1316 91 1316 91 1321 77 c 128,-1,87
 1326 63 1326 63 1331 49 c 128,-1,88
 1336 35 1336 35 1340.5 22 c 128,-1,89
 1345 9 1345 9 1349 0 c 1,90,-1
 1101 0 l 1,91,-1
 958 430 l 1,92,-1
 411 430 l 1,93,94
 409 424 409 424 408 422 c 256,95,96
 407 420 407 420 406 417.5 c 128,-1,97
 405 415 405 415 404 413 c 0,98,99
 387 365 387 365 369.5 315.5 c 128,-1,100
 352 266 352 266 333 215 c 0,101,102
 320 179 320 179 305.5 138 c 128,-1,103
 291 97 291 97 277 59 c 0,104,105
 272 46 272 46 266 29 c 128,-1,106
 260 12 260 12 255 0 c 1,107,-1
 22 0 l 1,108,-1
 574 1468 l 1,66,-1
EndSplineSet
Substitution2: "<17013,16013> Islamic Ornamental lookup 65 subtable" Aring
Substitution2: "<17010,16010> Urdu Swash lookup 62 subtable" Aring
EndChar

StartChar: Ccedilla
Encoding: 199 199 100
Width: 1479
GlyphClass: 2
Flags: W
LayerCount: 2
Fore
SplineSet
1163 1007 m 1,0,1
 1145 1078 1145 1078 1112 1134.5 c 128,-1,2
 1079 1191 1079 1191 1037 1230 c 1,3,4
 992 1267 992 1267 926.5 1287 c 128,-1,5
 861 1307 861 1307 776 1307 c 0,6,7
 675 1307 675 1307 590.5 1269.5 c 128,-1,8
 506 1232 506 1232 443 1163 c 1,9,10
 384 1090 384 1090 351.5 977.5 c 128,-1,11
 319 865 319 865 319 716 c 0,12,13
 319 467 319 467 432 316 c 0,14,15
 489 240 489 240 574.5 203 c 128,-1,16
 660 166 660 166 772 166 c 0,17,18
 877 166 877 166 955 204.5 c 128,-1,19
 1033 243 1033 243 1087 324 c 0,20,21
 1140 404 1140 404 1177 558 c 1,22,-1
 1396 558 l 1,23,24
 1380 433 1380 433 1335.5 331.5 c 128,-1,25
 1291 230 1291 230 1222 153 c 1,26,27
 1137 65 1137 65 1024.5 16 c 128,-1,28
 912 -33 912 -33 779 -37 c 1,29,30
 774 -45 774 -45 769 -51 c 128,-1,31
 764 -57 764 -57 759 -65 c 0,32,33
 755 -70 755 -70 751 -75 c 128,-1,34
 747 -80 747 -80 743 -85 c 2,35,36
 743 -85 743 -85 741 -87 c 1,37,38
 751 -85 751 -85 760 -85 c 128,-1,39
 769 -85 769 -85 778 -85 c 0,40,41
 816 -85 816 -85 848 -96 c 128,-1,42
 880 -107 880 -107 903 -129 c 128,-1,43
 926 -151 926 -151 939 -182.5 c 128,-1,44
 952 -214 952 -214 952 -254 c 0,45,46
 952 -296 952 -296 935.5 -330 c 128,-1,47
 919 -364 919 -364 888 -393 c 0,48,49
 856 -422 856 -422 808.5 -437 c 128,-1,50
 761 -452 761 -452 697 -452 c 0,51,52
 672 -452 672 -452 643 -447.5 c 128,-1,53
 614 -443 614 -443 585 -435 c 0,54,55
 566 -430 566 -430 537 -420.5 c 128,-1,56
 508 -411 508 -411 484 -403 c 1,57,58
 489 -383 489 -383 492 -378 c 128,-1,59
 495 -373 495 -373 498 -368 c 0,60,61
 500 -366 500 -366 501 -363.5 c 128,-1,62
 502 -361 502 -361 503 -359 c 0,63,64
 505 -355 505 -355 506 -351 c 128,-1,65
 507 -347 507 -347 509 -344 c 1,66,-1
 509 -343 l 1,67,68
 510 -341 510 -341 510.5 -339.5 c 128,-1,69
 511 -338 511 -338 514 -331 c 0,70,71
 515 -329 515 -329 515.5 -327 c 128,-1,72
 516 -325 516 -325 518 -323 c 1,73,74
 521 -315 521 -315 522 -314 c 0,75,76
 524 -310 524 -310 526.5 -305 c 128,-1,77
 529 -300 529 -300 533 -296 c 1,78,79
 541 -298 541 -298 551.5 -301.5 c 128,-1,80
 562 -305 562 -305 564 -305 c 0,81,82
 570 -307 570 -307 573 -307 c 0,83,84
 581 -309 581 -309 589.5 -312 c 128,-1,85
 598 -315 598 -315 605 -320 c 2,86,-1
 601 -317 l 1,87,88
 642 -328 642 -328 670 -328 c 0,89,90
 687 -328 687 -328 701 -325.5 c 128,-1,91
 715 -323 715 -323 727 -318 c 1,92,-1
 726 -318 l 1,93,94
 767 -303 767 -303 767 -260 c 0,95,96
 767 -234 767 -234 745.5 -216 c 128,-1,97
 724 -198 724 -198 688 -198 c 0,98,99
 669 -198 669 -198 651 -202 c 128,-1,100
 633 -206 633 -206 605 -216 c 1,101,-1
 593 -205 l 2,102,103
 591 -203 591 -203 590 -201.5 c 128,-1,104
 589 -200 589 -200 588 -199 c 0,105,106
 584 -195 584 -195 583 -193 c 0,107,108
 582 -192 582 -192 580 -189.5 c 128,-1,109
 578 -187 578 -187 577 -186 c 0,110,111
 572 -181 572 -181 564 -173.5 c 128,-1,112
 556 -166 556 -166 553 -163 c 1,113,-1
 645 -36 l 1,114,115
 556 -31 556 -31 477.5 5.5 c 128,-1,116
 399 42 399 42 318 106 c 1,117,118
 208 216 208 216 148.5 377.5 c 128,-1,119
 89 539 89 539 89 749 c 0,120,121
 89 913 89 913 132 1045.5 c 128,-1,122
 175 1178 175 1178 260 1281 c 0,123,124
 353 1392 353 1392 482 1449.5 c 128,-1,125
 611 1507 611 1507 774 1507 c 0,126,127
 909 1507 909 1507 1021 1467 c 128,-1,128
 1133 1427 1133 1427 1208 1361 c 1,129,130
 1280 1291 1280 1291 1325.5 1200.5 c 128,-1,131
 1371 1110 1371 1110 1383 1007 c 1,132,-1
 1163 1007 l 1,0,1
EndSplineSet
Substitution2: "<17013,16013> Islamic Ornamental lookup 65 subtable" Ccedilla
Substitution2: "<17010,16010> Urdu Swash lookup 62 subtable" Ccedilla
EndChar

StartChar: Eacute
Encoding: 201 201 101
Width: 1366
GlyphClass: 2
Flags: W
LayerCount: 2
Fore
SplineSet
1015 1864 m 1,0,1
 990 1837 990 1837 961 1805.5 c 128,-1,2
 932 1774 932 1774 902 1742 c 128,-1,3
 872 1710 872 1710 843.5 1679 c 128,-1,4
 815 1648 815 1648 792 1623 c 1,5,-1
 793 1624 l 1,6,7
 789 1618 789 1618 786.5 1615 c 128,-1,8
 784 1612 784 1612 782 1610 c 0,9,10
 777 1605 777 1605 772 1600 c 128,-1,11
 767 1595 767 1595 762 1590 c 0,12,13
 754 1582 754 1582 743.5 1570.5 c 128,-1,14
 733 1559 733 1559 725 1551 c 1,15,-1
 554 1551 l 1,16,17
 556 1554 556 1554 562 1563.5 c 128,-1,18
 568 1573 568 1573 575 1583.5 c 128,-1,19
 582 1594 582 1594 588 1603 c 128,-1,20
 594 1612 594 1612 596 1615 c 0,21,22
 604 1629 604 1629 613 1643.5 c 128,-1,23
 622 1658 622 1658 630 1672 c 1,24,-1
 630 1671 l 1,25,26
 634 1679 634 1679 637 1682 c 1,27,-1
 636 1680 l 1,28,29
 640 1685 640 1685 643 1690 c 128,-1,30
 646 1695 646 1695 648 1700 c 0,31,32
 663 1724 663 1724 679.5 1749.5 c 128,-1,33
 696 1775 696 1775 711 1800 c 0,34,35
 720 1814 720 1814 731.5 1832 c 128,-1,36
 743 1850 743 1850 751 1864 c 1,37,-1
 1015 1864 l 1,0,1
171 1468 m 1,38,-1
 1250 1468 l 1,39,-1
 1250 1261 l 1,40,-1
 393 1261 l 1,41,-1
 393 856 l 1,42,-1
 1185 856 l 1,43,-1
 1185 659 l 1,44,-1
 393 659 l 1,45,-1
 393 203 l 1,46,-1
 1265 203 l 1,47,-1
 1265 0 l 1,48,-1
 171 0 l 1,49,-1
 171 1468 l 1,38,-1
EndSplineSet
Substitution2: "<17013,16013> Islamic Ornamental lookup 65 subtable" Eacute
Substitution2: "<17010,16010> Urdu Swash lookup 62 subtable" Eacute
EndChar

StartChar: Ntilde
Encoding: 209 209 102
Width: 1479
GlyphClass: 2
Flags: W
LayerCount: 2
Fore
SplineSet
780 1767 m 0,0,1
 806 1756 806 1756 827.5 1749.5 c 128,-1,2
 849 1743 849 1743 870 1743 c 0,3,4
 916 1743 916 1743 936 1769 c 1,5,-1
 936 1768 l 1,6,7
 941 1776 941 1776 945 1790.5 c 128,-1,8
 949 1805 949 1805 953 1832 c 1,9,-1
 1089 1832 l 1,10,11
 1075 1759 1075 1759 1052 1708 c 128,-1,12
 1029 1657 1029 1657 1000 1634 c 0,13,14
 970 1611 970 1611 934 1597 c 128,-1,15
 898 1583 898 1583 862 1583 c 0,16,17
 852 1583 852 1583 837 1585.5 c 128,-1,18
 822 1588 822 1588 805 1591.5 c 128,-1,19
 788 1595 788 1595 771 1600 c 128,-1,20
 754 1605 754 1605 740 1610 c 0,21,22
 739 1610 739 1610 733.5 1612.5 c 128,-1,23
 728 1615 728 1615 723 1617 c 1,24,-1
 726 1615 l 2,25,26
 723 1616 723 1616 720.5 1617.5 c 128,-1,27
 718 1619 718 1619 715 1620 c 0,28,29
 706 1623 706 1623 699 1625.5 c 128,-1,30
 692 1628 692 1628 689 1630 c 2,31,-1
 692 1629 l 2,32,33
 650 1643 650 1643 620.5 1651.5 c 128,-1,34
 591 1660 591 1660 565 1660 c 0,35,36
 512 1660 512 1660 492 1570 c 1,37,-1
 365 1570 l 1,38,39
 383 1673 383 1673 414 1721 c 0,40,41
 443 1765 443 1765 488.5 1791 c 128,-1,42
 534 1817 534 1817 591 1817 c 0,43,44
 625 1817 625 1817 667.5 1806.5 c 128,-1,45
 710 1796 710 1796 780 1767 c 0,0,1
153 1468 m 1,46,-1
 408 1468 l 1,47,-1
 1109 345 l 1,48,-1
 1109 1468 l 1,49,-1
 1325 1468 l 1,50,-1
 1325 0 l 1,51,-1
 1081 0 l 1,52,-1
 370 1123 l 1,53,-1
 370 0 l 1,54,-1
 153 0 l 1,55,-1
 153 1468 l 1,46,-1
EndSplineSet
Substitution2: "<17013,16013> Islamic Ornamental lookup 65 subtable" Ntilde
Substitution2: "<17010,16010> Urdu Swash lookup 62 subtable" Ntilde
EndChar

StartChar: Odieresis
Encoding: 214 214 103
Width: 1593
GlyphClass: 2
Flags: W
LayerCount: 2
Fore
SplineSet
850 1847 m 1,0,-1
 1064 1847 l 1,1,-1
 1064 1613 l 1,2,-1
 850 1613 l 1,3,-1
 850 1847 l 1,0,-1
527 1847 m 1,4,-1
 741 1847 l 1,5,-1
 741 1613 l 1,6,-1
 527 1613 l 1,7,-1
 527 1847 l 1,4,-1
1281 756 m 0,8,9
 1281 1005 1281 1005 1152 1155 c 0,10,11
 1025 1303 1025 1303 802 1303 c 0,12,13
 585 1303 585 1303 450 1155 c 0,14,15
 313 1006 313 1006 313 714 c 0,16,17
 313 661 313 661 322 607 c 128,-1,18
 331 553 331 553 347 502 c 128,-1,19
 363 451 363 451 384.5 404.5 c 128,-1,20
 406 358 406 358 431 320 c 1,21,-1
 430 321 l 1,22,23
 489 247 489 247 585.5 205.5 c 128,-1,24
 682 164 682 164 810 164 c 0,25,26
 931 164 931 164 1022 210 c 128,-1,27
 1113 256 1113 256 1168 340 c 1,28,29
 1224 431 1224 431 1252.5 535.5 c 128,-1,30
 1281 640 1281 640 1281 756 c 0,8,9
1366 1257 m 0,31,32
 1439 1159 1439 1159 1475.5 1036 c 128,-1,33
 1512 913 1512 913 1512 759 c 0,34,35
 1512 601 1512 601 1467.5 461.5 c 128,-1,36
 1423 322 1423 322 1345 215 c 1,37,38
 1247 91 1247 91 1106 24.5 c 128,-1,39
 965 -42 965 -42 786 -42 c 0,40,41
 448 -42 448 -42 253 183 c 1,42,43
 80 398 80 398 80 727 c 0,44,45
 80 873 80 873 118.5 1001.5 c 128,-1,46
 157 1130 157 1130 228 1235 c 1,47,48
 324 1365 324 1365 465 1436 c 128,-1,49
 606 1507 606 1507 790 1507 c 0,50,51
 1179 1507 1179 1507 1366 1257 c 0,31,32
EndSplineSet
Substitution2: "<17013,16013> Islamic Ornamental lookup 65 subtable" Odieresis
Substitution2: "<17010,16010> Urdu Swash lookup 62 subtable" Odieresis
EndChar

StartChar: Udieresis
Encoding: 220 220 104
Width: 1479
GlyphClass: 2
Flags: W
LayerCount: 2
Fore
SplineSet
480 1808 m 1,0,-1
 694 1808 l 1,1,-1
 694 1575 l 1,2,-1
 480 1575 l 1,3,-1
 480 1808 l 1,0,-1
803 1808 m 1,4,-1
 1017 1808 l 1,5,-1
 1017 1575 l 1,6,-1
 803 1575 l 1,7,-1
 803 1808 l 1,4,-1
396 1468 m 1,8,-1
 396 564 l 2,9,10
 396 486 396 486 410.5 424 c 128,-1,11
 425 362 425 362 451 312 c 1,12,-1
 451 313 l 1,13,14
 495 241 495 241 565.5 202.5 c 128,-1,15
 636 164 636 164 732 164 c 0,16,17
 851 164 851 164 932 204.5 c 128,-1,18
 1013 245 1013 245 1056 323 c 1,19,20
 1078 367 1078 367 1089.5 426.5 c 128,-1,21
 1101 486 1101 486 1101 564 c 2,22,-1
 1101 1468 l 1,23,-1
 1330 1468 l 1,24,-1
 1330 645 l 2,25,26
 1330 512 1330 512 1311 409 c 128,-1,27
 1292 306 1292 306 1256 232 c 1,28,29
 1187 103 1187 103 1059 32.5 c 128,-1,30
 931 -38 931 -38 748 -38 c 0,31,32
 566 -38 566 -38 438 32.5 c 128,-1,33
 310 103 310 103 241 232 c 1,34,35
 205 306 205 306 186 409 c 128,-1,36
 167 512 167 512 167 645 c 2,37,-1
 167 1468 l 1,38,-1
 396 1468 l 1,8,-1
EndSplineSet
Substitution2: "<17013,16013> Islamic Ornamental lookup 65 subtable" Udieresis
Substitution2: "<17010,16010> Urdu Swash lookup 62 subtable" Udieresis
EndChar

StartChar: aacute
Encoding: 225 225 105
Width: 1139
GlyphClass: 2
Flags: W
LayerCount: 2
Fore
SplineSet
855 1501 m 1,0,1
 834 1478 834 1478 808 1450 c 128,-1,2
 782 1422 782 1422 755 1392.5 c 128,-1,3
 728 1363 728 1363 702.5 1335.5 c 128,-1,4
 677 1308 677 1308 658 1287 c 1,5,-1
 654 1282 l 1,6,-1
 654 1283 l 1,7,8
 649 1277 649 1277 644 1271.5 c 128,-1,9
 639 1266 639 1266 634 1261 c 0,10,11
 626 1253 626 1253 618 1243 c 128,-1,12
 610 1233 610 1233 602 1225 c 0,13,14
 598 1221 598 1221 594.5 1217 c 128,-1,15
 591 1213 591 1213 586 1208 c 0,16,17
 582 1204 582 1204 578 1199.5 c 128,-1,18
 574 1195 574 1195 566 1186 c 1,19,-1
 393 1186 l 1,20,21
 396 1190 396 1190 401 1198 c 128,-1,22
 406 1206 406 1206 411.5 1215 c 128,-1,23
 417 1224 417 1224 422.5 1233 c 128,-1,24
 428 1242 428 1242 431 1247 c 0,25,26
 438 1258 438 1258 444 1267.5 c 128,-1,27
 450 1277 450 1277 455 1285 c 0,28,29
 457 1289 457 1289 460 1293 c 128,-1,30
 463 1297 463 1297 465 1301 c 0,31,32
 468 1308 468 1308 472.5 1315.5 c 128,-1,33
 477 1323 477 1323 481 1328 c 0,34,35
 507 1368 507 1368 536.5 1413.5 c 128,-1,36
 566 1459 566 1459 593 1501 c 1,37,-1
 855 1501 l 1,0,1
465 145 m 0,38,39
 507 145 507 145 553 157 c 128,-1,40
 599 169 599 169 638 187 c 1,41,42
 701 222 701 222 738.5 278 c 128,-1,43
 776 334 776 334 776 406 c 2,44,-1
 776 524 l 1,45,46
 738 507 738 507 693.5 495.5 c 128,-1,47
 649 484 649 484 611 479 c 2,48,-1
 504 465 l 1,49,50
 463 458 463 458 425 449 c 128,-1,51
 387 440 387 440 367 428 c 0,52,53
 334 407 334 407 312.5 373 c 128,-1,54
 291 339 291 339 291 295 c 0,55,56
 291 262 291 262 304.5 234.5 c 128,-1,57
 318 207 318 207 342 187 c 1,58,59
 368 168 368 168 399 156.5 c 128,-1,60
 430 145 430 145 465 145 c 0,38,39
702 666 m 2,61,62
 724 668 724 668 742 680.5 c 128,-1,63
 760 693 760 693 771 709 c 1,64,65
 781 734 781 734 781 769 c 0,66,67
 781 852 781 852 721 888.5 c 128,-1,68
 661 925 661 925 549 925 c 0,69,70
 486 925 486 925 438.5 906 c 128,-1,71
 391 887 391 887 364 855 c 1,72,-1
 365 856 l 1,73,74
 353 840 353 840 342.5 806 c 128,-1,75
 332 772 332 772 325 729 c 1,76,-1
 132 729 l 1,77,78
 135 843 135 843 168 915 c 128,-1,79
 201 987 201 987 263 1027 c 1,80,81
 327 1065 327 1065 398 1084.5 c 128,-1,82
 469 1104 469 1104 553 1104 c 0,83,84
 647 1104 647 1104 724.5 1085.5 c 128,-1,85
 802 1067 802 1067 862 1032 c 1,86,87
 983 956 983 956 983 799 c 2,88,-1
 983 195 l 2,89,90
 983 175 983 175 991.5 162.5 c 128,-1,91
 1000 150 1000 150 1026 150 c 0,92,93
 1034 150 1034 150 1050 152.5 c 128,-1,94
 1066 155 1066 155 1099 162 c 1,95,-1
 1099 1 l 1,96,97
 1073 -9 1073 -9 1053.5 -14 c 128,-1,98
 1034 -19 1034 -19 1023 -20 c 0,99,100
 1012 -22 1012 -22 995.5 -22.5 c 128,-1,101
 979 -23 979 -23 962 -23 c 0,102,103
 916 -23 916 -23 878.5 -3 c 128,-1,104
 841 17 841 17 819 47 c 0,105,106
 809 60 809 60 802.5 78 c 128,-1,107
 796 96 796 96 791 121 c 1,108,109
 762 92 762 92 726 65.5 c 128,-1,110
 690 39 690 39 652 19 c 1,111,112
 599 -7 599 -7 541.5 -21 c 128,-1,113
 484 -35 484 -35 423 -35 c 0,114,115
 350 -35 350 -35 285.5 -11 c 128,-1,116
 221 13 221 13 175 57 c 0,117,118
 127 104 127 104 102.5 162.5 c 128,-1,119
 78 221 78 221 78 291 c 0,120,121
 78 366 78 366 102.5 425.5 c 128,-1,122
 127 485 127 485 174 528 c 1,123,124
 219 567 219 567 283 593 c 128,-1,125
 347 619 347 619 421 630 c 1,126,-1
 702 666 l 2,61,62
EndSplineSet
Substitution2: "<17013,16013> Islamic Ornamental lookup 65 subtable" aacute
Substitution2: "<17010,16010> Urdu Swash lookup 62 subtable" aacute
EndChar

StartChar: agrave
Encoding: 224 224 106
Width: 1139
GlyphClass: 2
Flags: W
LayerCount: 2
Fore
SplineSet
719 1186 m 1,0,-1
 551 1186 l 1,1,2
 534 1204 534 1204 515 1224.5 c 128,-1,3
 496 1245 496 1245 479 1263 c 0,4,5
 464 1279 464 1279 449 1295.5 c 128,-1,6
 434 1312 434 1312 420 1327 c 0,7,8
 405 1344 405 1344 389 1360.5 c 128,-1,9
 373 1377 373 1377 358 1394 c 0,10,11
 351 1402 351 1402 337 1416.5 c 128,-1,12
 323 1431 323 1431 308 1447 c 128,-1,13
 293 1463 293 1463 279.5 1478 c 128,-1,14
 266 1493 266 1493 258 1501 c 1,15,-1
 523 1501 l 1,16,-1
 719 1186 l 1,0,-1
465 145 m 0,17,18
 507 145 507 145 553 157 c 128,-1,19
 599 169 599 169 638 187 c 1,20,21
 701 222 701 222 738.5 278 c 128,-1,22
 776 334 776 334 776 406 c 2,23,-1
 776 524 l 1,24,25
 738 507 738 507 693.5 495.5 c 128,-1,26
 649 484 649 484 611 479 c 2,27,-1
 504 465 l 1,28,29
 463 458 463 458 425 449 c 128,-1,30
 387 440 387 440 367 428 c 0,31,32
 334 407 334 407 312.5 373 c 128,-1,33
 291 339 291 339 291 295 c 0,34,35
 291 262 291 262 304.5 234.5 c 128,-1,36
 318 207 318 207 342 187 c 1,37,38
 368 168 368 168 399 156.5 c 128,-1,39
 430 145 430 145 465 145 c 0,17,18
702 666 m 2,40,41
 724 668 724 668 742 680.5 c 128,-1,42
 760 693 760 693 771 709 c 1,43,44
 781 734 781 734 781 769 c 0,45,46
 781 852 781 852 721 888.5 c 128,-1,47
 661 925 661 925 549 925 c 0,48,49
 486 925 486 925 438.5 906 c 128,-1,50
 391 887 391 887 364 855 c 1,51,-1
 365 856 l 1,52,53
 353 840 353 840 342.5 806 c 128,-1,54
 332 772 332 772 325 729 c 1,55,-1
 132 729 l 1,56,57
 135 843 135 843 168 915 c 128,-1,58
 201 987 201 987 263 1027 c 1,59,60
 327 1065 327 1065 398 1084.5 c 128,-1,61
 469 1104 469 1104 553 1104 c 0,62,63
 647 1104 647 1104 724.5 1085.5 c 128,-1,64
 802 1067 802 1067 862 1032 c 1,65,66
 983 956 983 956 983 799 c 2,67,-1
 983 195 l 2,68,69
 983 175 983 175 991.5 162.5 c 128,-1,70
 1000 150 1000 150 1026 150 c 0,71,72
 1034 150 1034 150 1050 152.5 c 128,-1,73
 1066 155 1066 155 1099 162 c 1,74,-1
 1099 1 l 1,75,76
 1073 -9 1073 -9 1053.5 -14 c 128,-1,77
 1034 -19 1034 -19 1023 -20 c 0,78,79
 1012 -22 1012 -22 995.5 -22.5 c 128,-1,80
 979 -23 979 -23 962 -23 c 0,81,82
 916 -23 916 -23 878.5 -3 c 128,-1,83
 841 17 841 17 819 47 c 0,84,85
 809 60 809 60 802.5 78 c 128,-1,86
 796 96 796 96 791 121 c 1,87,88
 762 92 762 92 726 65.5 c 128,-1,89
 690 39 690 39 652 19 c 1,90,91
 599 -7 599 -7 541.5 -21 c 128,-1,92
 484 -35 484 -35 423 -35 c 0,93,94
 350 -35 350 -35 285.5 -11 c 128,-1,95
 221 13 221 13 175 57 c 0,96,97
 127 104 127 104 102.5 162.5 c 128,-1,98
 78 221 78 221 78 291 c 0,99,100
 78 366 78 366 102.5 425.5 c 128,-1,101
 127 485 127 485 174 528 c 1,102,103
 219 567 219 567 283 593 c 128,-1,104
 347 619 347 619 421 630 c 1,105,-1
 702 666 l 2,40,41
EndSplineSet
Substitution2: "<17013,16013> Islamic Ornamental lookup 65 subtable" agrave
Substitution2: "<17010,16010> Urdu Swash lookup 62 subtable" agrave
EndChar

StartChar: acircumflex
Encoding: 226 226 107
Width: 1139
GlyphClass: 2
Flags: W
LayerCount: 2
Fore
SplineSet
659 1501 m 1,0,1
 673 1482 673 1482 689 1460 c 128,-1,2
 705 1438 705 1438 718 1418 c 0,3,4
 723 1411 723 1411 727.5 1404.5 c 128,-1,5
 732 1398 732 1398 737 1391 c 1,6,-1
 737 1392 l 1,7,8
 740 1388 740 1388 743 1384 c 128,-1,9
 746 1380 746 1380 751 1372 c 2,10,-1
 750 1374 l 2,11,12
 751 1372 751 1372 755 1366 c 0,13,14
 757 1363 757 1363 758 1361 c 0,15,16
 772 1342 772 1342 786 1322 c 128,-1,17
 800 1302 800 1302 814 1282 c 0,18,19
 819 1274 819 1274 826.5 1265 c 128,-1,20
 834 1256 834 1256 841 1245 c 0,21,22
 844 1240 844 1240 850 1231.5 c 128,-1,23
 856 1223 856 1223 862 1214 c 128,-1,24
 868 1205 868 1205 873 1197.5 c 128,-1,25
 878 1190 878 1190 881 1186 c 1,26,-1
 683 1186 l 1,27,-1
 559 1361 l 1,28,29
 556 1357 556 1357 553 1353 c 128,-1,30
 550 1349 550 1349 547 1344 c 0,31,32
 540 1335 540 1335 533.5 1327 c 128,-1,33
 527 1319 527 1319 520 1309 c 0,34,35
 518 1307 518 1307 515.5 1302.5 c 128,-1,36
 513 1298 513 1298 511 1296 c 256,37,38
 509 1294 509 1294 509 1294 c 1,39,-1
 509 1293 l 1,40,-1
 511 1295 l 1,41,42
 504 1284 504 1284 497 1275 c 128,-1,43
 490 1266 490 1266 483 1256 c 0,44,45
 478 1249 478 1249 472 1239.5 c 128,-1,46
 466 1230 466 1230 460 1222 c 256,47,48
 454 1214 454 1214 446 1204 c 128,-1,49
 438 1194 438 1194 433 1186 c 1,50,-1
 236 1186 l 1,51,52
 248 1203 248 1203 264.5 1226.5 c 128,-1,53
 281 1250 281 1250 297.5 1274 c 128,-1,54
 314 1298 314 1298 330 1321 c 128,-1,55
 346 1344 346 1344 357 1360 c 0,56,57
 366 1372 366 1372 374 1384 c 128,-1,58
 382 1396 382 1396 391 1409 c 1,59,-1
 391 1408 l 1,60,61
 402 1424 402 1424 413.5 1440 c 128,-1,62
 425 1456 425 1456 436 1472 c 1,63,-1
 436 1471 l 1,64,65
 440 1476 440 1476 446 1485.5 c 128,-1,66
 452 1495 452 1495 457 1501 c 1,67,-1
 659 1501 l 1,0,1
465 145 m 0,68,69
 507 145 507 145 553 157 c 128,-1,70
 599 169 599 169 638 187 c 1,71,72
 701 222 701 222 738.5 278 c 128,-1,73
 776 334 776 334 776 406 c 2,74,-1
 776 524 l 1,75,76
 738 507 738 507 693.5 495.5 c 128,-1,77
 649 484 649 484 611 479 c 2,78,-1
 504 465 l 1,79,80
 463 458 463 458 425 449 c 128,-1,81
 387 440 387 440 367 428 c 0,82,83
 334 407 334 407 312.5 373 c 128,-1,84
 291 339 291 339 291 295 c 0,85,86
 291 262 291 262 304.5 234.5 c 128,-1,87
 318 207 318 207 342 187 c 1,88,89
 368 168 368 168 399 156.5 c 128,-1,90
 430 145 430 145 465 145 c 0,68,69
702 666 m 2,91,92
 724 668 724 668 742 680.5 c 128,-1,93
 760 693 760 693 771 709 c 1,94,95
 781 734 781 734 781 769 c 0,96,97
 781 852 781 852 721 888.5 c 128,-1,98
 661 925 661 925 549 925 c 0,99,100
 486 925 486 925 438.5 906 c 128,-1,101
 391 887 391 887 364 855 c 1,102,-1
 365 856 l 1,103,104
 353 840 353 840 342.5 806 c 128,-1,105
 332 772 332 772 325 729 c 1,106,-1
 132 729 l 1,107,108
 135 843 135 843 168 915 c 128,-1,109
 201 987 201 987 263 1027 c 1,110,111
 327 1065 327 1065 398 1084.5 c 128,-1,112
 469 1104 469 1104 553 1104 c 0,113,114
 647 1104 647 1104 724.5 1085.5 c 128,-1,115
 802 1067 802 1067 862 1032 c 1,116,117
 983 956 983 956 983 799 c 2,118,-1
 983 195 l 2,119,120
 983 175 983 175 991.5 162.5 c 128,-1,121
 1000 150 1000 150 1026 150 c 0,122,123
 1034 150 1034 150 1050 152.5 c 128,-1,124
 1066 155 1066 155 1099 162 c 1,125,-1
 1099 1 l 1,126,127
 1073 -9 1073 -9 1053.5 -14 c 128,-1,128
 1034 -19 1034 -19 1023 -20 c 0,129,130
 1012 -22 1012 -22 995.5 -22.5 c 128,-1,131
 979 -23 979 -23 962 -23 c 0,132,133
 916 -23 916 -23 878.5 -3 c 128,-1,134
 841 17 841 17 819 47 c 0,135,136
 809 60 809 60 802.5 78 c 128,-1,137
 796 96 796 96 791 121 c 1,138,139
 762 92 762 92 726 65.5 c 128,-1,140
 690 39 690 39 652 19 c 1,141,142
 599 -7 599 -7 541.5 -21 c 128,-1,143
 484 -35 484 -35 423 -35 c 0,144,145
 350 -35 350 -35 285.5 -11 c 128,-1,146
 221 13 221 13 175 57 c 0,147,148
 127 104 127 104 102.5 162.5 c 128,-1,149
 78 221 78 221 78 291 c 0,150,151
 78 366 78 366 102.5 425.5 c 128,-1,152
 127 485 127 485 174 528 c 1,153,154
 219 567 219 567 283 593 c 128,-1,155
 347 619 347 619 421 630 c 1,156,-1
 702 666 l 2,91,92
EndSplineSet
Substitution2: "<17013,16013> Islamic Ornamental lookup 65 subtable" acircumflex
Substitution2: "<17010,16010> Urdu Swash lookup 62 subtable" acircumflex
EndChar

StartChar: adieresis
Encoding: 228 228 108
Width: 1139
GlyphClass: 2
Flags: W
LayerCount: 2
Fore
SplineSet
288 1445 m 1,0,-1
 502 1445 l 1,1,-1
 502 1211 l 1,2,-1
 288 1211 l 1,3,-1
 288 1445 l 1,0,-1
612 1445 m 1,4,-1
 826 1445 l 1,5,-1
 826 1211 l 1,6,-1
 612 1211 l 1,7,-1
 612 1445 l 1,4,-1
465 145 m 0,8,9
 507 145 507 145 553 157 c 128,-1,10
 599 169 599 169 638 187 c 1,11,12
 701 222 701 222 738.5 278 c 128,-1,13
 776 334 776 334 776 406 c 2,14,-1
 776 524 l 1,15,16
 738 507 738 507 693.5 495.5 c 128,-1,17
 649 484 649 484 611 479 c 2,18,-1
 504 465 l 1,19,20
 463 458 463 458 425 449 c 128,-1,21
 387 440 387 440 367 428 c 0,22,23
 334 407 334 407 312.5 373 c 128,-1,24
 291 339 291 339 291 295 c 0,25,26
 291 262 291 262 304.5 234.5 c 128,-1,27
 318 207 318 207 342 187 c 1,28,29
 368 168 368 168 399 156.5 c 128,-1,30
 430 145 430 145 465 145 c 0,8,9
702 666 m 2,31,32
 724 668 724 668 742 680.5 c 128,-1,33
 760 693 760 693 771 709 c 1,34,35
 781 734 781 734 781 769 c 0,36,37
 781 852 781 852 721 888.5 c 128,-1,38
 661 925 661 925 549 925 c 0,39,40
 486 925 486 925 438.5 906 c 128,-1,41
 391 887 391 887 364 855 c 1,42,-1
 365 856 l 1,43,44
 353 840 353 840 342.5 806 c 128,-1,45
 332 772 332 772 325 729 c 1,46,-1
 132 729 l 1,47,48
 135 843 135 843 168 915 c 128,-1,49
 201 987 201 987 263 1027 c 1,50,51
 327 1065 327 1065 398 1084.5 c 128,-1,52
 469 1104 469 1104 553 1104 c 0,53,54
 647 1104 647 1104 724.5 1085.5 c 128,-1,55
 802 1067 802 1067 862 1032 c 1,56,57
 983 956 983 956 983 799 c 2,58,-1
 983 195 l 2,59,60
 983 175 983 175 991.5 162.5 c 128,-1,61
 1000 150 1000 150 1026 150 c 0,62,63
 1034 150 1034 150 1050 152.5 c 128,-1,64
 1066 155 1066 155 1099 162 c 1,65,-1
 1099 1 l 1,66,67
 1073 -9 1073 -9 1053.5 -14 c 128,-1,68
 1034 -19 1034 -19 1023 -20 c 0,69,70
 1012 -22 1012 -22 995.5 -22.5 c 128,-1,71
 979 -23 979 -23 962 -23 c 0,72,73
 916 -23 916 -23 878.5 -3 c 128,-1,74
 841 17 841 17 819 47 c 0,75,76
 809 60 809 60 802.5 78 c 128,-1,77
 796 96 796 96 791 121 c 1,78,79
 762 92 762 92 726 65.5 c 128,-1,80
 690 39 690 39 652 19 c 1,81,82
 599 -7 599 -7 541.5 -21 c 128,-1,83
 484 -35 484 -35 423 -35 c 0,84,85
 350 -35 350 -35 285.5 -11 c 128,-1,86
 221 13 221 13 175 57 c 0,87,88
 127 104 127 104 102.5 162.5 c 128,-1,89
 78 221 78 221 78 291 c 0,90,91
 78 366 78 366 102.5 425.5 c 128,-1,92
 127 485 127 485 174 528 c 1,93,94
 219 567 219 567 283 593 c 128,-1,95
 347 619 347 619 421 630 c 1,96,-1
 702 666 l 2,31,32
EndSplineSet
Substitution2: "<17013,16013> Islamic Ornamental lookup 65 subtable" adieresis
Substitution2: "<17010,16010> Urdu Swash lookup 62 subtable" adieresis
EndChar

StartChar: atilde
Encoding: 227 227 109
Width: 1139
GlyphClass: 2
Flags: W
LayerCount: 2
Fore
SplineSet
567 1248 m 1,0,-1
 568 1248 l 1,1,-1
 567 1248 l 1,0,-1
567 1248 m 1,2,-1
 565 1250 l 1,3,-1
 567 1248 l 1,2,-1
612 1403 m 0,4,5
 638 1392 638 1392 659 1385 c 128,-1,6
 680 1378 680 1378 702 1378 c 0,7,8
 725 1378 725 1378 741.5 1385.5 c 128,-1,9
 758 1393 758 1393 767 1406 c 1,10,-1
 767 1405 l 1,11,12
 772 1412 772 1412 776 1427 c 128,-1,13
 780 1442 780 1442 784 1468 c 1,14,-1
 919 1468 l 1,15,16
 891 1319 891 1319 832 1269 c 1,17,18
 802 1246 802 1246 766.5 1232.5 c 128,-1,19
 731 1219 731 1219 694 1219 c 0,20,21
 671 1219 671 1219 635 1227 c 128,-1,22
 599 1235 599 1235 569 1247 c 1,23,24
 569 1247 569 1247 568 1248 c 1,25,26
 569 1248 569 1248 569 1247.5 c 128,-1,27
 569 1247 569 1247 570 1247 c 2,28,-1
 571 1247 l 2,29,30
 570 1247 570 1247 569.5 1247.5 c 128,-1,31
 569 1248 569 1248 568 1248 c 2,32,-1
 567 1248 l 1,33,34
 564 1250 564 1250 559.5 1251 c 128,-1,35
 555 1252 555 1252 550 1254 c 256,36,37
 545 1256 545 1256 538 1258 c 128,-1,38
 531 1260 531 1260 527 1262 c 0,39,40
 525 1263 525 1263 524.5 1263 c 128,-1,41
 524 1263 524 1263 522 1264 c 0,42,43
 480 1279 480 1279 450.5 1288 c 128,-1,44
 421 1297 421 1297 397 1297 c 0,45,46
 371 1297 371 1297 352.5 1273.5 c 128,-1,47
 334 1250 334 1250 324 1205 c 1,48,-1
 197 1205 l 1,49,50
 206 1256 206 1256 217.5 1294 c 128,-1,51
 229 1332 229 1332 244 1357 c 1,52,53
 274 1402 274 1402 319 1427.5 c 128,-1,54
 364 1453 364 1453 422 1453 c 0,55,56
 440 1453 440 1453 458.5 1451 c 128,-1,57
 477 1449 477 1449 499.5 1443 c 128,-1,58
 522 1437 522 1437 549.5 1427.5 c 128,-1,59
 577 1418 577 1418 612 1403 c 0,4,5
465 145 m 0,60,61
 507 145 507 145 553 157 c 128,-1,62
 599 169 599 169 638 187 c 1,63,64
 701 222 701 222 738.5 278 c 128,-1,65
 776 334 776 334 776 406 c 2,66,-1
 776 524 l 1,67,68
 738 507 738 507 693.5 495.5 c 128,-1,69
 649 484 649 484 611 479 c 2,70,-1
 504 465 l 1,71,72
 463 458 463 458 425 449 c 128,-1,73
 387 440 387 440 367 428 c 0,74,75
 334 407 334 407 312.5 373 c 128,-1,76
 291 339 291 339 291 295 c 0,77,78
 291 262 291 262 304.5 234.5 c 128,-1,79
 318 207 318 207 342 187 c 1,80,81
 368 168 368 168 399 156.5 c 128,-1,82
 430 145 430 145 465 145 c 0,60,61
702 666 m 2,83,84
 724 668 724 668 742 680.5 c 128,-1,85
 760 693 760 693 771 709 c 1,86,87
 781 734 781 734 781 769 c 0,88,89
 781 852 781 852 721 888.5 c 128,-1,90
 661 925 661 925 549 925 c 0,91,92
 486 925 486 925 438.5 906 c 128,-1,93
 391 887 391 887 364 855 c 1,94,-1
 365 856 l 1,95,96
 353 840 353 840 342.5 806 c 128,-1,97
 332 772 332 772 325 729 c 1,98,-1
 132 729 l 1,99,100
 135 843 135 843 168 915 c 128,-1,101
 201 987 201 987 263 1027 c 1,102,103
 327 1065 327 1065 398 1084.5 c 128,-1,104
 469 1104 469 1104 553 1104 c 0,105,106
 647 1104 647 1104 724.5 1085.5 c 128,-1,107
 802 1067 802 1067 862 1032 c 1,108,109
 983 956 983 956 983 799 c 2,110,-1
 983 195 l 2,111,112
 983 175 983 175 991.5 162.5 c 128,-1,113
 1000 150 1000 150 1026 150 c 0,114,115
 1034 150 1034 150 1050 152.5 c 128,-1,116
 1066 155 1066 155 1099 162 c 1,117,-1
 1099 1 l 1,118,119
 1073 -9 1073 -9 1053.5 -14 c 128,-1,120
 1034 -19 1034 -19 1023 -20 c 0,121,122
 1012 -22 1012 -22 995.5 -22.5 c 128,-1,123
 979 -23 979 -23 962 -23 c 0,124,125
 916 -23 916 -23 878.5 -3 c 128,-1,126
 841 17 841 17 819 47 c 0,127,128
 809 60 809 60 802.5 78 c 128,-1,129
 796 96 796 96 791 121 c 1,130,131
 762 92 762 92 726 65.5 c 128,-1,132
 690 39 690 39 652 19 c 1,133,134
 599 -7 599 -7 541.5 -21 c 128,-1,135
 484 -35 484 -35 423 -35 c 0,136,137
 350 -35 350 -35 285.5 -11 c 128,-1,138
 221 13 221 13 175 57 c 0,139,140
 127 104 127 104 102.5 162.5 c 128,-1,141
 78 221 78 221 78 291 c 0,142,143
 78 366 78 366 102.5 425.5 c 128,-1,144
 127 485 127 485 174 528 c 1,145,146
 219 567 219 567 283 593 c 128,-1,147
 347 619 347 619 421 630 c 1,148,-1
 702 666 l 2,83,84
EndSplineSet
Substitution2: "<17013,16013> Islamic Ornamental lookup 65 subtable" atilde
Substitution2: "<17010,16010> Urdu Swash lookup 62 subtable" atilde
EndChar

StartChar: aring
Encoding: 229 229 110
Width: 1139
GlyphClass: 2
Flags: W
LayerCount: 2
Fore
SplineSet
557 1294 m 0,0,1
 578 1294 578 1294 597.5 1302 c 128,-1,2
 617 1310 617 1310 632 1326 c 0,3,4
 664 1358 664 1358 664 1402 c 0,5,6
 664 1447 664 1447 632 1478 c 1,7,8
 617 1495 617 1495 598 1502 c 128,-1,9
 579 1509 579 1509 557 1509 c 256,10,11
 535 1509 535 1509 517 1502 c 128,-1,12
 499 1495 499 1495 482 1478 c 0,13,14
 450 1446 450 1446 450 1402 c 0,15,16
 450 1360 450 1360 482 1326 c 1,17,18
 516 1294 516 1294 557 1294 c 0,0,1
465 145 m 0,19,20
 507 145 507 145 553 157 c 128,-1,21
 599 169 599 169 638 187 c 1,22,23
 701 222 701 222 738.5 278 c 128,-1,24
 776 334 776 334 776 406 c 2,25,-1
 776 524 l 1,26,27
 738 507 738 507 693.5 495.5 c 128,-1,28
 649 484 649 484 611 479 c 2,29,-1
 504 465 l 1,30,31
 463 458 463 458 425 449 c 128,-1,32
 387 440 387 440 367 428 c 0,33,34
 334 407 334 407 312.5 373 c 128,-1,35
 291 339 291 339 291 295 c 0,36,37
 291 262 291 262 304.5 234.5 c 128,-1,38
 318 207 318 207 342 187 c 1,39,40
 368 168 368 168 399 156.5 c 128,-1,41
 430 145 430 145 465 145 c 0,19,20
557 1622 m 0,42,43
 647 1622 647 1622 712 1557 c 256,44,45
 777 1492 777 1492 777 1402 c 0,46,47
 777 1310 777 1310 712 1245 c 0,48,49
 648 1181 648 1181 557 1181 c 0,50,51
 465 1181 465 1181 402 1246 c 1,52,53
 337 1310 337 1310 337 1402 c 0,54,55
 337 1492 337 1492 402 1556 c 1,56,57
 465 1622 465 1622 557 1622 c 0,42,43
702 666 m 2,58,59
 724 668 724 668 742 680.5 c 128,-1,60
 760 693 760 693 771 709 c 1,61,62
 781 734 781 734 781 769 c 0,63,64
 781 852 781 852 721 888.5 c 128,-1,65
 661 925 661 925 549 925 c 0,66,67
 486 925 486 925 438.5 906 c 128,-1,68
 391 887 391 887 364 855 c 1,69,-1
 365 856 l 1,70,71
 353 840 353 840 342.5 806 c 128,-1,72
 332 772 332 772 325 729 c 1,73,-1
 132 729 l 1,74,75
 135 843 135 843 168 915 c 128,-1,76
 201 987 201 987 263 1027 c 1,77,78
 327 1065 327 1065 398 1084.5 c 128,-1,79
 469 1104 469 1104 553 1104 c 0,80,81
 647 1104 647 1104 724.5 1085.5 c 128,-1,82
 802 1067 802 1067 862 1032 c 1,83,84
 983 956 983 956 983 799 c 2,85,-1
 983 195 l 2,86,87
 983 175 983 175 991.5 162.5 c 128,-1,88
 1000 150 1000 150 1026 150 c 0,89,90
 1034 150 1034 150 1050 152.5 c 128,-1,91
 1066 155 1066 155 1099 162 c 1,92,-1
 1099 1 l 1,93,94
 1073 -9 1073 -9 1053.5 -14 c 128,-1,95
 1034 -19 1034 -19 1023 -20 c 0,96,97
 1012 -22 1012 -22 995.5 -22.5 c 128,-1,98
 979 -23 979 -23 962 -23 c 0,99,100
 916 -23 916 -23 878.5 -3 c 128,-1,101
 841 17 841 17 819 47 c 0,102,103
 809 60 809 60 802.5 78 c 128,-1,104
 796 96 796 96 791 121 c 1,105,106
 762 92 762 92 726 65.5 c 128,-1,107
 690 39 690 39 652 19 c 1,108,109
 599 -7 599 -7 541.5 -21 c 128,-1,110
 484 -35 484 -35 423 -35 c 0,111,112
 350 -35 350 -35 285.5 -11 c 128,-1,113
 221 13 221 13 175 57 c 0,114,115
 127 104 127 104 102.5 162.5 c 128,-1,116
 78 221 78 221 78 291 c 0,117,118
 78 366 78 366 102.5 425.5 c 128,-1,119
 127 485 127 485 174 528 c 1,120,121
 219 567 219 567 283 593 c 128,-1,122
 347 619 347 619 421 630 c 1,123,-1
 702 666 l 2,58,59
EndSplineSet
Substitution2: "<17013,16013> Islamic Ornamental lookup 65 subtable" aring
Substitution2: "<17010,16010> Urdu Swash lookup 62 subtable" aring
EndChar

StartChar: ccedilla
Encoding: 231 231 111
Width: 1024
GlyphClass: 2
Flags: W
LayerCount: 2
Fore
SplineSet
781 695 m 1,0,1
 760 808 760 808 713 862 c 0,2,3
 689 891 689 891 646 906 c 128,-1,4
 603 921 603 921 544 921 c 0,5,6
 469 921 469 921 410.5 878.5 c 128,-1,7
 352 836 352 836 317 765 c 1,8,-1
 318 766 l 1,9,10
 298 715 298 715 285 646.5 c 128,-1,11
 272 578 272 578 272 508 c 0,12,13
 272 431 272 431 287.5 367.5 c 128,-1,14
 303 304 303 304 336 253 c 1,15,16
 398 151 398 151 533 151 c 0,17,18
 635 151 635 151 696 217.5 c 128,-1,19
 757 284 757 284 782 402 c 1,20,-1
 985 402 l 1,21,22
 968 286 968 286 928 202 c 128,-1,23
 888 118 888 118 830 70 c 256,24,25
 772 22 772 22 702.5 -2.5 c 128,-1,26
 633 -27 633 -27 555 -30 c 1,27,28
 550 -38 550 -38 545 -44.5 c 128,-1,29
 540 -51 540 -51 535 -59 c 1,30,31
 530 -65 530 -65 526.5 -70 c 128,-1,32
 523 -75 523 -75 518 -81 c 2,33,-1
 514 -87 l 1,34,35
 523 -85 523 -85 532 -85 c 128,-1,36
 541 -85 541 -85 550 -85 c 0,37,38
 588 -85 588 -85 620 -96 c 128,-1,39
 652 -107 652 -107 675 -129 c 128,-1,40
 698 -151 698 -151 711 -182.5 c 128,-1,41
 724 -214 724 -214 724 -254 c 0,42,43
 724 -335 724 -335 660 -393 c 0,44,45
 628 -422 628 -422 581 -437 c 128,-1,46
 534 -452 534 -452 469 -452 c 0,47,48
 444 -452 444 -452 415 -447.5 c 128,-1,49
 386 -443 386 -443 357 -435 c 0,50,51
 338 -430 338 -430 309 -420.5 c 128,-1,52
 280 -411 280 -411 256 -403 c 1,53,54
 261 -383 261 -383 264 -378 c 128,-1,55
 267 -373 267 -373 270 -368 c 0,56,57
 272 -366 272 -366 273 -363.5 c 128,-1,58
 274 -361 274 -361 275 -359 c 0,59,60
 277 -355 277 -355 278 -351 c 128,-1,61
 279 -347 279 -347 281 -344 c 1,62,-1
 281 -343 l 1,63,64
 282 -341 282 -341 282.5 -339.5 c 128,-1,65
 283 -338 283 -338 286 -331 c 0,66,67
 287 -329 287 -329 287.5 -327 c 128,-1,68
 288 -325 288 -325 290 -323 c 0,69,70
 292 -319 292 -319 292 -317.5 c 128,-1,71
 292 -316 292 -316 294 -314 c 0,72,73
 296 -310 296 -310 299 -305 c 128,-1,74
 302 -300 302 -300 305 -296 c 1,75,76
 313 -298 313 -298 323 -300.5 c 128,-1,77
 333 -303 333 -303 338 -306 c 0,78,79
 339 -306 339 -306 340 -306.5 c 128,-1,80
 341 -307 341 -307 342 -307 c 0,81,82
 351 -309 351 -309 360 -312 c 128,-1,83
 369 -315 369 -315 375 -318 c 2,84,-1
 373 -317 l 1,85,86
 415 -328 415 -328 442 -328 c 0,87,88
 459 -328 459 -328 473 -325.5 c 128,-1,89
 487 -323 487 -323 499 -318 c 1,90,-1
 498 -318 l 1,91,92
 540 -303 540 -303 540 -260 c 0,93,94
 540 -234 540 -234 518 -216 c 128,-1,95
 496 -198 496 -198 460 -198 c 0,96,97
 439 -198 439 -198 421 -201.5 c 128,-1,98
 403 -205 403 -205 376 -215 c 1,99,-1
 365 -205 l 2,100,101
 363 -203 363 -203 362 -201.5 c 128,-1,102
 361 -200 361 -200 360 -199 c 0,103,104
 356 -195 356 -195 355 -193 c 0,105,106
 354 -192 354 -192 352.5 -189.5 c 128,-1,107
 351 -187 351 -187 350 -186 c 0,108,109
 345 -181 345 -181 336.5 -173.5 c 128,-1,110
 328 -166 328 -166 325 -163 c 1,111,-1
 424 -28 l 1,112,113
 355 -22 355 -22 300 7 c 128,-1,114
 245 36 245 36 199 86 c 1,115,116
 54 252 54 252 54 510 c 0,117,118
 54 792 54 792 192 951 c 1,119,120
 326 1109 326 1109 544 1109 c 0,121,122
 635 1109 635 1109 710.5 1086 c 128,-1,123
 786 1063 786 1063 843 1021 c 1,124,125
 896 977 896 977 932.5 894 c 128,-1,126
 969 811 969 811 983 695 c 1,127,-1
 781 695 l 1,0,1
EndSplineSet
Substitution2: "<17013,16013> Islamic Ornamental lookup 65 subtable" ccedilla
Substitution2: "<17010,16010> Urdu Swash lookup 62 subtable" ccedilla
EndChar

StartChar: eacute
Encoding: 233 233 112
Width: 1139
GlyphClass: 2
Flags: W
LayerCount: 2
Fore
SplineSet
858 1501 m 1,0,1
 849 1491 849 1491 836 1477 c 128,-1,2
 823 1463 823 1463 809.5 1448 c 128,-1,3
 796 1433 796 1433 783 1419 c 128,-1,4
 770 1405 770 1405 761 1395 c 0,5,6
 735 1367 735 1367 709.5 1339 c 128,-1,7
 684 1311 684 1311 661 1287 c 0,8,9
 658 1284 658 1284 655 1280 c 128,-1,10
 652 1276 652 1276 648 1272 c 0,11,12
 638 1263 638 1263 633 1255 c 0,13,14
 631 1253 631 1253 628.5 1250.5 c 128,-1,15
 626 1248 626 1248 622 1243 c 256,16,17
 618 1238 618 1238 614 1234.5 c 128,-1,18
 610 1231 610 1231 606 1226 c 0,19,20
 602 1222 602 1222 598 1217.5 c 128,-1,21
 594 1213 594 1213 589 1208 c 0,22,23
 586 1204 586 1204 582 1199.5 c 128,-1,24
 578 1195 578 1195 570 1186 c 1,25,-1
 397 1186 l 1,26,27
 400 1192 400 1192 406 1201 c 128,-1,28
 412 1210 412 1210 418 1219.5 c 128,-1,29
 424 1229 424 1229 429.5 1238 c 128,-1,30
 435 1247 435 1247 439 1251 c 1,31,32
 447 1265 447 1265 456.5 1279.5 c 128,-1,33
 466 1294 466 1294 475 1308 c 1,34,35
 482 1317 482 1317 492 1335.5 c 128,-1,36
 502 1354 502 1354 514 1374 c 0,37,38
 522 1387 522 1387 531 1400 c 128,-1,39
 540 1413 540 1413 548 1426 c 1,40,-1
 547 1426 l 1,41,42
 558 1443 558 1443 571 1463.5 c 128,-1,43
 584 1484 584 1484 594 1501 c 1,44,-1
 858 1501 l 1,0,1
841 639 m 1,45,46
 834 690 834 690 822.5 730 c 128,-1,47
 811 770 811 770 795 799 c 1,48,49
 760 856 760 856 702 887 c 128,-1,50
 644 918 644 918 567 918 c 0,51,52
 513 918 513 918 463.5 894.5 c 128,-1,53
 414 871 414 871 376 835 c 1,54,55
 346 798 346 798 322.5 746.5 c 128,-1,56
 299 695 299 695 293 639 c 1,57,-1
 841 639 l 1,45,46
1040 712 m 1,58,59
 1047 679 1047 679 1051 618 c 128,-1,60
 1055 557 1055 557 1055 467 c 1,61,-1
 288 467 l 1,62,63
 293 396 293 396 310.5 337.5 c 128,-1,64
 328 279 328 279 359 237 c 0,65,66
 424 146 424 146 565 146 c 0,67,68
 630 146 630 146 682.5 168.5 c 128,-1,69
 735 191 735 191 773 233 c 1,70,-1
 772 233 l 1,71,72
 792 257 792 257 810.5 289.5 c 128,-1,73
 829 322 829 322 840 359 c 1,74,-1
 1044 359 l 1,75,76
 1037 319 1037 319 1023.5 280 c 128,-1,77
 1010 241 1010 241 992 209 c 0,78,79
 972 173 972 173 950 142 c 128,-1,80
 928 111 928 111 904 88 c 0,81,82
 865 50 865 50 811 22.5 c 128,-1,83
 757 -5 757 -5 699 -22 c 1,84,85
 636 -37 636 -37 550 -37 c 0,86,87
 347 -37 347 -37 206 110 c 1,88,89
 67 258 67 258 67 519 c 0,90,91
 67 650 67 650 102 754 c 128,-1,92
 137 858 137 858 207 940 c 1,93,94
 349 1102 349 1102 578 1102 c 0,95,96
 635 1102 635 1102 691.5 1087.5 c 128,-1,97
 748 1073 748 1073 802 1047 c 1,98,99
 853 1021 853 1021 897 985.5 c 128,-1,100
 941 950 941 950 967 908 c 1,101,-1
 1040 712 l 1,58,59
EndSplineSet
Substitution2: "<17013,16013> Islamic Ornamental lookup 65 subtable" eacute
Substitution2: "<17010,16010> Urdu Swash lookup 62 subtable" eacute
EndChar

StartChar: egrave
Encoding: 232 232 113
Width: 1139
GlyphClass: 2
Flags: W
LayerCount: 2
Fore
SplineSet
723 1186 m 1,0,-1
 551 1186 l 1,1,2
 546 1192 546 1192 543 1195.5 c 128,-1,3
 540 1199 540 1199 537 1202 c 2,4,-1
 528 1214 l 1,5,6
 502 1243 502 1243 476.5 1271 c 128,-1,7
 451 1299 451 1299 425 1326 c 0,8,9
 417 1334 417 1334 410.5 1342 c 128,-1,10
 404 1350 404 1350 396 1358 c 0,11,12
 389 1366 389 1366 381.5 1374 c 128,-1,13
 374 1382 374 1382 366 1390 c 1,14,-1
 366 1389 l 1,15,16
 359 1396 359 1396 351 1405 c 128,-1,17
 343 1414 343 1414 335 1423 c 0,18,19
 328 1430 328 1430 318 1441 c 128,-1,20
 308 1452 308 1452 297.5 1463.5 c 128,-1,21
 287 1475 287 1475 278.5 1485.5 c 128,-1,22
 270 1496 270 1496 265 1501 c 1,23,-1
 527 1501 l 1,24,-1
 723 1186 l 1,0,-1
841 639 m 1,25,26
 834 690 834 690 822.5 730 c 128,-1,27
 811 770 811 770 795 799 c 1,28,29
 760 856 760 856 702 887 c 128,-1,30
 644 918 644 918 567 918 c 0,31,32
 513 918 513 918 463.5 894.5 c 128,-1,33
 414 871 414 871 376 835 c 1,34,35
 346 798 346 798 322.5 746.5 c 128,-1,36
 299 695 299 695 293 639 c 1,37,-1
 841 639 l 1,25,26
1040 712 m 1,38,39
 1047 679 1047 679 1051 618 c 128,-1,40
 1055 557 1055 557 1055 467 c 1,41,-1
 288 467 l 1,42,43
 293 396 293 396 310.5 337.5 c 128,-1,44
 328 279 328 279 359 237 c 0,45,46
 424 146 424 146 565 146 c 0,47,48
 630 146 630 146 682.5 168.5 c 128,-1,49
 735 191 735 191 773 233 c 1,50,-1
 772 233 l 1,51,52
 792 257 792 257 810.5 289.5 c 128,-1,53
 829 322 829 322 840 359 c 1,54,-1
 1044 359 l 1,55,56
 1037 319 1037 319 1023.5 280 c 128,-1,57
 1010 241 1010 241 992 209 c 0,58,59
 972 173 972 173 950 142 c 128,-1,60
 928 111 928 111 904 88 c 0,61,62
 865 50 865 50 811 22.5 c 128,-1,63
 757 -5 757 -5 699 -22 c 1,64,65
 636 -37 636 -37 550 -37 c 0,66,67
 347 -37 347 -37 206 110 c 1,68,69
 67 258 67 258 67 519 c 0,70,71
 67 650 67 650 102 754 c 128,-1,72
 137 858 137 858 207 940 c 1,73,74
 349 1102 349 1102 578 1102 c 0,75,76
 635 1102 635 1102 691.5 1087.5 c 128,-1,77
 748 1073 748 1073 802 1047 c 1,78,79
 853 1021 853 1021 897 985.5 c 128,-1,80
 941 950 941 950 967 908 c 1,81,-1
 1040 712 l 1,38,39
EndSplineSet
Substitution2: "<17013,16013> Islamic Ornamental lookup 65 subtable" egrave
Substitution2: "<17010,16010> Urdu Swash lookup 62 subtable" egrave
EndChar

StartChar: ecircumflex
Encoding: 234 234 114
Width: 1139
GlyphClass: 2
Flags: W
LayerCount: 2
Fore
SplineSet
423 1448 m 1,0,1
 424 1449 424 1449 424 1450 c 1,2,3
 424 1449 424 1449 423 1448 c 1,0,1
663 1501 m 1,4,5
 680 1478 680 1478 698.5 1451.5 c 128,-1,6
 717 1425 717 1425 733 1402 c 0,7,8
 735 1400 735 1400 736.5 1396.5 c 128,-1,9
 738 1393 738 1393 740 1391 c 1,10,-1
 740 1392 l 1,11,12
 742 1388 742 1388 745 1384 c 0,13,14
 751 1376 751 1376 753 1373 c 0,15,16
 759 1364 759 1364 763 1360 c 0,17,18
 774 1345 774 1345 784 1329.5 c 128,-1,19
 794 1314 794 1314 805 1300 c 0,20,21
 808 1295 808 1295 812 1290.5 c 128,-1,22
 816 1286 816 1286 819 1281 c 0,23,24
 827 1269 827 1269 839 1251 c 128,-1,25
 851 1233 851 1233 862 1218 c 1,26,-1
 882 1186 l 1,27,-1
 685 1186 l 1,28,-1
 562 1361 l 1,29,30
 546 1340 546 1340 527.5 1313.5 c 128,-1,31
 509 1287 509 1287 492 1265 c 1,32,33
 479 1245 479 1245 464 1224 c 128,-1,34
 449 1203 449 1203 437 1186 c 1,35,-1
 239 1186 l 1,36,37
 247 1197 247 1197 257.5 1212.5 c 128,-1,38
 268 1228 268 1228 279.5 1244.5 c 128,-1,39
 291 1261 291 1261 302 1277 c 128,-1,40
 313 1293 313 1293 322 1305 c 0,41,42
 332 1319 332 1319 341.5 1333.5 c 128,-1,43
 351 1348 351 1348 360 1360 c 0,44,45
 374 1379 374 1379 387.5 1398.5 c 128,-1,46
 401 1418 401 1418 415 1438 c 0,47,48
 417 1440 417 1440 421 1445.5 c 128,-1,49
 425 1451 425 1451 424 1450 c 1,50,51
 432 1461 432 1461 442 1475.5 c 128,-1,52
 452 1490 452 1490 459 1501 c 1,53,-1
 663 1501 l 1,4,5
841 639 m 1,54,55
 834 690 834 690 822.5 730 c 128,-1,56
 811 770 811 770 795 799 c 1,57,58
 760 856 760 856 702 887 c 128,-1,59
 644 918 644 918 567 918 c 0,60,61
 513 918 513 918 463.5 894.5 c 128,-1,62
 414 871 414 871 376 835 c 1,63,64
 346 798 346 798 322.5 746.5 c 128,-1,65
 299 695 299 695 293 639 c 1,66,-1
 841 639 l 1,54,55
1040 712 m 1,67,68
 1047 679 1047 679 1051 618 c 128,-1,69
 1055 557 1055 557 1055 467 c 1,70,-1
 288 467 l 1,71,72
 293 396 293 396 310.5 337.5 c 128,-1,73
 328 279 328 279 359 237 c 0,74,75
 424 146 424 146 565 146 c 0,76,77
 630 146 630 146 682.5 168.5 c 128,-1,78
 735 191 735 191 773 233 c 1,79,-1
 772 233 l 1,80,81
 792 257 792 257 810.5 289.5 c 128,-1,82
 829 322 829 322 840 359 c 1,83,-1
 1044 359 l 1,84,85
 1037 319 1037 319 1023.5 280 c 128,-1,86
 1010 241 1010 241 992 209 c 0,87,88
 972 173 972 173 950 142 c 128,-1,89
 928 111 928 111 904 88 c 0,90,91
 865 50 865 50 811 22.5 c 128,-1,92
 757 -5 757 -5 699 -22 c 1,93,94
 636 -37 636 -37 550 -37 c 0,95,96
 347 -37 347 -37 206 110 c 1,97,98
 67 258 67 258 67 519 c 0,99,100
 67 650 67 650 102 754 c 128,-1,101
 137 858 137 858 207 940 c 1,102,103
 349 1102 349 1102 578 1102 c 0,104,105
 635 1102 635 1102 691.5 1087.5 c 128,-1,106
 748 1073 748 1073 802 1047 c 1,107,108
 853 1021 853 1021 897 985.5 c 128,-1,109
 941 950 941 950 967 908 c 1,110,-1
 1040 712 l 1,67,68
EndSplineSet
Substitution2: "<17013,16013> Islamic Ornamental lookup 65 subtable" ecircumflex
Substitution2: "<17010,16010> Urdu Swash lookup 62 subtable" ecircumflex
EndChar

StartChar: edieresis
Encoding: 235 235 115
Width: 1139
GlyphClass: 2
Flags: W
LayerCount: 2
Fore
SplineSet
615 1445 m 1,0,-1
 829 1445 l 1,1,-1
 829 1211 l 1,2,-1
 615 1211 l 1,3,-1
 615 1445 l 1,0,-1
292 1445 m 1,4,-1
 506 1445 l 1,5,-1
 506 1211 l 1,6,-1
 292 1211 l 1,7,-1
 292 1445 l 1,4,-1
841 639 m 1,8,9
 834 690 834 690 822.5 730 c 128,-1,10
 811 770 811 770 795 799 c 1,11,12
 760 856 760 856 702 887 c 128,-1,13
 644 918 644 918 567 918 c 0,14,15
 513 918 513 918 463.5 894.5 c 128,-1,16
 414 871 414 871 376 835 c 1,17,18
 346 798 346 798 322.5 746.5 c 128,-1,19
 299 695 299 695 293 639 c 1,20,-1
 841 639 l 1,8,9
1040 712 m 1,21,22
 1047 679 1047 679 1051 618 c 128,-1,23
 1055 557 1055 557 1055 467 c 1,24,-1
 288 467 l 1,25,26
 293 396 293 396 310.5 337.5 c 128,-1,27
 328 279 328 279 359 237 c 0,28,29
 424 146 424 146 565 146 c 0,30,31
 630 146 630 146 682.5 168.5 c 128,-1,32
 735 191 735 191 773 233 c 1,33,-1
 772 233 l 1,34,35
 792 257 792 257 810.5 289.5 c 128,-1,36
 829 322 829 322 840 359 c 1,37,-1
 1044 359 l 1,38,39
 1037 319 1037 319 1023.5 280 c 128,-1,40
 1010 241 1010 241 992 209 c 0,41,42
 972 173 972 173 950 142 c 128,-1,43
 928 111 928 111 904 88 c 0,44,45
 865 50 865 50 811 22.5 c 128,-1,46
 757 -5 757 -5 699 -22 c 1,47,48
 636 -37 636 -37 550 -37 c 0,49,50
 347 -37 347 -37 206 110 c 1,51,52
 67 258 67 258 67 519 c 0,53,54
 67 650 67 650 102 754 c 128,-1,55
 137 858 137 858 207 940 c 1,56,57
 349 1102 349 1102 578 1102 c 0,58,59
 635 1102 635 1102 691.5 1087.5 c 128,-1,60
 748 1073 748 1073 802 1047 c 1,61,62
 853 1021 853 1021 897 985.5 c 128,-1,63
 941 950 941 950 967 908 c 1,64,-1
 1040 712 l 1,21,22
EndSplineSet
Substitution2: "<17013,16013> Islamic Ornamental lookup 65 subtable" edieresis
Substitution2: "<17010,16010> Urdu Swash lookup 62 subtable" edieresis
EndChar

StartChar: iacute
Encoding: 237 237 116
Width: 569
GlyphClass: 2
Flags: W
LayerCount: 2
Fore
SplineSet
574 1501 m 1,0,1
 565 1491 565 1491 550 1474.5 c 128,-1,2
 535 1458 535 1458 519 1441 c 128,-1,3
 503 1424 503 1424 488 1408 c 128,-1,4
 473 1392 473 1392 464 1382 c 0,5,6
 447 1364 447 1364 428 1343.5 c 128,-1,7
 409 1323 409 1323 392 1304 c 1,8,9
 375 1287 375 1287 360 1270 c 128,-1,10
 345 1253 345 1253 328 1235 c 0,11,12
 324 1231 324 1231 316.5 1221.5 c 128,-1,13
 309 1212 309 1212 299 1201 c 1,14,-1
 299 1202 l 1,15,16
 294 1196 294 1196 291 1192.5 c 128,-1,17
 288 1189 288 1189 285 1186 c 1,18,-1
 113 1186 l 1,19,20
 115 1190 115 1190 121 1199.5 c 128,-1,21
 127 1209 127 1209 133.5 1219.5 c 128,-1,22
 140 1230 140 1230 145.5 1239 c 128,-1,23
 151 1248 151 1248 153 1251 c 0,24,25
 163 1265 163 1265 172 1279.5 c 128,-1,26
 181 1294 181 1294 190 1308 c 1,27,28
 197 1317 197 1317 207.5 1335.5 c 128,-1,29
 218 1354 218 1354 229 1374 c 0,30,31
 237 1387 237 1387 246 1400 c 128,-1,32
 255 1413 255 1413 264 1426 c 1,33,-1
 263 1426 l 1,34,35
 274 1443 274 1443 286.5 1463.5 c 128,-1,36
 299 1484 299 1484 310 1501 c 1,37,-1
 574 1501 l 1,0,1
171 1075 m 1,38,-1
 381 1075 l 1,39,-1
 381 0 l 1,40,-1
 171 0 l 1,41,-1
 171 1075 l 1,38,-1
EndSplineSet
Substitution2: "<17013,16013> Islamic Ornamental lookup 65 subtable" iacute
Substitution2: "<17010,16010> Urdu Swash lookup 62 subtable" iacute
EndChar

StartChar: igrave
Encoding: 236 236 117
Width: 569
GlyphClass: 2
Flags: W
LayerCount: 2
Fore
SplineSet
430 1186 m 1,0,-1
 262 1186 l 1,1,2
 246 1203 246 1203 228 1222 c 128,-1,3
 210 1241 210 1241 195 1258 c 0,4,5
 185 1268 185 1268 175.5 1279 c 128,-1,6
 166 1290 166 1290 155 1301 c 0,7,8
 142 1314 142 1314 130 1327.5 c 128,-1,9
 118 1341 118 1341 105 1355 c 0,10,11
 93 1368 93 1368 74.5 1387.5 c 128,-1,12
 56 1407 56 1407 36.5 1428 c 128,-1,13
 17 1449 17 1449 -1 1468.5 c 128,-1,14
 -19 1488 -19 1488 -31 1501 c 1,15,-1
 234 1501 l 1,16,-1
 430 1186 l 1,0,-1
163 1075 m 1,17,-1
 373 1075 l 1,18,-1
 373 0 l 1,19,-1
 163 0 l 1,20,-1
 163 1075 l 1,17,-1
EndSplineSet
Substitution2: "<17013,16013> Islamic Ornamental lookup 65 subtable" igrave
Substitution2: "<17010,16010> Urdu Swash lookup 62 subtable" igrave
EndChar

StartChar: icircumflex
Encoding: 238 238 118
Width: 569
GlyphClass: 2
Flags: W
LayerCount: 2
Fore
SplineSet
134 1448 m 1,0,1
 135 1449 135 1449 135 1450 c 1,2,3
 135 1449 135 1449 134 1448 c 1,0,1
374 1501 m 1,4,5
 391 1478 391 1478 409.5 1451.5 c 128,-1,6
 428 1425 428 1425 444 1402 c 0,7,8
 446 1400 446 1400 447.5 1396.5 c 128,-1,9
 449 1393 449 1393 451 1391 c 1,10,-1
 451 1392 l 1,11,12
 453 1388 453 1388 456 1384 c 0,13,14
 462 1376 462 1376 464 1373 c 0,15,16
 470 1364 470 1364 474 1360 c 0,17,18
 485 1345 485 1345 495 1329.5 c 128,-1,19
 505 1314 505 1314 516 1300 c 0,20,21
 519 1295 519 1295 523 1290.5 c 128,-1,22
 527 1286 527 1286 530 1281 c 0,23,24
 538 1269 538 1269 550 1251 c 128,-1,25
 562 1233 562 1233 573 1218 c 1,26,-1
 593 1186 l 1,27,-1
 396 1186 l 1,28,-1
 273 1361 l 1,29,30
 257 1340 257 1340 238.5 1313.5 c 128,-1,31
 220 1287 220 1287 203 1265 c 1,32,33
 190 1245 190 1245 175 1224 c 128,-1,34
 160 1203 160 1203 148 1186 c 1,35,-1
 -50 1186 l 1,36,37
 -43 1197 -43 1197 -32 1212.5 c 128,-1,38
 -21 1228 -21 1228 -9.5 1244.5 c 128,-1,39
 2 1261 2 1261 13 1277 c 128,-1,40
 24 1293 24 1293 33 1305 c 0,41,42
 43 1319 43 1319 52.5 1333.5 c 128,-1,43
 62 1348 62 1348 71 1360 c 0,44,45
 85 1379 85 1379 98.5 1398.5 c 128,-1,46
 112 1418 112 1418 126 1438 c 0,47,48
 128 1440 128 1440 132 1445.5 c 128,-1,49
 136 1451 136 1451 135 1450 c 1,50,51
 143 1461 143 1461 153 1475.5 c 128,-1,52
 163 1490 163 1490 170 1501 c 1,53,-1
 374 1501 l 1,4,5
166 1075 m 1,54,-1
 377 1075 l 1,55,-1
 377 0 l 1,56,-1
 166 0 l 1,57,-1
 166 1075 l 1,54,-1
EndSplineSet
Substitution2: "<17013,16013> Islamic Ornamental lookup 65 subtable" icircumflex
Substitution2: "<17010,16010> Urdu Swash lookup 62 subtable" icircumflex
EndChar

StartChar: idieresis
Encoding: 239 239 119
Width: 569
GlyphClass: 2
Flags: W
LayerCount: 2
Fore
SplineSet
6 1445 m 1,0,-1
 220 1445 l 1,1,-1
 220 1211 l 1,2,-1
 6 1211 l 1,3,-1
 6 1445 l 1,0,-1
329 1445 m 1,4,-1
 543 1445 l 1,5,-1
 543 1211 l 1,6,-1
 329 1211 l 1,7,-1
 329 1445 l 1,4,-1
169 1075 m 1,8,-1
 380 1075 l 1,9,-1
 380 0 l 1,10,-1
 169 0 l 1,11,-1
 169 1075 l 1,8,-1
EndSplineSet
Substitution2: "<17013,16013> Islamic Ornamental lookup 65 subtable" idieresis
Substitution2: "<17010,16010> Urdu Swash lookup 62 subtable" idieresis
EndChar

StartChar: ntilde
Encoding: 241 241 120
Width: 1139
GlyphClass: 2
Flags: W
LayerCount: 2
Fore
SplineSet
609 1403 m 0,0,1
 635 1392 635 1392 656.5 1385 c 128,-1,2
 678 1378 678 1378 699 1378 c 0,3,4
 722 1378 722 1378 738.5 1385.5 c 128,-1,5
 755 1393 755 1393 765 1406 c 1,6,-1
 765 1405 l 1,7,8
 770 1412 770 1412 774 1427 c 128,-1,9
 778 1442 778 1442 782 1468 c 1,10,-1
 917 1468 l 1,11,12
 889 1319 889 1319 830 1269 c 1,13,14
 768 1219 768 1219 691 1219 c 0,15,16
 669 1219 669 1219 635 1226.5 c 128,-1,17
 601 1234 601 1234 573 1245 c 0,18,19
 565 1248 565 1248 553.5 1252.5 c 128,-1,20
 542 1257 542 1257 534 1260 c 1,21,-1
 533 1260 l 1,22,-1
 524 1264 l 2,23,24
 525 1263 525 1263 524 1263 c 0,25,26
 479 1280 479 1280 449.5 1288.5 c 128,-1,27
 420 1297 420 1297 394 1297 c 256,28,29
 368 1297 368 1297 349.5 1273.5 c 128,-1,30
 331 1250 331 1250 321 1205 c 1,31,-1
 194 1205 l 1,32,33
 202 1254 202 1254 214.5 1292 c 128,-1,34
 227 1330 227 1330 241 1353 c 1,35,36
 272 1397 272 1397 318.5 1425 c 128,-1,37
 365 1453 365 1453 420 1453 c 0,38,39
 454 1453 454 1453 496.5 1443 c 128,-1,40
 539 1433 539 1433 609 1403 c 0,0,1
126 1079 m 1,41,-1
 324 1079 l 1,42,-1
 324 954 l 1,43,44
 398 1027 398 1027 479.5 1064.5 c 128,-1,45
 561 1102 561 1102 651 1102 c 0,46,47
 885 1102 885 1102 966 938 c 0,48,49
 988 893 988 893 999.5 831 c 128,-1,50
 1011 769 1011 769 1011 688 c 2,51,-1
 1011 0 l 1,52,-1
 801 0 l 1,53,-1
 801 676 l 2,54,55
 801 723 801 723 795 760 c 128,-1,56
 789 797 789 797 775 824 c 0,57,58
 732 913 732 913 618 913 c 0,59,60
 590 913 590 913 564.5 910 c 128,-1,61
 539 907 539 907 519 901 c 1,62,-1
 520 901 l 1,63,64
 489 890 489 890 455.5 867.5 c 128,-1,65
 422 845 422 845 399 819 c 1,66,67
 380 796 380 796 365.5 768.5 c 128,-1,68
 351 741 351 741 344 718 c 1,69,-1
 345 719 l 1,70,71
 339 692 339 692 336 652.5 c 128,-1,72
 333 613 333 613 333 564 c 2,73,-1
 333 0 l 1,74,-1
 126 0 l 1,75,-1
 126 1079 l 1,41,-1
EndSplineSet
Substitution2: "<17013,16013> Islamic Ornamental lookup 65 subtable" ntilde
Substitution2: "<17010,16010> Urdu Swash lookup 62 subtable" ntilde
EndChar

StartChar: oacute
Encoding: 243 243 121
Width: 1139
GlyphClass: 2
Flags: W
LayerCount: 2
Fore
SplineSet
855 1501 m 1,0,1
 846 1491 846 1491 833 1477 c 128,-1,2
 820 1463 820 1463 806.5 1448 c 128,-1,3
 793 1433 793 1433 780 1419 c 128,-1,4
 767 1405 767 1405 758 1395 c 0,5,6
 732 1367 732 1367 706.5 1339 c 128,-1,7
 681 1311 681 1311 658 1287 c 0,8,9
 655 1284 655 1284 652 1280 c 128,-1,10
 649 1276 649 1276 645 1272 c 0,11,12
 635 1263 635 1263 630 1255 c 0,13,14
 628 1253 628 1253 625.5 1250.5 c 128,-1,15
 623 1248 623 1248 619 1243 c 256,16,17
 615 1238 615 1238 611 1234.5 c 128,-1,18
 607 1231 607 1231 603 1226 c 0,19,20
 599 1222 599 1222 595 1217.5 c 128,-1,21
 591 1213 591 1213 586 1208 c 0,22,23
 583 1204 583 1204 579 1199.5 c 128,-1,24
 575 1195 575 1195 567 1186 c 1,25,-1
 394 1186 l 1,26,27
 397 1192 397 1192 403 1201 c 128,-1,28
 409 1210 409 1210 415 1219.5 c 128,-1,29
 421 1229 421 1229 426.5 1238 c 128,-1,30
 432 1247 432 1247 436 1251 c 1,31,32
 444 1265 444 1265 453.5 1279.5 c 128,-1,33
 463 1294 463 1294 472 1308 c 1,34,35
 479 1317 479 1317 489 1335.5 c 128,-1,36
 499 1354 499 1354 511 1374 c 0,37,38
 519 1387 519 1387 528 1400 c 128,-1,39
 537 1413 537 1413 545 1426 c 1,40,-1
 544 1426 l 1,41,42
 555 1443 555 1443 568 1463.5 c 128,-1,43
 581 1484 581 1484 591 1501 c 1,44,-1
 855 1501 l 1,0,1
848 556 m 0,45,46
 848 625 848 625 835 684 c 128,-1,47
 822 743 822 743 801 788 c 1,48,-1
 802 788 l 1,49,50
 767 854 767 854 705.5 889.5 c 128,-1,51
 644 925 644 925 559 925 c 0,52,53
 484 925 484 925 428 895 c 128,-1,54
 372 865 372 865 337 809 c 1,55,-1
 337 810 l 1,56,57
 302 750 302 750 283.5 676 c 128,-1,58
 265 602 265 602 265 519 c 0,59,60
 265 358 265 358 338 250 c 1,61,62
 408 144 408 144 557 144 c 0,63,64
 640 144 640 144 697 175.5 c 128,-1,65
 754 207 754 207 784 267 c 1,66,-1
 783 266 l 1,67,68
 813 332 813 332 830.5 405 c 128,-1,69
 848 478 848 478 848 556 c 0,45,46
1061 561 m 0,70,71
 1061 433 1061 433 1028 325.5 c 128,-1,72
 995 218 995 218 935 133 c 1,73,74
 872 49 872 49 773 5.5 c 128,-1,75
 674 -38 674 -38 540 -38 c 0,76,77
 428 -38 428 -38 340 1 c 128,-1,78
 252 40 252 40 186 114 c 1,79,80
 123 189 123 189 89 291 c 128,-1,81
 55 393 55 393 55 516 c 0,82,83
 55 786 55 786 193 948 c 0,84,85
 329 1109 329 1109 564 1109 c 0,86,87
 776 1109 776 1109 918 971 c 0,88,89
 1061 831 1061 831 1061 561 c 0,70,71
EndSplineSet
Substitution2: "<17013,16013> Islamic Ornamental lookup 65 subtable" oacute
Substitution2: "<17010,16010> Urdu Swash lookup 62 subtable" oacute
EndChar

StartChar: ograve
Encoding: 242 242 122
Width: 1139
GlyphClass: 2
Flags: W
LayerCount: 2
Fore
SplineSet
720 1186 m 1,0,-1
 548 1186 l 1,1,2
 543 1192 543 1192 540 1195.5 c 128,-1,3
 537 1199 537 1199 534 1202 c 2,4,-1
 525 1214 l 1,5,6
 499 1243 499 1243 473.5 1271 c 128,-1,7
 448 1299 448 1299 422 1326 c 0,8,9
 414 1334 414 1334 407.5 1342 c 128,-1,10
 401 1350 401 1350 393 1358 c 0,11,12
 386 1366 386 1366 378.5 1374 c 128,-1,13
 371 1382 371 1382 363 1390 c 1,14,-1
 363 1389 l 1,15,16
 356 1396 356 1396 348 1405 c 128,-1,17
 340 1414 340 1414 332 1423 c 0,18,19
 325 1430 325 1430 315 1441 c 128,-1,20
 305 1452 305 1452 294.5 1463.5 c 128,-1,21
 284 1475 284 1475 275.5 1485.5 c 128,-1,22
 267 1496 267 1496 262 1501 c 1,23,-1
 524 1501 l 1,24,-1
 720 1186 l 1,0,-1
848 556 m 0,25,26
 848 625 848 625 835 684 c 128,-1,27
 822 743 822 743 801 788 c 1,28,-1
 802 788 l 1,29,30
 767 854 767 854 705.5 889.5 c 128,-1,31
 644 925 644 925 559 925 c 0,32,33
 484 925 484 925 428 895 c 128,-1,34
 372 865 372 865 337 809 c 1,35,-1
 337 810 l 1,36,37
 302 750 302 750 283.5 676 c 128,-1,38
 265 602 265 602 265 519 c 0,39,40
 265 358 265 358 338 250 c 1,41,42
 408 144 408 144 557 144 c 0,43,44
 640 144 640 144 697 175.5 c 128,-1,45
 754 207 754 207 784 267 c 1,46,-1
 783 266 l 1,47,48
 813 332 813 332 830.5 405 c 128,-1,49
 848 478 848 478 848 556 c 0,25,26
1061 561 m 0,50,51
 1061 433 1061 433 1028 325.5 c 128,-1,52
 995 218 995 218 935 133 c 1,53,54
 872 49 872 49 773 5.5 c 128,-1,55
 674 -38 674 -38 540 -38 c 0,56,57
 428 -38 428 -38 340 1 c 128,-1,58
 252 40 252 40 186 114 c 1,59,60
 123 189 123 189 89 291 c 128,-1,61
 55 393 55 393 55 516 c 0,62,63
 55 786 55 786 193 948 c 0,64,65
 329 1109 329 1109 564 1109 c 0,66,67
 776 1109 776 1109 918 971 c 0,68,69
 1061 831 1061 831 1061 561 c 0,50,51
EndSplineSet
Substitution2: "<17013,16013> Islamic Ornamental lookup 65 subtable" ograve
Substitution2: "<17010,16010> Urdu Swash lookup 62 subtable" ograve
EndChar

StartChar: ocircumflex
Encoding: 244 244 123
Width: 1139
GlyphClass: 2
Flags: W
LayerCount: 2
Fore
SplineSet
420 1448 m 1,0,1
 421 1449 421 1449 421 1450 c 1,2,3
 421 1449 421 1449 420 1448 c 1,0,1
660 1501 m 1,4,5
 677 1478 677 1478 695.5 1451.5 c 128,-1,6
 714 1425 714 1425 730 1402 c 0,7,8
 732 1400 732 1400 733.5 1396.5 c 128,-1,9
 735 1393 735 1393 737 1391 c 1,10,-1
 737 1392 l 1,11,12
 739 1388 739 1388 742 1384 c 0,13,14
 748 1376 748 1376 750 1373 c 0,15,16
 756 1364 756 1364 760 1360 c 0,17,18
 771 1345 771 1345 781 1329.5 c 128,-1,19
 791 1314 791 1314 802 1300 c 0,20,21
 805 1295 805 1295 809 1290.5 c 128,-1,22
 813 1286 813 1286 816 1281 c 0,23,24
 824 1269 824 1269 836 1251 c 128,-1,25
 848 1233 848 1233 859 1218 c 1,26,-1
 879 1186 l 1,27,-1
 682 1186 l 1,28,-1
 559 1361 l 1,29,30
 543 1340 543 1340 524.5 1313.5 c 128,-1,31
 506 1287 506 1287 489 1265 c 1,32,33
 476 1245 476 1245 461 1224 c 128,-1,34
 446 1203 446 1203 434 1186 c 1,35,-1
 236 1186 l 1,36,37
 244 1197 244 1197 254.5 1212.5 c 128,-1,38
 265 1228 265 1228 276.5 1244.5 c 128,-1,39
 288 1261 288 1261 299 1277 c 128,-1,40
 310 1293 310 1293 319 1305 c 0,41,42
 329 1319 329 1319 338.5 1333.5 c 128,-1,43
 348 1348 348 1348 357 1360 c 0,44,45
 371 1379 371 1379 384.5 1398.5 c 128,-1,46
 398 1418 398 1418 412 1438 c 0,47,48
 414 1440 414 1440 418 1445.5 c 128,-1,49
 422 1451 422 1451 421 1450 c 1,50,51
 429 1461 429 1461 439 1475.5 c 128,-1,52
 449 1490 449 1490 456 1501 c 1,53,-1
 660 1501 l 1,4,5
848 556 m 0,54,55
 848 625 848 625 835 684 c 128,-1,56
 822 743 822 743 801 788 c 1,57,-1
 802 788 l 1,58,59
 767 854 767 854 705.5 889.5 c 128,-1,60
 644 925 644 925 559 925 c 0,61,62
 484 925 484 925 428 895 c 128,-1,63
 372 865 372 865 337 809 c 1,64,-1
 337 810 l 1,65,66
 302 750 302 750 283.5 676 c 128,-1,67
 265 602 265 602 265 519 c 0,68,69
 265 358 265 358 338 250 c 1,70,71
 408 144 408 144 557 144 c 0,72,73
 640 144 640 144 697 175.5 c 128,-1,74
 754 207 754 207 784 267 c 1,75,-1
 783 266 l 1,76,77
 813 332 813 332 830.5 405 c 128,-1,78
 848 478 848 478 848 556 c 0,54,55
1061 561 m 0,79,80
 1061 433 1061 433 1028 325.5 c 128,-1,81
 995 218 995 218 935 133 c 1,82,83
 872 49 872 49 773 5.5 c 128,-1,84
 674 -38 674 -38 540 -38 c 0,85,86
 428 -38 428 -38 340 1 c 128,-1,87
 252 40 252 40 186 114 c 1,88,89
 123 189 123 189 89 291 c 128,-1,90
 55 393 55 393 55 516 c 0,91,92
 55 786 55 786 193 948 c 0,93,94
 329 1109 329 1109 564 1109 c 0,95,96
 776 1109 776 1109 918 971 c 0,97,98
 1061 831 1061 831 1061 561 c 0,79,80
EndSplineSet
Substitution2: "<17013,16013> Islamic Ornamental lookup 65 subtable" ocircumflex
Substitution2: "<17010,16010> Urdu Swash lookup 62 subtable" ocircumflex
EndChar

